<?xml version="1.0" encoding="UTF-8" standalone="no"?>
<svg
   xmlns:dc="http://purl.org/dc/elements/1.1/"
   xmlns:cc="http://creativecommons.org/ns#"
   xmlns:rdf="http://www.w3.org/1999/02/22-rdf-syntax-ns#"
   xmlns:svg="http://www.w3.org/2000/svg"
   xmlns="http://www.w3.org/2000/svg"
   xmlns:sodipodi="http://sodipodi.sourceforge.net/DTD/sodipodi-0.dtd"
   xmlns:inkscape="http://www.inkscape.org/namespaces/inkscape"
   inkscape:version="1.0 (4035a4fb49, 2020-05-01)"
   sodipodi:docname="Group 47.svg"
   id="svg24"
   version="1.1"
   fill="none"
   viewBox="0 0 30 30"
   height="30"
   width="30">
  <metadata
     id="metadata30">
    <rdf:RDF>
      <cc:Work
         rdf:about="">
        <dc:format>image/svg+xml</dc:format>
        <dc:type
           rdf:resource="http://purl.org/dc/dcmitype/StillImage" />
      </cc:Work>
    </rdf:RDF>
  </metadata>
  <defs
     id="defs28" />
  <sodipodi:namedview
     inkscape:current-layer="svg24"
     inkscape:window-maximized="1"
     inkscape:window-y="-8"
     inkscape:window-x="-8"
     inkscape:cy="15"
     inkscape:cx="15"
     inkscape:zoom="28.333333"
     showgrid="false"
     id="namedview26"
     inkscape:window-height="1017"
     inkscape:window-width="1920"
     inkscape:pageshadow="2"
     inkscape:pageopacity="0"
     guidetolerance="10"
     gridtolerance="10"
     objecttolerance="10"
     borderopacity="1"
     bordercolor="#666666"
     pagecolor="#ffffff" />
  <path
     d="M 14.671875 0.33984375 C 6.582885 0.33984375 0.025390625 6.8973681 0.025390625 14.986328 C 0.025390625 23.075328 6.582885 29.632812 14.671875 29.632812 C 22.760875 29.632812 29.318359 23.075328 29.318359 14.986328 L 29.318359 11.681641 L 27.818359 11.681641 L 27.818359 14.986328 C 27.818359 22.246928 21.932375 28.132812 14.671875 28.132812 C 7.411315 28.132812 1.5253906 22.246928 1.5253906 14.986328 C 1.5253906 7.7257981 7.411305 1.8398438 14.671875 1.8398438 L 18.205078 1.8398438 L 18.205078 0.33984375 L 14.671875 0.33984375 z M 14.673828 2.7441406 C 11.923928 2.7441406 9.3855969 3.6490275 7.3417969 5.1796875 L 8.4140625 6.2539062 C 10.176432 4.9885263 12.338628 4.2441406 14.673828 4.2441406 L 15.369141 4.2441406 L 15.369141 2.7441406 L 14.673828 2.7441406 z M 16.759766 2.7441406 L 16.759766 4.2441406 L 18.412109 4.2441406 L 18.412109 2.7441406 L 16.759766 2.7441406 z M 14.671875 5.2910156 C 9.317345 5.2910156 4.9785156 9.6317481 4.9785156 14.986328 C 4.9785156 20.340828 9.317345 24.681641 14.671875 24.681641 C 20.026475 24.681641 24.367188 20.340828 24.367188 14.986328 L 24.367188 11.587891 L 22.867188 11.587891 L 22.867188 14.986328 C 22.867188 19.512428 19.198075 23.181641 14.671875 23.181641 C 10.145775 23.181641 6.4785156 19.512428 6.4785156 14.986328 C 6.4785156 10.460228 10.145775 6.7910156 14.671875 6.7910156 L 18.355469 6.7910156 L 18.355469 5.2910156 L 14.671875 5.2910156 z M 6.2734375 6.0800781 C 4.3881875 7.8587781 3.068245 10.229131 2.609375 12.894531 L 4.1347656 12.894531 C 4.5786756 10.645131 5.7235744 8.647705 7.3339844 7.140625 L 6.2734375 6.0800781 z M 25.416016 11.521484 L 25.416016 12.894531 L 26.916016 12.894531 L 26.916016 11.521484 L 25.416016 11.521484 z M 2.4511719 14.285156 C 2.4380819 14.517056 2.4296875 14.751128 2.4296875 14.986328 C 2.4296875 18.138028 3.621725 21.011741 5.578125 23.181641 L 6.640625 22.119141 C 4.954905 20.222041 3.9296875 17.723828 3.9296875 14.986328 C 3.9296875 14.750928 3.938215 14.516856 3.953125 14.285156 L 2.4511719 14.285156 z M 25.416016 14.285156 L 25.416016 14.986328 C 25.416016 17.321528 24.67165 19.481741 23.40625 21.244141 L 24.478516 22.318359 C 26.009116 20.274559 26.916016 17.736228 26.916016 14.986328 L 26.916016 14.285156 L 25.416016 14.285156 z M 22.519531 22.326172 C 21.011331 23.937772 19.011166 25.084044 16.759766 25.527344 L 16.759766 27.052734 C 19.427166 26.594634 21.800378 25.273219 23.580078 23.386719 L 22.519531 22.326172 z M 7.6289062 23.097656 L 6.5664062 24.160156 C 8.7257463 26.069756 11.564528 27.228516 14.673828 27.228516 C 14.907328 27.228516 15.138841 27.221884 15.369141 27.208984 L 15.369141 25.707031 C 15.139141 25.721731 14.907528 25.728516 14.673828 25.728516 C 11.978728 25.728516 9.5148763 24.736956 7.6289062 23.097656 z "
     style="fill:#a4947e;fill-opacity:1"
     id="path2" />
  <circle
     id="circle22"
     fill="#C947FD"
     r="3.98465"
     cy="4.32437"
     cx="25.3333" />
</svg>
