<svg width="30" height="30" viewBox="0 0 30 30" fill="none" xmlns="http://www.w3.org/2000/svg">
<path d="M18.2054 0.339722H14.6718C6.58281 0.339722 0.0253906 6.89714 0.0253906 14.9861C0.0253906 23.0751 6.58281 29.6325 14.6718 29.6325C22.7608 29.6325 29.3182 23.0751 29.3182 14.9861V11.6811H27.8182V14.9861C27.8182 22.2467 21.9323 28.1325 14.6718 28.1325C7.41124 28.1325 1.52539 22.2467 1.52539 14.9861C1.52539 7.72557 7.41123 1.83972 14.6718 1.83972H18.2054V0.339722Z" fill="#A4947E"/>
<path d="M2.60865 12.8944C3.06752 10.229 4.38817 7.85832 6.27342 6.07962L7.3346 7.1408C5.72419 8.64788 4.5781 10.645 4.13419 12.8944H2.60865Z" fill="#A4947E"/>
<path d="M2.45038 14.2855C2.43729 14.5174 2.43066 14.751 2.43066 14.9862C2.43066 18.1379 3.62159 21.0115 5.57799 23.1814L6.64028 22.1191C4.95456 20.222 3.93066 17.7237 3.93066 14.9862C3.93066 14.7508 3.93824 14.5172 3.95315 14.2855H2.45038Z" fill="#A4947E"/>
<path d="M25.4165 14.2855V14.9862C25.4165 17.3214 24.6714 19.4825 23.406 21.2449L24.4792 22.3181C26.0098 20.2743 26.9165 17.7361 26.9165 14.9862V14.2855H25.4165Z" fill="#A4947E"/>
<path d="M26.9165 12.8944V11.5208H25.4165V12.8944H26.9165Z" fill="#A4947E"/>
<path d="M16.7604 25.5266C19.0118 25.0833 21.0108 23.9368 22.519 22.3252L23.5801 23.3863C21.8004 25.2728 19.4278 26.5939 16.7604 27.052V25.5266Z" fill="#A4947E"/>
<path d="M7.34168 5.18058L8.41483 6.25374C10.1772 4.98836 12.3384 4.24329 14.6736 4.24329H15.3693V2.74329H14.6736C11.9237 2.74329 9.38548 3.64992 7.34168 5.18058Z" fill="#A4947E"/>
<path d="M6.56635 24.1604C8.72569 26.07 11.5643 27.2291 14.6736 27.2291C14.9071 27.2291 15.139 27.2226 15.3693 27.2097V25.7069C15.1393 25.7216 14.9073 25.7291 14.6736 25.7291C11.9785 25.7291 9.51527 24.7367 7.6293 23.0974L6.56635 24.1604Z" fill="#A4947E"/>
<path d="M16.7604 2.74329V4.24329H18.4126V2.74329H16.7604Z" fill="#A4947E"/>
<path d="M18.3561 5.29089H14.6728C9.31827 5.29089 4.97754 9.63162 4.97754 14.9862C4.97754 20.3407 9.31827 24.6815 14.6728 24.6815C20.0274 24.6815 24.3681 20.3407 24.3681 14.9862V11.5871H22.8681V14.9862C22.8681 19.5123 19.199 23.1815 14.6728 23.1815C10.1467 23.1815 6.47754 19.5123 6.47754 14.9862C6.47754 10.4601 10.1467 6.79089 14.6728 6.79089H18.3561V5.29089Z" fill="#A4947E"/>
<circle cx="25.3333" cy="4.32437" r="3.98465" fill="#C947FD"/>
</svg>
