<svg width="57" height="50" viewBox="0 0 57 50" fill="none" xmlns="http://www.w3.org/2000/svg">
<path d="M11.8804 39.6746C12.3335 39.6746 12.7007 39.3074 12.7007 38.8542C12.7007 38.4011 12.3335 38.0339 11.8804 38.0339H6.65283C6.19969 38.0339 5.83252 38.4011 5.83252 38.8542C5.83252 39.3074 6.19969 39.6746 6.65283 39.6746H11.8804Z" fill="#A4947E"/>
<path d="M17.1304 39.6746C17.5835 39.6746 17.9507 39.3074 17.9507 38.8542C17.9507 38.4011 17.5835 38.0339 17.1304 38.0339H15.1841C14.7309 38.0339 14.3638 38.4011 14.3638 38.8542C14.3638 39.3074 14.7309 39.6746 15.1841 39.6746H17.1304Z" fill="#A4947E"/>
<path d="M25.7935 42.4172C25.3403 42.4172 24.9731 42.7844 24.9731 43.2375C24.9731 43.6907 25.3403 44.0579 25.7935 44.0579H28.0679C28.5211 44.0579 28.8882 43.6907 28.8882 43.2375C28.8882 42.7844 28.5211 42.4172 28.0679 42.4172H25.7935Z" fill="#A4947E"/>
<path d="M13.4888 43.2375C13.4888 43.6907 13.8559 44.0579 14.3091 44.0579H22.4898C22.9429 44.0579 23.3101 43.6907 23.3101 43.2375C23.3101 42.7844 22.9429 42.4172 22.4898 42.4172H14.3091C13.8559 42.4172 13.4888 42.7844 13.4888 43.2375Z" fill="#A4947E"/>
<path d="M42.8111 38.0339H35.396C34.9429 38.0339 34.5757 38.4011 34.5757 38.8542C34.5757 39.3074 34.9429 39.6746 35.396 39.6746H42.8111C43.2642 39.6746 43.6314 39.3074 43.6314 38.8542C43.6314 38.4011 43.2641 38.0339 42.8111 38.0339Z" fill="#A4947E"/>
<path d="M32.0923 39.6746C32.5455 39.6746 32.9127 39.3074 32.9127 38.8542C32.9127 38.4011 32.5455 38.0339 32.0923 38.0339H29.0522C28.5991 38.0339 28.2319 38.4011 28.2319 38.8542C28.2319 39.3074 28.5991 39.6746 29.0522 39.6746H32.0923Z" fill="#A4947E"/>
<path d="M37.1423 43.2375C37.1423 43.6907 37.5095 44.0579 37.9626 44.0579H49.3545C49.8076 44.0579 50.1748 43.6907 50.1748 43.2375C50.1748 42.7844 49.8076 42.4172 49.3545 42.4172H37.9626C37.5095 42.4172 37.1423 42.7844 37.1423 43.2375Z" fill="#A4947E"/>
<path d="M55.6758 47.4598H45.6776C45.2245 47.4598 44.8573 47.827 44.8573 48.2802C44.8573 48.7333 45.2245 49.1005 45.6776 49.1005H55.6758C56.1289 49.1005 56.4961 48.7333 56.4961 48.2802C56.4961 47.827 56.1289 47.4598 55.6758 47.4598Z" fill="#A4947E"/>
<path d="M55.6758 30.9115C54.2111 30.9115 53.4509 31.647 52.84 32.238C52.3209 32.7403 51.9459 33.103 51.1451 33.103C50.3443 33.103 49.9692 32.7403 49.4502 32.238C48.8393 31.647 48.079 30.9115 46.6145 30.9115C45.1501 30.9115 44.3898 31.647 43.7791 32.2381C43.2601 32.7402 42.885 33.103 42.0845 33.103C41.2839 33.103 40.9088 32.7402 40.3899 32.2381C39.779 31.647 39.0188 30.9115 37.5543 30.9115C36.0899 30.9115 35.3297 31.647 34.719 32.2381C34.2 32.7402 33.825 33.103 33.0244 33.103C32.2239 33.103 31.8489 32.7402 31.3299 32.2381C30.7191 31.647 29.959 30.9115 28.4946 30.9115C27.0302 30.9115 26.2701 31.6472 25.6593 32.2381C25.1405 32.7402 24.7655 33.103 23.9652 33.103C23.1647 33.103 22.7897 32.7402 22.2707 32.2381C21.6599 31.647 20.8998 30.9115 19.4355 30.9115C17.971 30.9115 17.2108 31.647 16.6 32.2381C16.081 32.7402 15.706 33.103 14.9055 33.103C14.105 33.103 13.7299 32.7402 13.2109 32.2381C12.6002 31.647 11.84 30.9115 10.3756 30.9115C8.9113 30.9115 8.15114 31.647 7.54028 32.2381C7.02141 32.7402 6.64647 33.103 5.84595 33.103C5.04544 33.103 4.6705 32.7402 4.15163 32.2381C3.54077 31.647 2.78072 30.9115 1.31641 30.9115C0.863266 30.9115 0.496094 31.2787 0.496094 31.7318C0.496094 32.185 0.863266 32.5521 1.31641 32.5521C2.11681 32.5521 2.49175 32.9149 3.01062 33.4171C3.62148 34.008 4.38153 34.7437 5.84595 34.7437C7.31027 34.7437 8.07042 34.0081 8.68128 33.4171C9.20016 32.9149 9.57509 32.5521 10.3756 32.5521C11.1761 32.5521 11.5512 32.9149 12.0702 33.4171C12.6809 34.0081 13.4411 34.7437 14.9055 34.7437C16.3699 34.7437 17.1301 34.0081 17.7408 33.4172C18.2598 32.9149 18.6348 32.5521 19.4355 32.5521C20.2359 32.5521 20.6109 32.9149 21.1298 33.4171C21.7407 34.008 22.5008 34.7437 23.9652 34.7437C25.4295 34.7437 26.1896 34.0081 26.8003 33.4171C27.3192 32.9149 27.6942 32.5521 28.4946 32.5521C29.2951 32.5521 29.6701 32.9149 30.1891 33.4171C30.7999 34.0081 31.56 34.7437 33.0244 34.7437C34.4889 34.7437 35.249 34.0081 35.8598 33.4171C36.3787 32.9149 36.7538 32.5521 37.5543 32.5521C38.3549 32.5521 38.73 32.9149 39.2491 33.4172C39.8599 34.0081 40.6201 34.7437 42.0845 34.7437C43.5489 34.7437 44.3091 34.0081 44.9198 33.4172C45.4388 32.9149 45.8139 32.5521 46.6145 32.5521C47.4152 32.5521 47.7903 32.9149 48.3094 33.4172C48.9202 34.0081 49.6805 34.7437 51.1451 34.7437C52.6097 34.7437 53.3699 34.0081 53.9808 33.4172C54.4999 32.9149 54.8749 32.5521 55.6758 32.5521C56.1289 32.5521 56.4961 32.185 56.4961 31.7318C56.4961 31.2787 56.1289 30.9115 55.6758 30.9115Z" fill="#A4947E"/>
<path d="M41.8651 47.4598H1.31641C0.863266 47.4598 0.496094 47.827 0.496094 48.2802C0.496094 48.7333 0.863266 49.1005 1.31641 49.1005H41.8651C42.3182 49.1005 42.6854 48.7333 42.6854 48.2802C42.6854 47.827 42.3182 47.4598 41.8651 47.4598Z" fill="#A4947E"/>
<path d="M55.6758 13.0197H38.3746V10.9287H55.6758C56.1289 10.9287 56.4961 10.5615 56.4961 10.1083C56.4961 9.65521 56.1289 9.28803 55.6758 9.28803H43.9372V4.01299C43.9372 2.02706 42.3216 0.411377 40.3356 0.411377C38.3496 0.411377 36.734 2.02695 36.734 4.01299V5.45991H25.8183V4.01299C25.8183 2.02706 24.2027 0.411377 22.2167 0.411377C20.2306 0.411377 18.6152 2.02695 18.6152 4.01299V9.28803H1.31641C0.863266 9.28803 0.496094 9.65521 0.496094 10.1083C0.496094 10.5615 0.863266 10.9287 1.31641 10.9287H18.6152V13.0197H11.9177C11.4645 13.0197 11.0974 13.3869 11.0974 13.84C11.0974 14.2931 11.4645 14.6603 11.9177 14.6603H18.6152V28.4505C18.6152 28.9037 18.9823 29.2708 19.4355 29.2708C19.8886 29.2708 20.2558 28.9037 20.2558 28.4505V26.2303H36.734V28.4505C36.734 28.9037 37.1012 29.2708 37.5543 29.2708C38.0075 29.2708 38.3746 28.9037 38.3746 28.4505V25.4411C38.375 25.4308 38.3753 25.4205 38.3753 25.4101C38.3753 25.3997 38.3751 25.3895 38.3746 25.3792V21.5972C38.3754 21.5827 38.3758 21.568 38.3758 21.5533C38.3758 21.5387 38.3754 21.5239 38.3746 21.5095V14.6604H55.6758C56.1289 14.6604 56.4961 14.2933 56.4961 13.8401C56.4961 13.387 56.1289 13.0197 55.6758 13.0197ZM38.3746 4.01299C38.3746 2.9317 39.2543 2.052 40.3356 2.052C41.4169 2.052 42.2966 2.9317 42.2966 4.01299V9.28803H38.3747L38.3746 4.01299ZM36.734 7.10053V9.28803H25.8183V7.10053H36.734ZM22.2168 2.052C23.298 2.052 24.1777 2.9317 24.1777 4.01299V5.45991H20.2558V4.01299C20.2558 2.9317 21.1355 2.052 22.2168 2.052ZM20.2558 7.10053H24.1776V9.28803H20.2558V7.10053ZM36.734 10.9287V13.0197H20.2558V10.9287H36.734ZM20.2558 18.517H36.734V20.733H20.2558V18.517ZM36.734 16.8764H20.2558V14.6603H36.734V16.8764ZM20.2558 24.5897V22.3735H36.734V24.5897H20.2558Z" fill="#A4947E"/>
<path d="M1.31641 14.6603H8.09339C8.54653 14.6603 8.9137 14.2931 8.9137 13.84C8.9137 13.3868 8.54653 13.0197 8.09339 13.0197H1.31641C0.863266 13.0197 0.496094 13.3868 0.496094 13.84C0.496094 14.2931 0.863266 14.6603 1.31641 14.6603Z" fill="#A4947E"/>
</svg>
