<svg width="49" height="49" viewBox="0 0 49 49" fill="none" xmlns="http://www.w3.org/2000/svg">
<path d="M10.866 36.8567H11.9684L14.4459 30.6632H2.81515C1.32095 30.6632 0.105469 29.4477 0.105469 27.9535C0.105469 26.4593 1.32095 25.2438 2.81515 25.2438H22.3991L7.26444 7.94754C7.00973 7.65567 7.00973 7.2198 7.26444 6.92793L12.6838 0.734379C12.8317 0.566379 13.0438 0.469604 13.2668 0.469604H34.9442C35.1671 0.469604 35.38 0.566379 35.5271 0.733604L40.9465 6.92715C41.2012 7.21902 41.2012 7.65489 40.9465 7.94677L25.8118 25.2438H45.3958C46.89 25.2438 48.1055 26.4593 48.1055 27.9535C48.1055 29.4477 46.89 30.6632 45.3958 30.6632H42.1674C42.2804 30.9566 42.3385 31.2709 42.33 31.5968C42.3137 32.2665 42.0304 32.8828 41.538 33.3279L27.8402 45.9024C27.1233 46.5597 26.1935 46.9212 25.2219 46.9212H10.9442V48.4696H9.39579V37.6309C9.39579 36.3504 8.35373 35.3083 7.07321 35.3083H0.105469V33.7599H7.07321C8.94212 33.7599 10.506 35.0923 10.866 36.8567ZM22.3813 22.8717L18.1055 8.21154H9.55373L22.3813 22.8717ZM13.2668 2.4198L9.55373 6.66315H16.9798L13.2668 2.4198ZM14.9731 2.01799L18.6861 6.26135L22.3991 2.01799H14.9731ZM20.3924 6.66315H27.8185L24.1055 2.4198L20.3924 6.66315ZM25.8118 2.01799L29.5248 6.26135L33.2379 2.01799H25.8118ZM34.9442 2.4198L31.2311 6.66315H38.6572L34.9442 2.4198ZM38.6572 8.21154H30.1055L25.8296 22.8717L38.6572 8.21154ZM28.4928 8.21154H19.7189L24.1055 23.2533L28.4928 8.21154ZM45.3958 29.1148C46.036 29.1148 46.5571 28.5937 46.5571 27.9535C46.5571 27.3132 46.036 26.7922 45.3958 26.7922H2.81515C2.17489 26.7922 1.65386 27.3132 1.65386 27.9535C1.65386 28.5937 2.17489 29.1148 2.81515 29.1148H45.3958ZM23.785 30.6632H19.4603V37.1524L24.0404 39.4425L23.6487 31.5713C23.6332 31.2562 23.682 30.9496 23.785 30.6632ZM28.7398 36.674L28.7491 36.7979L28.6693 36.8041L26.9274 40.0084L32.058 35.3703L33.3246 31.9065C33.4275 31.6657 33.4198 31.4048 33.3044 31.1702C33.1883 30.9357 32.9839 30.7723 32.7308 30.7088C32.3491 30.6128 31.9496 30.7847 31.7638 31.1106L28.7398 36.674ZM30.2433 30.6632H28.1785C28.2497 30.8575 28.3047 31.0603 28.321 31.2755L28.5191 33.835L30.2433 30.6632ZM27.1604 36.3364L26.778 31.3948C26.7455 30.9844 26.3986 30.6632 25.9875 30.6632C25.7684 30.6632 25.5648 30.7506 25.4139 30.9093C25.2629 31.0681 25.1855 31.2763 25.1963 31.4946L25.5819 39.2404L27.1604 36.3364ZM34.7622 32.4771L34.5184 33.1452L37.2652 30.6632H34.7568C34.9953 31.2585 35.003 31.9181 34.7622 32.4771ZM10.9442 45.3728H25.2219C25.8048 45.3728 26.363 45.1553 26.7927 44.7612L40.4951 32.1829C40.674 32.0211 40.7762 31.7989 40.7824 31.5573C40.7886 31.3158 40.698 31.0897 40.5269 30.9186C40.201 30.5919 39.6745 30.5772 39.3346 30.8792L33.3811 36.2606L33.3493 36.3481L33.3029 36.331L26.9475 42.0755C26.7091 42.29 26.3661 42.3364 26.082 42.194L18.3401 38.323C18.0776 38.1922 17.9119 37.9235 17.9119 37.6301V30.6624H16.1135L13.2118 37.9181C13.0933 38.2123 12.8092 38.4051 12.4926 38.4051H10.9442V45.3728Z" fill="#A4947E"/>
</svg>
