<?xml version="1.0" encoding="UTF-8" standalone="no"?>
<svg
   xmlns:dc="http://purl.org/dc/elements/1.1/"
   xmlns:cc="http://creativecommons.org/ns#"
   xmlns:rdf="http://www.w3.org/1999/02/22-rdf-syntax-ns#"
   xmlns:svg="http://www.w3.org/2000/svg"
   xmlns="http://www.w3.org/2000/svg"
   xmlns:sodipodi="http://sodipodi.sourceforge.net/DTD/sodipodi-0.dtd"
   xmlns:inkscape="http://www.inkscape.org/namespaces/inkscape"
   inkscape:version="1.0 (1.0+r73+1)"
   sodipodi:docname="option-4.svg"
   id="svg24"
   version="1.1"
   fill="none"
   viewBox="0 0 41.033203 41.033203"
   height="41.033203"
   width="41.033203">
  <metadata
     id="metadata30">
    <rdf:RDF>
      <cc:Work
         rdf:about="">
        <dc:format>image/svg+xml</dc:format>
        <dc:type
           rdf:resource="http://purl.org/dc/dcmitype/StillImage" />
        <dc:title></dc:title>
      </cc:Work>
    </rdf:RDF>
  </metadata>
  <defs
     id="defs28" />
  <sodipodi:namedview
     fit-margin-bottom="0"
     fit-margin-right="0"
     fit-margin-left="0"
     fit-margin-top="0"
     inkscape:current-layer="svg24"
     inkscape:window-maximized="1"
     inkscape:window-y="0"
     inkscape:window-x="0"
     inkscape:cy="20.546875"
     inkscape:cx="8.10364"
     inkscape:zoom="15.317073"
     showgrid="false"
     id="namedview26"
     inkscape:window-height="1135"
     inkscape:window-width="1920"
     inkscape:pageshadow="2"
     inkscape:pageopacity="0"
     guidetolerance="10"
     gridtolerance="10"
     objecttolerance="10"
     borderopacity="1"
     bordercolor="#666666"
     pagecolor="#ffffff" />
  <g
     transform="translate(0.13867188,0.046875)"
     id="g126">
    <g
       id="g33"
       style="opacity:1" />
    <g
       id="g57"
       style="opacity:1;stroke-width:0;stroke-miterlimit:4;stroke-dasharray:none" />
    <g
       id="g63"
       style="opacity:1" />
    <g
       id="g81"
       style="opacity:1" />
    <g
       id="g87"
       style="opacity:1" />
    <g
       id="g75"
       style="opacity:1" />
    <g
       id="g39"
       style="opacity:1" />
    <g
       id="g69"
       style="opacity:1" />
    <g
       id="g45"
       style="opacity:1" />
    <g
       id="g51"
       style="opacity:1">
      <path
         d="m 20.378906,6.71875 c -7.588217,0 -13.7519529,6.161783 -13.7519529,13.75 0,7.588121 6.1637339,13.751953 13.7519529,13.751953 7.588123,0 13.75,-6.16383 13.75,-13.751953 v -5.144531 h -2.5 v 5.144531 c 0,6.219279 -5.030721,11.251953 -11.25,11.251953 -6.219279,0 -11.2519529,-5.032676 -11.2519529,-11.251953 0,-6.219282 5.0325719,-11.25 11.2519529,-11.25 h 5.533203 v -2.5 h -0.5 z m 0,1 h 4.533203 v 0.5 h -4.533203 c -6.759819,0 -12.2519529,5.490282 -12.2519529,12.25 0,6.759723 5.4922319,12.251953 12.2519529,12.251953 6.759721,0 12.25,-5.492232 12.25,-12.251953 v -4.144531 h 0.5 v 4.144531 c 0,7.047677 -5.702323,12.751953 -12.75,12.751953 -7.04778,0 -12.7519529,-5.704274 -12.7519529,-12.751953 0,-7.047783 5.7041699,-12.75 12.7519529,-12.75 z M 25.4123,7.21916 h -5.0341 c -7.318,0 -13.25034,5.93234 -13.25034,13.25034 0,7.3179 5.93234,13.2503 13.25034,13.2503 7.3179,0 13.2503,-5.9324 13.2503,-13.2503 V 15.824 h -1.5 v 4.6455 c 0,6.4895 -5.2608,11.7503 -11.7503,11.7503 -6.4895,0 -11.75034,-5.2608 -11.75034,-11.7503 0,-6.4895 5.26074,-11.75034 11.75034,-11.75034 h 5.0341 z m -15.074409,24.040606 -1.7695316,1.769531 0.3984375,0.353515 c 3.0387871,2.687337 7.0385461,4.31836 11.4121091,4.31836 0.328397,0 0.6545,-0.0091 0.978516,-0.02734 l 0.470703,-0.02539 v -2.507813 l -0.529297,0.0332 c -0.304117,0.01877 -0.610852,0.02734 -0.919922,0.02734 -3.711904,0 -7.099048,-1.369763 -9.689453,-3.632813 z m 0.107421,1.308593 c 2.715176,2.230172 6.147869,3.632813 9.933594,3.632813 0.150983,0 0.299237,-0.0094 0.449219,-0.01367 v 0.501953 c -0.149869,0.0041 -0.298261,0.01172 -0.449219,0.01172 -3.931898,0 -7.510071,-1.424383 -10.318359,-3.748047 z M 9.29829,33.0076 c 2.95111,2.6098 6.83051,4.1939 11.07981,4.1939 0.3191,0 0.636,-0.0089 0.9506,-0.0266 v -1.5026 c -0.3144,0.0194 -0.6313,0.0292 -0.9506,0.0292 -3.8351,0 -7.3391,-1.4174 -10.0169,-3.7568 z M 31.478516,30.169922 31.125,30.546875 c -2.090405,2.228256 -4.865175,3.804955 -7.988281,4.396484 l -0.40625,0.07813 v 0.414063 2.117187 l 0.583984,-0.09961 c 3.754906,-0.644769 7.094964,-2.505483 9.599609,-5.160156 l 0.333985,-0.353516 z m -0.03516,1.378906 0.357422,0.357422 c -2.174579,2.170667 -4.953142,3.695414 -8.070312,4.357422 v -0.486328 c 2.983186,-0.653125 5.628108,-2.1477 7.71289,-4.228516 z M 23.2299,35.435 c 3.2296,-0.6117 6.0985,-2.2429 8.2594,-4.5463 l 1.0611,1.0611 c -2.4324,2.5781 -5.6749,4.3836 -9.3205,5.0096 z M 35.109375,15.232422 v 2.878906 h 2.5 v -0.5 -2.378906 z m 1,1 h 0.5 v 0.878906 h -0.5 z M 37.1102,17.6107 v -1.8774 h -1.5 v 1.8774 z m -2.000825,1.401019 v 0.5 0.957031 c 0,3.236201 -1.0399,6.224292 -2.806641,8.654297 l -0.251953,0.345703 1.783203,1.783203 0.345704,-0.462891 c 2.154276,-2.876453 3.429687,-6.452113 3.429687,-10.320312 v -1.457031 z m 1,1 h 0.5 v 0.457031 c 0,3.434793 -1.132786,6.571183 -2.951172,9.193359 L 33.3125,29.316406 c 1.731537,-2.527462 2.796875,-5.554792 2.796875,-8.847656 z M 35.6102,19.5118 v 0.9576 c 0,3.3436 -1.0773,6.4356 -2.9038,8.9478 l 1.0727,1.0727 c 2.092,-2.7933 3.3311,-6.2622 3.3311,-10.0205 V 19.5118 Z M 3.2011719,19.011719 3.1738281,19.484375 c -0.018409,0.326275 -0.027344,0.653579 -0.027344,0.984375 0,4.433358 1.6764564,8.481457 4.4296875,11.535156 L 7.9296875,32.396484 9.6972656,30.626953 9.3828125,30.275391 C 7.0581383,27.670363 5.6464844,24.236895 5.6464844,20.46875 c 0,-0.311266 0.00834,-0.619369 0.027344,-0.925781 l 0.033203,-0.53125 z m 0.9570312,1 h 0.5019531 c -0.00437,0.152484 -0.013672,0.303527 -0.013672,0.457031 0,3.847249 1.4113048,7.353778 3.7070312,10.087891 L 8,30.910156 C 5.6135255,28.084117 4.1464844,24.459475 4.1464844,20.46875 c 0,-0.153373 0.0075,-0.304706 0.011719,-0.457031 z M 3.673,19.5118 c -0.01788,0.3169 -0.02694,0.6362 -0.02694,0.9576 0,4.3074 1.62765,8.2347 4.30145,11.2003 L 9.00974,30.6075 C 6.60665,27.9146 5.14606,24.3626 5.14606,20.4694 c 0,-0.3216 0.00997,-0.6409 0.02961,-0.9576 z M 8.9082031,7.5996094 8.5546875,7.9335938 C 5.9017173,10.436671 4.0423975,13.773366 3.3964844,17.525391 l -0.1015625,0.585937 h 0.59375 1.9394531 L 5.904297,17.703125 C 6.4968019,14.582733 8.0741207,11.811533 10.300781,9.7226562 L 10.677734,9.3691406 Z M 8.9414062,9.046875 9.2988281,9.4042969 C 7.2191008,11.487977 5.7220004,14.129984 5.0683594,17.111328 H 4.5859375 C 5.2485856,13.996163 6.7718779,11.220296 8.9414062,9.046875 Z M 3.88931,17.6107 C 4.51642,13.9679 6.32128,10.728 8.89773,8.29712 L 9.95889,9.35828 C 7.65714,11.5176 6.0266,14.3839 5.41389,17.6107 Z M 20.378906,-0.046875 c -11.3252398,0 -20.51757788,9.1904439 -20.51757788,20.515625 0,11.325318 9.19234978,20.517578 20.51757788,20.517578 11.325219,0 20.515625,-9.192259 20.515625,-20.517578 v -5.015625 h -2.5 v 5.015625 c 0,9.95638 -8.059245,18.017578 -18.015625,18.017578 -9.95638,0 -18.0175779,-8.061197 -18.0175779,-18.017578 0,-9.956278 8.0611989,-18.015625 18.0175779,-18.015625 h 5.328125 v -2.5 h -0.5 z m 0,1 h 4.328125 v 0.5 h -4.328125 c -10.4968205,0 -19.0175779,8.5189032 -19.0175779,19.015625 0,10.496819 8.520758,19.017578 19.0175779,19.017578 10.49682,0 19.015625,-8.520758 19.015625,-19.017578 v -4.015625 h 0.5 v 4.015625 c 0,10.784881 -8.730843,19.517578 -19.515625,19.517578 -10.7847914,0 -19.51757788,-8.732696 -19.51757788,-19.517578 0,-10.7847389 8.73277818,-19.515625 19.51757788,-19.515625 z M 25.2073,0.452576 h -4.8291 c -11.05502,0 -20.016872,8.961864 -20.016872,20.016824 0,11.0551 8.961862,20.0169 20.016872,20.0169 11.055,0 20.0169,-8.9618 20.0169,-20.0169 v -4.517 h -1.5 v 4.517 c 0,10.2266 -8.2903,18.5169 -18.5169,18.5169 -10.2266,0 -18.51687,-8.2903 -18.51687,-18.5169 0,-10.2265 8.29027,-18.51682 18.51687,-18.51682 h 4.8291 z m -2.476831,2.7857052 v 0.5 2 h 3.257812 v -2.5 z m 1,1 h 1.257812 v 0.5 H 23.730469 Z M 23.2299,3.73731 v 1.5 h 2.2576 v -1.5 z M 20.378906,3.2382812 c -3.868201,0 -7.443955,1.2754165 -10.320312,3.4296876 l -0.4628909,0.3457031 0.4082029,0.4082031 1.375,1.375 0.345703,-0.2519531 c 2.429903,-1.7667067 5.418099,-2.8066407 8.654297,-2.8066407 h 1.449219 v -2.5 z m 0,1 h 0.449219 v 0.5 h -0.449219 c -3.292867,0 -6.320279,1.0653584 -8.847656,2.796875 L 11.185547,7.1894531 c 2.62209,-1.8183755 5.758568,-2.9511718 9.193359,-2.9511719 z M 10.3577,7.06842 11.4304,8.14111 c 2.5121,-1.82647 5.6041,-2.9038 8.9477,-2.9038 h 0.9506 v -1.5 h -0.9506 c -3.7583,0 -7.2272,1.23912 -10.0204,3.33111 z"
         style="color:#000000;font-style:normal;font-variant:normal;font-weight:normal;font-stretch:normal;font-size:medium;line-height:normal;font-family:sans-serif;font-variant-ligatures:normal;font-variant-position:normal;font-variant-caps:normal;font-variant-numeric:normal;font-variant-alternates:normal;font-variant-east-asian:normal;font-feature-settings:normal;font-variation-settings:normal;text-indent:0;text-align:start;text-decoration:none;text-decoration-line:none;text-decoration-style:solid;text-decoration-color:#000000;letter-spacing:normal;word-spacing:normal;text-transform:none;writing-mode:lr-tb;direction:ltr;text-orientation:mixed;dominant-baseline:auto;baseline-shift:baseline;text-anchor:start;white-space:normal;shape-padding:0;shape-margin:0;inline-size:0;clip-rule:nonzero;display:inline;overflow:visible;visibility:visible;isolation:auto;mix-blend-mode:normal;color-interpolation:sRGB;color-interpolation-filters:linearRGB;solid-color:#000000;solid-opacity:1;vector-effect:none;fill:#a4947e;fill-opacity:1;fill-rule:nonzero;stroke:none;stroke-width:1;stroke-linecap:butt;stroke-linejoin:miter;stroke-miterlimit:4;stroke-dasharray:none;stroke-dashoffset:0;stroke-opacity:1;color-rendering:auto;image-rendering:auto;shape-rendering:auto;text-rendering:auto;enable-background:accumulate;stop-color:#000000;stop-opacity:1"
         id="path55" />
    </g>
  </g>
  <circle
     id="circle22"
     fill="#c947fd"
     r="5.4457202"
     cy="5.9451752"
     cx="35.088272" />
</svg>
