<svg width="50" height="42" viewBox="0 0 50 42" fill="none" xmlns="http://www.w3.org/2000/svg">
<path d="M43.3764 31.7354C43.7667 31.7354 44.083 31.4245 44.083 31.041C44.083 30.6574 43.7667 30.3465 43.3764 30.3465C42.9861 30.3465 42.6697 30.6574 42.6697 31.041C42.6697 31.4245 42.9861 31.7354 43.3764 31.7354Z" fill="#A4947E"/>
<path fill-rule="evenodd" clip-rule="evenodd" d="M44.283 31.041C44.283 31.5382 43.8738 31.9354 43.3764 31.9354C42.8789 31.9354 42.4697 31.5382 42.4697 31.041C42.4697 30.5437 42.8789 30.1465 43.3764 30.1465C43.8738 30.1465 44.283 30.5437 44.283 31.041ZM44.083 31.041C44.083 31.4245 43.7667 31.7354 43.3764 31.7354C42.9861 31.7354 42.6697 31.4245 42.6697 31.041C42.6697 30.6574 42.9861 30.3465 43.3764 30.3465C43.7667 30.3465 44.083 30.6574 44.083 31.041Z" fill="#A4947E"/>
<path d="M38.9715 31.7354C39.3617 31.7354 39.6781 31.4245 39.6781 31.041C39.6781 30.6574 39.3617 30.3465 38.9715 30.3465C38.5812 30.3465 38.2648 30.6574 38.2648 31.041C38.2648 31.4245 38.5812 31.7354 38.9715 31.7354Z" fill="#A4947E"/>
<path fill-rule="evenodd" clip-rule="evenodd" d="M39.8781 31.041C39.8781 31.5382 39.4689 31.9354 38.9715 31.9354C38.474 31.9354 38.0648 31.5382 38.0648 31.041C38.0648 30.5437 38.474 30.1465 38.9715 30.1465C39.4689 30.1465 39.8781 30.5437 39.8781 31.041ZM39.6781 31.041C39.6781 31.4245 39.3617 31.7354 38.9715 31.7354C38.5812 31.7354 38.2648 31.4245 38.2648 31.041C38.2648 30.6574 38.5812 30.3465 38.9715 30.3465C39.3617 30.3465 39.6781 30.6574 39.6781 31.041Z" fill="#A4947E"/>
<path d="M34.5667 31.7354C34.957 31.7354 35.2733 31.4245 35.2733 31.041C35.2733 30.6574 34.957 30.3465 34.5667 30.3465C34.1764 30.3465 33.86 30.6574 33.86 31.041C33.86 31.4245 34.1764 31.7354 34.5667 31.7354Z" fill="#A4947E"/>
<path fill-rule="evenodd" clip-rule="evenodd" d="M35.4733 31.041C35.4733 31.5382 35.0641 31.9354 34.5667 31.9354C34.0693 31.9354 33.66 31.5382 33.66 31.041C33.66 30.5437 34.0693 30.1465 34.5667 30.1465C35.0641 30.1465 35.4733 30.5437 35.4733 31.041ZM35.2733 31.041C35.2733 31.4245 34.957 31.7354 34.5667 31.7354C34.1764 31.7354 33.86 31.4245 33.86 31.041C33.86 30.6574 34.1764 30.3465 34.5667 30.3465C34.957 30.3465 35.2733 30.6574 35.2733 31.041Z" fill="#A4947E"/>
<path d="M19.3445 14.0236C19.3445 14.4071 19.6609 14.718 20.0512 14.718C20.4414 14.718 20.7578 14.4071 20.7578 14.0236C20.7578 11.8014 22.5974 9.9936 24.8585 9.9936C27.1196 9.9936 28.9592 11.8014 28.9592 14.0236C28.9592 14.4071 29.2755 14.718 29.6658 14.718C30.0561 14.718 30.3725 14.4071 30.3725 14.0236C30.3725 11.0356 27.8989 8.60466 24.8585 8.60466C21.8181 8.60476 19.3445 11.0356 19.3445 14.0236Z" fill="#A4947E"/>
<path fill-rule="evenodd" clip-rule="evenodd" d="M20.0512 14.918C19.5538 14.918 19.1445 14.5208 19.1445 14.0236C19.1445 10.9219 21.7109 8.40476 24.8585 8.40466C28.0061 8.40466 30.5725 10.9219 30.5725 14.0236C30.5725 14.5208 30.1632 14.918 29.6658 14.918C29.1684 14.918 28.7591 14.5208 28.7591 14.0236C28.7591 11.9152 27.0124 10.1936 24.8585 10.1936C22.7046 10.1936 20.9578 11.9152 20.9578 14.0236C20.9578 14.5208 20.5486 14.918 20.0512 14.918ZM20.0512 14.718C19.6609 14.718 19.3445 14.4071 19.3445 14.0236C19.3445 11.0356 21.8181 8.60476 24.8585 8.60466C27.8989 8.60466 30.3725 11.0356 30.3725 14.0236C30.3725 14.4071 30.0561 14.718 29.6658 14.718C29.2755 14.718 28.9592 14.4071 28.9592 14.0236C28.9592 11.8014 27.1196 9.9936 24.8585 9.9936C22.5974 9.9936 20.7578 11.8014 20.7578 14.0236C20.7578 14.4071 20.4414 14.718 20.0512 14.718Z" fill="#A4947E"/>
<path d="M33.2518 14.0235C33.2518 14.4071 33.5682 14.718 33.9585 14.718C34.3487 14.718 34.6651 14.4071 34.6651 14.0235C34.6651 8.70946 30.266 4.38616 24.8588 4.38616C19.4514 4.38616 15.0523 8.70946 15.0523 14.0235C15.0523 14.4071 15.3687 14.718 15.7589 14.718C16.1492 14.718 16.4656 14.4071 16.4656 14.0235C16.4656 9.47532 20.2307 5.7751 24.8588 5.7751C29.4867 5.77519 33.2518 9.47541 33.2518 14.0235Z" fill="#A4947E"/>
<path fill-rule="evenodd" clip-rule="evenodd" d="M33.9585 14.918C33.4611 14.918 33.0518 14.5208 33.0518 14.0235C33.0518 9.58914 29.3795 5.97519 24.8588 5.9751C20.3379 5.9751 16.6656 9.58904 16.6656 14.0235C16.6656 14.5208 16.2564 14.918 15.7589 14.918C15.2615 14.918 14.8523 14.5208 14.8523 14.0235C14.8523 8.59574 19.3443 4.18616 24.8588 4.18616C30.3731 4.18616 34.8651 8.59574 34.8651 14.0235C34.8651 14.5208 34.4559 14.918 33.9585 14.918ZM33.9585 14.718C33.5682 14.718 33.2518 14.4071 33.2518 14.0235C33.2518 9.47541 29.4867 5.77519 24.8588 5.7751C20.2307 5.7751 16.4656 9.47532 16.4656 14.0235C16.4656 14.4071 16.1492 14.718 15.7589 14.718C15.3687 14.718 15.0523 14.4071 15.0523 14.0235C15.0523 8.70946 19.4514 4.38616 24.8588 4.38616C30.266 4.38616 34.6651 8.70946 34.6651 14.0235C34.6651 14.4071 34.3487 14.718 33.9585 14.718Z" fill="#A4947E"/>
<path d="M11.8216 14.7181C12.2118 14.7181 12.5282 14.4071 12.5282 14.0236C12.5282 7.34186 18.0595 1.90583 24.8586 1.90583C31.6576 1.90583 37.1889 7.34186 37.1889 14.0236C37.1889 14.4071 37.5053 14.7181 37.8956 14.7181C38.2858 14.7181 38.6022 14.4071 38.6022 14.0236C38.6022 6.576 32.4369 0.516895 24.8586 0.516895C17.2802 0.516895 11.1149 6.576 11.1149 14.0236C11.1149 14.4071 11.4313 14.7181 11.8216 14.7181Z" fill="#A4947E"/>
<path fill-rule="evenodd" clip-rule="evenodd" d="M12.7282 14.0236C12.7282 14.5208 12.319 14.9181 11.8216 14.9181C11.3241 14.9181 10.9149 14.5208 10.9149 14.0236C10.9149 6.46228 17.1731 0.316895 24.8586 0.316895C32.5441 0.316895 38.8022 6.46228 38.8022 14.0236C38.8022 14.5208 38.393 14.9181 37.8956 14.9181C37.3981 14.9181 36.9889 14.5208 36.9889 14.0236C36.9889 7.45558 31.5504 2.10583 24.8586 2.10583C18.1667 2.10583 12.7282 7.45558 12.7282 14.0236ZM12.5282 14.0236C12.5282 14.4071 12.2118 14.7181 11.8216 14.7181C11.4313 14.7181 11.1149 14.4071 11.1149 14.0236C11.1149 6.576 17.2802 0.516895 24.8586 0.516895C32.4369 0.516895 38.6022 6.576 38.6022 14.0236C38.6022 14.4071 38.2858 14.7181 37.8956 14.7181C37.5053 14.7181 37.1889 14.4071 37.1889 14.0236C37.1889 7.34186 31.6576 1.90583 24.8586 1.90583C18.0595 1.90583 12.5282 7.34186 12.5282 14.0236Z" fill="#A4947E"/>
<path d="M45.8023 23.5181H44.7671V22.2487C44.7671 21.3669 44.0372 20.6496 43.1399 20.6496H25.5654V16.2098C26.5343 15.9133 27.2399 15.0235 27.2399 13.9749C27.2399 12.6846 26.1717 11.6348 24.8587 11.6348C23.5458 11.6348 22.4776 12.6846 22.4776 13.9749C22.4776 15.0235 23.1831 15.9133 24.1522 16.2098V20.6496H15.7918C15.4015 20.6496 15.0851 20.9605 15.0851 21.3441C15.0851 21.7276 15.4015 22.0385 15.7918 22.0385H43.1399C43.2578 22.0385 43.3538 22.1328 43.3538 22.2487V23.5181H6.80815V22.2487C6.80815 22.1329 6.90416 22.0385 7.02203 22.0385H12.9651C13.3553 22.0385 13.6717 21.7276 13.6717 21.3441C13.6717 20.9605 13.3553 20.6496 12.9651 20.6496H7.02203C6.12477 20.6496 5.39485 21.3669 5.39485 22.2487V23.5181H4.44011C2.54364 23.5181 1.00078 25.0344 1.00078 26.8981V33.2392C1.00078 35.103 2.54364 36.6192 4.44011 36.6192H6.15935V38.5897C6.15935 39.8878 7.23535 40.9046 8.60908 40.9046C9.98281 40.9046 11.0588 39.8878 11.0588 38.5897V36.6192H18.0547C18.4449 36.6192 18.7613 36.3083 18.7613 35.9248C18.7613 35.5412 18.4449 35.2303 18.0547 35.2303H4.44011C3.32294 35.2303 2.41409 34.3371 2.41409 33.2392V31.7354H23.3384C23.7286 31.7354 24.045 31.4244 24.045 31.0409C24.045 30.6574 23.7286 30.3464 23.3384 30.3464H2.41409V26.8981C2.41409 25.8001 3.32294 24.907 4.44011 24.907H45.8022C46.9194 24.907 47.8282 25.8001 47.8282 26.8981V33.2391C47.8282 34.337 46.9193 35.2302 45.8022 35.2302H20.8813C20.491 35.2302 20.1746 35.5411 20.1746 35.9247C20.1746 36.3082 20.491 36.6191 20.8813 36.6191H39.1836V38.497C39.1836 39.8245 40.2826 40.9045 41.6333 40.9045C42.9841 40.9045 44.0831 39.8245 44.0831 38.497V36.6191H45.8023C47.6988 36.6191 49.2416 35.1029 49.2416 33.2391V26.8981C49.2416 25.0344 47.6987 23.5181 45.8023 23.5181ZM24.8587 13.0237C25.3924 13.0237 25.8265 13.4503 25.8265 13.9748C25.8265 14.4993 25.3924 14.926 24.8587 14.926C24.3251 14.926 23.8909 14.4993 23.8909 13.9748C23.8909 13.4503 24.3251 13.0237 24.8587 13.0237ZM9.64551 38.5898C9.64551 39.1977 9.12409 39.5157 8.60908 39.5157C8.09407 39.5157 7.57266 39.1977 7.57266 38.5898V36.6193H9.64551V38.5898ZM42.6698 38.4972C42.6698 39.0589 42.2048 39.5157 41.6333 39.5157C41.0619 39.5157 40.5969 39.0589 40.5969 38.4972V36.6193H42.6698V38.4972Z" fill="#A4947E"/>
<path fill-rule="evenodd" clip-rule="evenodd" d="M44.9671 23.3181H45.8023C47.8058 23.3181 49.4416 24.9206 49.4416 26.8981V33.2391C49.4416 35.2166 47.8059 36.8191 45.8023 36.8191H44.2831V38.497C44.2831 39.9383 43.0912 41.1045 41.6333 41.1045C40.1754 41.1045 38.9836 39.9383 38.9836 38.497V36.8191H20.8813C20.3839 36.8191 19.9746 36.4219 19.9746 35.9247C19.9746 35.4274 20.3839 35.0302 20.8813 35.0302H45.8022C46.8121 35.0302 47.6282 34.2233 47.6282 33.2391V26.8981C47.6282 25.9139 46.8122 25.107 45.8022 25.107H4.44011C3.4301 25.107 2.61409 25.9139 2.61409 26.8981V30.1464H23.3384C23.8358 30.1464 24.245 30.5436 24.245 31.0409C24.245 31.5381 23.8358 31.9354 23.3384 31.9354H2.61409V33.2392C2.61409 34.2234 3.4301 35.0303 4.44011 35.0303H18.0547C18.5521 35.0303 18.9613 35.4275 18.9613 35.9248C18.9613 36.422 18.5521 36.8192 18.0547 36.8192H11.2588V38.5897C11.2588 40.0088 10.0825 41.1046 8.60908 41.1046C7.13571 41.1046 5.95935 40.0088 5.95935 38.5897V36.8192H4.44011C2.43648 36.8192 0.800781 35.2167 0.800781 33.2392V26.8981C0.800781 24.9207 2.43648 23.3181 4.44011 23.3181H5.19485V22.2487C5.19485 21.2532 6.01761 20.4496 7.02203 20.4496H12.9651C13.4625 20.4496 13.8717 20.8468 13.8717 21.3441C13.8717 21.8413 13.4625 22.2385 12.9651 22.2385H7.02203C7.01737 22.2385 7.01374 22.2402 7.01108 22.2428C7.00847 22.2454 7.00815 22.2474 7.00815 22.2487V23.3181H43.1538V22.2487C43.1538 22.2473 43.1535 22.2453 43.1509 22.2428C43.1483 22.2402 43.1446 22.2385 43.1399 22.2385H15.7918C15.2944 22.2385 14.8851 21.8413 14.8851 21.3441C14.8851 20.8468 15.2944 20.4496 15.7918 20.4496H23.9522V16.3532C22.9767 15.992 22.2776 15.0641 22.2776 13.9749C22.2776 12.5709 23.4386 11.4348 24.8587 11.4348C26.2788 11.4348 27.4399 12.5709 27.4399 13.9749C27.4399 15.0641 26.7407 15.992 25.7654 16.3532V20.4496H43.1399C44.1444 20.4496 44.9671 21.2532 44.9671 22.2487V23.3181ZM25.5654 16.2098C26.5343 15.9133 27.2399 15.0235 27.2399 13.9749C27.2399 12.6846 26.1717 11.6348 24.8587 11.6348C23.5458 11.6348 22.4776 12.6846 22.4776 13.9749C22.4776 15.0235 23.1831 15.9133 24.1522 16.2098V20.6496H15.7918C15.4015 20.6496 15.0851 20.9605 15.0851 21.3441C15.0851 21.7276 15.4015 22.0385 15.7918 22.0385H43.1399C43.2578 22.0385 43.3538 22.1328 43.3538 22.2487V23.5181H6.80815V22.2487C6.80815 22.1329 6.90416 22.0385 7.02203 22.0385H12.9651C13.3553 22.0385 13.6717 21.7276 13.6717 21.3441C13.6717 20.9605 13.3553 20.6496 12.9651 20.6496H7.02203C6.12477 20.6496 5.39485 21.3669 5.39485 22.2487V23.5181H4.44011C2.54364 23.5181 1.00078 25.0344 1.00078 26.8981V33.2392C1.00078 35.103 2.54364 36.6192 4.44011 36.6192H6.15935V38.5897C6.15935 39.8878 7.23535 40.9046 8.60908 40.9046C9.98281 40.9046 11.0588 39.8878 11.0588 38.5897V36.6192H18.0547C18.4449 36.6192 18.7613 36.3083 18.7613 35.9248C18.7613 35.5412 18.4449 35.2303 18.0547 35.2303H4.44011C3.32294 35.2303 2.41409 34.3371 2.41409 33.2392V31.7354H23.3384C23.7286 31.7354 24.045 31.4244 24.045 31.0409C24.045 30.6574 23.7286 30.3464 23.3384 30.3464H2.41409V26.8981C2.41409 25.8001 3.32294 24.907 4.44011 24.907H45.8022C46.9194 24.907 47.8282 25.8001 47.8282 26.8981V33.2391C47.8282 34.337 46.9193 35.2302 45.8022 35.2302H20.8813C20.491 35.2302 20.1746 35.5411 20.1746 35.9247C20.1746 36.3082 20.491 36.6191 20.8813 36.6191H39.1836V38.497C39.1836 39.8245 40.2826 40.9045 41.6333 40.9045C42.9841 40.9045 44.0831 39.8245 44.0831 38.497V36.6191H45.8023C47.6988 36.6191 49.2416 35.1029 49.2416 33.2391V26.8981C49.2416 25.0344 47.6987 23.5181 45.8023 23.5181H44.7671V22.2487C44.7671 21.3669 44.0372 20.6496 43.1399 20.6496H25.5654V16.2098ZM25.6265 13.9748C25.6265 13.5641 25.2852 13.2237 24.8587 13.2237C24.4322 13.2237 24.0909 13.5641 24.0909 13.9748C24.0909 14.3855 24.4322 14.726 24.8587 14.726C25.2852 14.726 25.6265 14.3855 25.6265 13.9748ZM9.19562 39.1244C9.3452 39.005 9.44551 38.8299 9.44551 38.5898V36.8193H7.77266V38.5898C7.77266 38.8299 7.87296 39.005 8.02254 39.1244C8.17682 39.2476 8.39007 39.3157 8.60908 39.3157C8.82809 39.3157 9.04134 39.2476 9.19562 39.1244ZM41.6333 39.3157C42.0976 39.3157 42.4698 38.9451 42.4698 38.4972V36.8193H40.7969V38.4972C40.7969 38.9451 41.169 39.3157 41.6333 39.3157ZM25.8265 13.9748C25.8265 13.4503 25.3924 13.0237 24.8587 13.0237C24.3251 13.0237 23.8909 13.4503 23.8909 13.9748C23.8909 14.4993 24.3251 14.926 24.8587 14.926C25.3924 14.926 25.8265 14.4993 25.8265 13.9748ZM8.60908 39.5157C9.12409 39.5157 9.64551 39.1977 9.64551 38.5898V36.6193H7.57266V38.5898C7.57266 39.1977 8.09407 39.5157 8.60908 39.5157ZM41.6333 39.5157C42.2048 39.5157 42.6698 39.0589 42.6698 38.4972V36.6193H40.5969V38.4972C40.5969 39.0589 41.0619 39.5157 41.6333 39.5157Z" fill="#A4947E"/>
</svg>
