<svg width="51" height="48" viewBox="0 0 51 48" fill="none" xmlns="http://www.w3.org/2000/svg">
<path d="M42.1355 28.7834H1.23143C0.693798 28.7834 0.257812 29.2193 0.257812 29.757V36.508C0.257812 37.0457 0.693798 37.4816 1.23143 37.4816H16.6938C17.2314 37.4816 17.6674 37.0457 17.6674 36.508C17.6674 35.9704 17.2314 35.5344 16.6938 35.5344H13.633V30.7306H39.6262C39.3192 31.4147 39.1416 32.2377 39.1416 33.1325C39.1416 34.0272 39.3191 34.8502 39.6262 35.5344H24.6072C24.0695 35.5344 23.6336 35.9704 23.6336 36.508C23.6336 37.0457 24.0695 37.4816 24.6072 37.4816H42.1355C43.8143 37.4816 45.1293 35.5713 45.1293 33.1325C45.1293 30.6937 43.8143 28.7834 42.1355 28.7834ZM11.6858 35.5344H2.20504V30.7306H11.6858V35.5344ZM42.1355 35.5344C41.7666 35.5344 41.0889 34.6225 41.0889 33.1325C41.0889 31.6425 41.7666 30.7306 42.1355 30.7306C42.5045 30.7306 43.1821 31.6425 43.1821 33.1325C43.1821 34.6225 42.5045 35.5344 42.1355 35.5344Z" fill="#A4947E"/>
<path d="M45.5248 11.234H39.6597C38.2066 11.234 37.0244 10.0518 37.0244 8.59879C37.0244 8.06116 36.5885 7.62518 36.0508 7.62518C35.5131 7.62518 35.0772 8.06116 35.0772 8.59879C35.0772 9.70755 35.4732 10.7255 36.131 11.5189H31.9365C30.4834 11.5189 29.3012 10.3366 29.3012 8.88348C29.3012 7.43035 30.4835 6.24829 31.9365 6.24829C32.4742 6.24829 32.9101 5.8123 32.9101 5.27467C32.9101 4.73704 32.4742 4.30105 31.9365 4.30105C29.4097 4.30105 27.354 6.35675 27.354 8.88348C27.354 11.4103 29.4097 13.4661 31.9365 13.4661H36.4258C37.8789 13.4661 39.0611 14.6483 39.0611 16.1013C39.0611 17.1033 38.4923 18.0103 37.5993 18.4576C35.0998 18.5769 33.1029 20.6473 33.1029 23.1758C33.1029 24.9043 34.0509 26.4949 35.5772 27.3267C35.7252 27.4074 35.8847 27.4457 36.0422 27.4457C36.387 27.4457 36.7213 27.2619 36.8979 26.9377C37.1553 26.4656 36.981 25.8742 36.509 25.6169C35.6091 25.1264 35.0501 24.1911 35.0501 23.1758C35.0501 21.6455 36.2944 20.4005 37.8244 20.3991L37.8274 20.3993C37.8916 20.3993 37.9565 20.3928 38.021 20.3795C38.0872 20.3661 38.1509 20.3459 38.2115 20.3199C39.9104 19.5963 41.0082 17.9408 41.0082 16.1013C41.0082 14.9925 40.6122 13.9746 39.9545 13.1812H45.5247C46.9778 13.1812 48.1599 14.3634 48.1599 15.8164C48.1599 17.2696 46.9777 18.4518 45.5247 18.4518H43.5828C40.978 18.4518 38.8588 20.571 38.8588 23.1758V26.9262C38.8588 27.4639 39.2947 27.8999 39.8325 27.8999C40.3701 27.8999 40.8061 27.4639 40.8061 26.9262V23.1758C40.8061 21.6447 42.0517 20.399 43.5828 20.399H45.5247C48.0514 20.399 50.1071 18.3432 50.1071 15.8164C50.1072 13.2897 48.0515 11.234 45.5248 11.234Z" fill="#A4947E"/>
<path d="M35.6222 4.79288C35.0459 4.79288 34.5759 5.26274 34.5759 5.83912C34.5759 6.41531 35.0459 6.88537 35.6222 6.88537C36.1985 6.88537 36.6685 6.41531 36.6685 5.83912C36.6685 5.26274 36.1985 4.79288 35.6222 4.79288Z" fill="#A4947E"/>
<path d="M19.5719 35.5345H19.5256C18.988 35.5345 18.552 35.9704 18.552 36.5081C18.552 37.0457 18.988 37.4817 19.5256 37.4817H19.5719C20.1096 37.4817 20.5455 37.0457 20.5455 36.5081C20.5455 35.9704 20.1095 35.5345 19.5719 35.5345Z" fill="#A4947E"/>
<path fill-rule="evenodd" clip-rule="evenodd" d="M46.0982 47.8482L0.406494 2.15652L1.82071 0.74231L47.5124 46.434L46.0982 47.8482Z" fill="#A4947E"/>
</svg>
