<svg width="51" height="50" viewBox="0 0 51 50" fill="none" xmlns="http://www.w3.org/2000/svg">
<path d="M27.8294 8.48298H22.1062V1.76402H23.3116C23.711 1.76402 24.0349 1.44023 24.0349 1.04084C24.0349 0.641445 23.711 0.317651 23.3116 0.317651H8.72911C8.32972 0.317651 8.00583 0.641445 8.00583 1.04084C8.00583 1.44023 8.32963 1.76402 8.72911 1.76402H9.93452V8.48298H4.21133C2.34812 8.48298 0.832422 9.99859 0.832422 11.8616V43.1921C0.832422 44.8901 2.09163 46.2996 3.72535 46.5358V47.5175C3.72535 48.7138 4.69866 49.6871 5.8951 49.6871C7.09154 49.6871 8.06485 48.7138 8.06485 47.5175V46.5707H23.976V47.5175C23.976 48.7138 24.9493 49.6871 26.1457 49.6871C27.3421 49.6871 28.3155 48.7138 28.3155 47.5175V46.5358C29.9492 46.2995 31.2084 44.8901 31.2084 43.1921V17.367C31.2084 16.9676 30.8846 16.6438 30.4851 16.6438C30.0856 16.6438 29.7618 16.9676 29.7618 17.367V43.1921C29.7618 44.2576 28.895 45.1243 27.8295 45.1243H4.21133C3.14584 45.1243 2.27898 44.2576 2.27898 43.1921V11.8616C2.27898 10.7961 3.14584 9.92935 4.21133 9.92935H27.8294C28.895 9.92935 29.7617 10.7961 29.7617 11.8616V13.9815C29.7617 14.3809 30.0855 14.7047 30.485 14.7047C30.8845 14.7047 31.2083 14.3809 31.2083 13.9815V11.8616C31.2082 9.99859 29.6925 8.48298 27.8294 8.48298ZM26.8688 46.5707V47.5175C26.8688 47.9163 26.5443 48.2407 26.1455 48.2407C25.7467 48.2407 25.4222 47.9163 25.4222 47.5175V46.5707H26.8688ZM6.61828 46.5707V47.5175C6.61828 47.9163 6.29381 48.2407 5.895 48.2407C5.49619 48.2407 5.17182 47.9163 5.17182 47.5175V46.5707H6.61828ZM11.381 1.76402H20.6597V8.48298H11.381V1.76402Z" fill="#A4947E"/>
<path fill-rule="evenodd" clip-rule="evenodd" d="M22.2062 8.38299H27.8294C29.7477 8.38299 31.3082 9.94335 31.3083 11.8616V13.9815C31.3083 14.4361 30.9397 14.8047 30.485 14.8047C30.0303 14.8047 29.6617 14.4361 29.6617 13.9815V11.8616C29.6617 10.8513 28.8397 10.0294 27.8294 10.0294H4.21133C3.20106 10.0294 2.37898 10.8513 2.37898 11.8616V43.1921C2.37898 44.2023 3.20106 45.0243 4.21133 45.0243H27.8295C28.8397 45.0243 29.6618 44.2023 29.6618 43.1921V17.367C29.6618 16.9123 30.0304 16.5438 30.4851 16.5438C30.9398 16.5438 31.3084 16.9123 31.3084 17.367V43.1921C31.3084 44.9108 30.0557 46.3419 28.4155 46.6213V47.5175C28.4155 48.7691 27.3973 49.7871 26.1457 49.7871C24.8941 49.7871 23.876 48.7691 23.876 47.5175V46.6707H8.16484V47.5175C8.16484 48.7691 7.14676 49.7871 5.8951 49.7871C4.64344 49.7871 3.62535 48.7691 3.62535 47.5175V46.6213C1.98508 46.342 0.732422 44.9108 0.732422 43.1921V11.8616C0.732422 9.94335 2.2929 8.38299 4.21133 8.38299H9.83452V1.86402H8.72911C8.27441 1.86402 7.90583 1.49546 7.90583 1.04084C7.90583 0.586199 8.27451 0.217651 8.72911 0.217651H23.3116C23.7662 0.217651 24.1349 0.586199 24.1349 1.04084C24.1349 1.49547 23.7662 1.86402 23.3116 1.86402H22.2062V8.38299ZM3.72535 46.5358C2.09163 46.2996 0.832422 44.8901 0.832422 43.1921V11.8616C0.832422 9.99859 2.34812 8.48298 4.21133 8.48298H9.93452V1.76402H8.72911C8.32963 1.76402 8.00583 1.44023 8.00583 1.04084C8.00583 0.641445 8.32972 0.317651 8.72911 0.317651H23.3116C23.711 0.317651 24.0349 0.641445 24.0349 1.04084C24.0349 1.44023 23.711 1.76402 23.3116 1.76402H22.1062V8.48298H27.8294C29.6925 8.48298 31.2082 9.99859 31.2083 11.8616V13.9815C31.2083 14.3809 30.8845 14.7047 30.485 14.7047C30.0855 14.7047 29.7617 14.3809 29.7617 13.9815V11.8616C29.7617 10.7961 28.895 9.92935 27.8294 9.92935H4.21133C3.14584 9.92935 2.27898 10.7961 2.27898 11.8616V43.1921C2.27898 44.2576 3.14584 45.1243 4.21133 45.1243H27.8295C28.895 45.1243 29.7618 44.2576 29.7618 43.1921V17.367C29.7618 16.9676 30.0856 16.6438 30.4851 16.6438C30.8846 16.6438 31.2084 16.9676 31.2084 17.367V43.1921C31.2084 44.8901 29.9492 46.2995 28.3155 46.5358V47.5175C28.3155 48.7138 27.3421 49.6871 26.1457 49.6871C24.9493 49.6871 23.976 48.7138 23.976 47.5175V46.5707H8.06485V47.5175C8.06485 48.7138 7.09154 49.6871 5.8951 49.6871C4.69866 49.6871 3.72535 48.7138 3.72535 47.5175V46.5358ZM26.7688 47.5175V46.6707H25.5222V47.5175C25.5222 47.8611 25.8019 48.1407 26.1455 48.1407C26.4891 48.1407 26.7688 47.8611 26.7688 47.5175ZM6.51828 47.5175V46.6707H5.27182V47.5175C5.27182 47.8611 5.55142 48.1407 5.895 48.1407C6.2386 48.1407 6.51828 47.8611 6.51828 47.5175ZM20.5597 1.86402H11.481V8.38299H20.5597V1.86402ZM26.8688 46.5707H25.4222V47.5175C25.4222 47.9163 25.7467 48.2407 26.1455 48.2407C26.5443 48.2407 26.8688 47.9163 26.8688 47.5175V46.5707ZM6.61828 46.5707H5.17182V47.5175C5.17182 47.9163 5.49619 48.2407 5.895 48.2407C6.29381 48.2407 6.61828 47.9163 6.61828 47.5175V46.5707ZM11.381 1.76402V8.48298H20.6597V1.76402H11.381Z" fill="#A4947E"/>
<path d="M10.6465 43.6781H27.5921C27.9916 43.6781 28.3154 43.3543 28.3154 42.9549V26.852C28.3154 26.4526 27.9916 26.1288 27.5921 26.1288H4.44865C4.04926 26.1288 3.72537 26.4526 3.72537 26.852V42.9549C3.72537 43.3543 4.04916 43.6781 4.44865 43.6781H7.34158C7.74097 43.6781 8.06486 43.3543 8.06486 42.9549C8.06486 42.5555 7.74106 42.2317 7.34158 42.2317H5.17183V27.5752H26.8688V42.2317H10.6465C10.2471 42.2317 9.92325 42.5555 9.92325 42.9549C9.92325 43.3543 10.2471 43.6781 10.6465 43.6781Z" fill="#A4947E"/>
<path fill-rule="evenodd" clip-rule="evenodd" d="M27.5921 43.7781H10.6465C10.1919 43.7781 9.82325 43.4095 9.82325 42.9549C9.82325 42.5003 10.1919 42.1317 10.6465 42.1317H26.7688V27.6752H5.27183V42.1317H7.34158C7.79628 42.1317 8.16486 42.5003 8.16486 42.9549C8.16486 43.4095 7.79618 43.7781 7.34158 43.7781H4.44865C3.99394 43.7781 3.62537 43.4095 3.62537 42.9549V26.852C3.62537 26.3974 3.99404 26.0288 4.44865 26.0288H27.5921C28.0468 26.0288 28.4154 26.3974 28.4154 26.852V42.9549C28.4154 43.4095 28.0468 43.7781 27.5921 43.7781ZM27.5921 43.6781H10.6465C10.2471 43.6781 9.92325 43.3543 9.92325 42.9549C9.92325 42.5555 10.2471 42.2317 10.6465 42.2317H26.8688V27.5752H5.17183V42.2317H7.34158C7.74106 42.2317 8.06486 42.5555 8.06486 42.9549C8.06486 43.3543 7.74097 43.6781 7.34158 43.6781H4.44865C4.04916 43.6781 3.72537 43.3543 3.72537 42.9549V26.852C3.72537 26.4526 4.04926 26.1288 4.44865 26.1288H27.5921C27.9916 26.1288 28.3154 26.4526 28.3154 26.852V42.9549C28.3154 43.3543 27.9916 43.6781 27.5921 43.6781Z" fill="#A4947E"/>
<path d="M22.3849 33.5047C22.7843 33.5047 23.1082 33.1809 23.1082 32.7815V30.4325H24.6993C25.0988 30.4325 25.4226 30.1087 25.4226 29.7093C25.4226 29.3099 25.0988 28.9861 24.6993 28.9861H7.34159C6.9422 28.9861 6.61831 29.3099 6.61831 29.7093C6.61831 30.1087 6.9421 30.4325 7.34159 30.4325H21.6616V32.7815C21.6616 33.1809 21.9854 33.5047 22.3849 33.5047Z" fill="#A4947E"/>
<path fill-rule="evenodd" clip-rule="evenodd" d="M23.2082 32.7815C23.2082 33.2361 22.8395 33.6047 22.3849 33.6047C21.9302 33.6047 21.5616 33.2361 21.5616 32.7815V30.5325H7.34159C6.88688 30.5325 6.51831 30.1639 6.51831 29.7093C6.51831 29.2547 6.88699 28.8861 7.34159 28.8861H24.6993C25.154 28.8861 25.5226 29.2547 25.5226 29.7093C25.5226 30.1639 25.154 30.5325 24.6993 30.5325H23.2082V32.7815ZM23.1082 32.7815C23.1082 33.1809 22.7843 33.5047 22.3849 33.5047C21.9854 33.5047 21.6616 33.1809 21.6616 32.7815V30.4325H7.34159C6.9421 30.4325 6.61831 30.1087 6.61831 29.7093C6.61831 29.3099 6.9422 28.9861 7.34159 28.9861H24.6993C25.0988 28.9861 25.4226 29.3099 25.4226 29.7093C25.4226 30.1087 25.0988 30.4325 24.6993 30.4325H23.1082V32.7815Z" fill="#A4947E"/>
<path d="M20.8418 20.0469C21.2412 20.0469 21.5651 19.7231 21.5651 19.3237V16.431C21.5651 16.0316 21.2413 15.7078 20.8418 15.7078H11.1986C10.7993 15.7078 10.4754 16.0316 10.4754 16.431V19.3237C10.4754 19.7231 10.7992 20.0469 11.1986 20.0469H20.8418ZM11.9219 17.1542H20.1186V18.6005H11.9219V17.1542Z" fill="#A4947E"/>
<path fill-rule="evenodd" clip-rule="evenodd" d="M21.6651 19.3237C21.6651 19.7783 21.2964 20.1469 20.8418 20.1469H11.1986C10.7439 20.1469 10.3754 19.7783 10.3754 19.3237V16.431C10.3754 15.9763 10.744 15.6078 11.1986 15.6078H20.8418C21.2965 15.6078 21.6651 15.9763 21.6651 16.431V19.3237ZM20.0186 17.2542H12.0219V18.5005H20.0186V17.2542ZM21.5651 19.3237C21.5651 19.7231 21.2412 20.0469 20.8418 20.0469H11.1986C10.7992 20.0469 10.4754 19.7231 10.4754 19.3237V16.431C10.4754 16.0316 10.7993 15.7078 11.1986 15.7078H20.8418C21.2413 15.7078 21.5651 16.0316 21.5651 16.431V19.3237ZM11.9219 17.1542V18.6005H20.1186V17.1542H11.9219Z" fill="#A4947E"/>
<path d="M46.823 22.9162H41.0746V20.1649C41.0746 18.8965 40.0425 17.8645 38.774 17.8645H33.3303C32.9309 17.8645 32.6071 18.1883 32.6071 18.5877C32.6071 18.9871 32.9309 19.3109 33.3303 19.3109H38.774C39.2449 19.3109 39.6281 19.6941 39.6281 20.1649V22.9162H33.3303C32.9309 22.9162 32.6071 23.24 32.6071 23.6394C32.6071 24.0388 32.9309 24.3626 33.3303 24.3626H39.6281V25.8084L38.0994 27.3655C37.9667 27.5007 37.8923 27.6827 37.8923 27.8721V32.3077C37.8923 32.7071 38.2161 33.0309 38.6156 33.0309H42.0871C42.4866 33.0309 42.8104 32.7071 42.8104 32.3077V27.8721C42.8104 27.6827 42.736 27.5007 42.6033 27.3655L41.0746 25.8084V24.3626H46.823C47.8886 24.3626 48.7555 25.2293 48.7555 26.2948V37.6916H46.295C45.8955 37.6916 45.5717 38.0154 45.5717 38.4148C45.5717 38.8142 45.8955 39.138 46.295 39.138H48.7555V41.0438H33.3302C32.9308 41.0438 32.607 41.3675 32.607 41.7669C32.607 42.1663 32.9308 42.4901 33.3302 42.4901H48.7555V43.1921C48.7555 44.2576 47.8885 45.1243 46.823 45.1243H33.3302C32.9308 45.1243 32.607 45.4481 32.607 45.8475C32.607 46.2469 32.9308 46.5707 33.3302 46.5707H43.2068V47.5175C43.2068 48.7139 44.1801 49.6871 45.3766 49.6871C46.573 49.6871 47.5463 48.7139 47.5463 47.5175V46.4928C49.0631 46.1607 50.2019 44.8068 50.2019 43.192V26.2948C50.2019 24.4318 48.6861 22.9162 46.823 22.9162ZM41.3638 31.5845H39.3387V28.1678L40.3513 27.1364L41.3639 28.1678L41.3638 31.5845ZM46.0998 47.5174C46.0998 47.9162 45.7753 48.2406 45.3765 48.2406C44.9777 48.2406 44.6532 47.9162 44.6532 47.5174V46.5706H46.0997L46.0998 47.5174Z" fill="#A4947E"/>
<path fill-rule="evenodd" clip-rule="evenodd" d="M38.028 27.2955L39.5281 25.7675V24.4626H33.3303C32.8756 24.4626 32.5071 24.094 32.5071 23.6394C32.5071 23.1848 32.8756 22.8162 33.3303 22.8162H39.5281V20.1649C39.5281 19.7493 39.1897 19.4109 38.774 19.4109H33.3303C32.8756 19.4109 32.5071 19.0423 32.5071 18.5877C32.5071 18.1331 32.8756 17.7645 33.3303 17.7645H38.774C40.0978 17.7645 41.1746 18.8412 41.1746 20.1649V22.8162H46.823C48.7414 22.8162 50.3019 24.3766 50.3019 26.2948V43.192C50.3019 44.8269 49.1685 46.2015 47.6463 46.5723V47.5175C47.6463 48.7691 46.6282 49.7871 45.3766 49.7871C44.1249 49.7871 43.1068 48.7691 43.1068 47.5175V46.6707H33.3302C32.8755 46.6707 32.507 46.3022 32.507 45.8475C32.507 45.3929 32.8755 45.0243 33.3302 45.0243H46.823C47.8333 45.0243 48.6555 44.2023 48.6555 43.1921V42.5901H33.3302C32.8755 42.5901 32.507 42.2216 32.507 41.7669C32.507 41.3123 32.8755 40.9437 33.3302 40.9437H48.6555V39.238H46.295C45.8403 39.238 45.4717 38.8695 45.4717 38.4148C45.4717 37.9602 45.8403 37.5916 46.295 37.5916H48.6555V26.2948C48.6555 25.2846 47.8334 24.4626 46.823 24.4626H41.1746V25.7675L42.6747 27.2955C42.8257 27.4493 42.9104 27.6565 42.9104 27.8721V32.3077C42.9104 32.7623 42.5418 33.1309 42.0871 33.1309H38.6156C38.1609 33.1309 37.7923 32.7623 37.7923 32.3077V27.8721C37.7923 27.6565 37.877 27.4493 38.028 27.2955ZM41.0746 25.8084V24.3626H46.823C47.8886 24.3626 48.7555 25.2293 48.7555 26.2948V37.6916H46.295C45.8955 37.6916 45.5717 38.0154 45.5717 38.4148C45.5717 38.8142 45.8955 39.138 46.295 39.138H48.7555V41.0438H33.3302C32.9308 41.0438 32.607 41.3675 32.607 41.7669C32.607 42.1663 32.9308 42.4901 33.3302 42.4901H48.7555V43.1921C48.7555 44.2576 47.8885 45.1243 46.823 45.1243H33.3302C32.9308 45.1243 32.607 45.4481 32.607 45.8475C32.607 46.2469 32.9308 46.5707 33.3302 46.5707H43.2068V47.5175C43.2068 48.7139 44.1801 49.6871 45.3766 49.6871C46.573 49.6871 47.5463 48.7139 47.5463 47.5175V46.4928C49.0631 46.1607 50.2019 44.8068 50.2019 43.192V26.2948C50.2019 24.4318 48.6861 22.9162 46.823 22.9162H41.0746V20.1649C41.0746 18.8965 40.0425 17.8645 38.774 17.8645H33.3303C32.9309 17.8645 32.6071 18.1883 32.6071 18.5877C32.6071 18.9871 32.9309 19.3109 33.3303 19.3109H38.774C39.2449 19.3109 39.6281 19.6941 39.6281 20.1649V22.9162H33.3303C32.9309 22.9162 32.6071 23.24 32.6071 23.6394C32.6071 24.0388 32.9309 24.3626 33.3303 24.3626H39.6281V25.8084L38.0994 27.3655C37.9667 27.5007 37.8923 27.6827 37.8923 27.8721V32.3077C37.8923 32.7071 38.2161 33.0309 38.6156 33.0309H42.0871C42.4866 33.0309 42.8104 32.7071 42.8104 32.3077V27.8721C42.8104 27.6827 42.736 27.5007 42.6033 27.3655L41.0746 25.8084ZM45.9997 47.5284V46.6706H44.7532V47.5174C44.7532 47.861 45.0329 48.1406 45.3765 48.1406C45.7164 48.1406 45.9937 47.8669 45.9997 47.5284ZM46.0929 47.6174C46.044 47.9691 45.7414 48.2406 45.3765 48.2406C44.9777 48.2406 44.6532 47.9162 44.6532 47.5174V46.5706H46.0997L46.0998 47.5174C46.0998 47.5214 46.0997 47.5254 46.0997 47.5294C46.0992 47.5592 46.0969 47.5886 46.0929 47.6174ZM39.4387 31.4845V28.2087L40.3513 27.2792L41.2639 28.2087V31.4845H39.4387ZM39.3387 28.1678V31.5845H41.3638L41.3639 28.1678L40.3513 27.1364L39.3387 28.1678Z" fill="#A4947E"/>
<path d="M33.3302 39.138H42.9528C43.3523 39.138 43.6761 38.8142 43.6761 38.4149C43.6761 38.0155 43.3523 37.6917 42.9528 37.6917H33.3302C32.9308 37.6917 32.607 38.0155 32.607 38.4149C32.607 38.8142 32.9308 39.138 33.3302 39.138Z" fill="#A4947E"/>
<path fill-rule="evenodd" clip-rule="evenodd" d="M42.9528 39.238H33.3302C32.8755 39.238 32.507 38.8695 32.507 38.4149C32.507 37.9602 32.8755 37.5917 33.3302 37.5917H42.9528C43.4075 37.5917 43.7761 37.9602 43.7761 38.4149C43.7761 38.8695 43.4075 39.238 42.9528 39.238ZM42.9528 39.138H33.3302C32.9308 39.138 32.607 38.8142 32.607 38.4149C32.607 38.0155 32.9308 37.6917 33.3302 37.6917H42.9528C43.3523 37.6917 43.6761 38.0155 43.6761 38.4149C43.6761 38.8142 43.3523 39.138 42.9528 39.138Z" fill="#A4947E"/>
</svg>
