<svg width="57" height="57" viewBox="0 0 57 57" fill="none" xmlns="http://www.w3.org/2000/svg">
<path d="M11.6245 46.8613C12.0776 46.8613 12.4449 46.494 12.4449 46.041C12.4449 45.588 12.0776 45.2207 11.6245 45.2207H6.39697C5.94394 45.2207 5.57666 45.588 5.57666 46.041C5.57666 46.494 5.94394 46.8613 6.39697 46.8613H11.6245Z" fill="#A4947E"/>
<path d="M16.8745 46.8613C17.3276 46.8613 17.6949 46.494 17.6949 46.041C17.6949 45.588 17.3276 45.2207 16.8745 45.2207H14.9282C14.4752 45.2207 14.1079 45.588 14.1079 46.041C14.1079 46.494 14.4752 46.8613 14.9282 46.8613H16.8745Z" fill="#A4947E"/>
<path d="M25.5376 49.6056C25.0845 49.6056 24.7173 49.9729 24.7173 50.4259C24.7173 50.8789 25.0845 51.2462 25.5376 51.2462H27.8121C28.2652 51.2462 28.6324 50.8789 28.6324 50.4259C28.6324 49.9729 28.2652 49.6056 27.8121 49.6056H25.5376Z" fill="#A4947E"/>
<path d="M13.2329 50.4259C13.2329 50.8789 13.6002 51.2462 14.0532 51.2462H22.2339C22.687 51.2462 23.0542 50.8789 23.0542 50.4259C23.0542 49.9729 22.687 49.6056 22.2339 49.6056H14.0532C13.6002 49.6056 13.2329 49.9729 13.2329 50.4259Z" fill="#A4947E"/>
<path d="M42.5552 45.2207H35.1401C34.687 45.2207 34.3198 45.588 34.3198 46.041C34.3198 46.494 34.687 46.8613 35.1401 46.8613H42.5552C43.0084 46.8613 43.3755 46.494 43.3755 46.041C43.3755 45.588 43.0082 45.2207 42.5552 45.2207Z" fill="#A4947E"/>
<path d="M31.8366 46.8613C32.2897 46.8613 32.6569 46.494 32.6569 46.041C32.6569 45.588 32.2897 45.2207 31.8366 45.2207H28.7965C28.3434 45.2207 27.9762 45.588 27.9762 46.041C27.9762 46.494 28.3434 46.8613 28.7965 46.8613H31.8366Z" fill="#A4947E"/>
<path d="M36.8865 50.4259C36.8865 50.8789 37.2536 51.2462 37.7068 51.2462H49.0986C49.5518 51.2462 49.9189 50.8789 49.9189 50.4259C49.9189 49.9729 49.5518 49.6056 49.0986 49.6056H37.7068C37.2536 49.6056 36.8865 49.9729 36.8865 50.4259Z" fill="#A4947E"/>
<path d="M55.4199 54.6504H45.4218C44.9686 54.6504 44.6014 55.0177 44.6014 55.4707C44.6014 55.9237 44.9686 56.291 45.4218 56.291H55.4199C55.8731 56.291 56.2402 55.9237 56.2402 55.4707C56.2402 55.0177 55.8731 54.6504 55.4199 54.6504Z" fill="#A4947E"/>
<path d="M55.4199 38.0952C53.9553 38.0952 53.1949 38.8311 52.584 39.4223C52.065 39.9246 51.6899 40.2876 50.8893 40.2876C50.0885 40.2876 49.7135 39.9246 49.1944 39.4223C48.5835 38.8311 47.8233 38.0952 46.3586 38.0952C44.8941 38.0952 44.1338 38.8311 43.523 39.4224C43.0041 39.9247 42.6291 40.2876 41.8287 40.2876C41.0281 40.2876 40.6531 39.9247 40.1341 39.4223C39.5233 38.831 38.7631 38.0952 37.2985 38.0952C35.8339 38.0952 35.0738 38.8311 34.4629 39.4223C33.944 39.9246 33.569 40.2876 32.7686 40.2876C31.9682 40.2876 31.5931 39.9247 31.0743 39.4223C30.4634 38.831 29.7032 38.0952 28.2387 38.0952C26.7743 38.0952 26.0141 38.8311 25.4034 39.4224C24.8845 39.9246 24.5096 40.2876 23.7094 40.2876C22.909 40.2876 22.5339 39.9247 22.015 39.4224C21.4043 38.8311 20.644 38.0952 19.1796 38.0952C17.7152 38.0952 16.9549 38.8311 16.3441 39.4224C15.8251 39.9247 15.4501 40.2876 14.6496 40.2876C13.8491 40.2876 13.4742 39.9247 12.9552 39.4223C12.3444 38.831 11.5842 38.0952 10.1198 38.0952C8.65533 38.0952 7.89517 38.8311 7.28442 39.4224C6.76544 39.9247 6.3905 40.2876 5.59009 40.2876C4.78969 40.2876 4.41475 39.9247 3.89587 39.4224C3.28513 38.8311 2.52497 38.0952 1.06055 38.0952C0.607516 38.0952 0.240234 38.4625 0.240234 38.9155C0.240234 39.3686 0.607516 39.7358 1.06055 39.7358C1.86095 39.7358 2.23589 40.0987 2.75477 40.6011C3.36552 41.1924 4.12567 41.9283 5.59009 41.9283C7.05452 41.9283 7.81467 41.1924 8.42542 40.6011C8.94441 40.0987 9.31934 39.7358 10.1198 39.7358C10.9202 39.7358 11.2952 40.0987 11.8142 40.6012C12.4249 41.1925 13.1852 41.9283 14.6496 41.9283C16.114 41.9283 16.8742 41.1924 17.4851 40.6012C18.004 40.0989 18.379 39.7358 19.1795 39.7358C19.98 39.7358 20.355 40.0987 20.8739 40.6012C21.4847 41.1925 22.245 41.9283 23.7094 41.9283C25.1737 41.9283 25.9338 41.1924 26.5446 40.6011C27.0635 40.0987 27.4384 39.7358 28.2387 39.7358C29.0391 39.7358 29.4142 40.0987 29.933 40.6012C30.5439 41.1925 31.304 41.9283 32.7686 41.9283C34.2331 41.9283 34.9933 41.1924 35.6041 40.6012C36.123 40.0989 36.498 39.7358 37.2985 39.7358C38.0991 39.7358 38.474 40.0989 38.9931 40.6012C39.604 41.1925 40.3641 41.9283 41.8287 41.9283C43.2932 41.9283 44.0533 41.1924 44.6641 40.6012C45.1831 40.0989 45.5581 39.7358 46.3586 39.7358C47.1593 39.7358 47.5343 40.0987 48.0534 40.6012C48.6643 41.1925 49.4246 41.9283 50.8893 41.9283C52.3539 41.9283 53.1142 41.1924 53.725 40.6012C54.2441 40.0989 54.6192 39.7358 55.4199 39.7358C55.8731 39.7358 56.2402 39.3686 56.2402 38.9155C56.2402 38.4625 55.8731 38.0952 55.4199 38.0952Z" fill="#A4947E"/>
<path d="M41.6092 54.6504H1.06055C0.607516 54.6504 0.240234 55.0177 0.240234 55.4707C0.240234 55.9237 0.607516 56.291 1.06055 56.291H41.6092C42.0624 56.291 42.4296 55.9237 42.4296 55.4707C42.4296 55.0177 42.0624 54.6504 41.6092 54.6504Z" fill="#A4947E"/>
<path d="M1.06055 35.3757C3.22781 35.3757 4.28186 35.6303 5.39781 35.8998C6.55795 36.1799 7.75758 36.4695 10.1202 36.4695C12.4828 36.4695 13.6824 36.1799 14.8426 35.8998C15.9585 35.6304 17.0126 35.3757 19.1799 35.3757C21.3472 35.3757 22.4012 35.6303 23.5172 35.8998C24.6773 36.1799 25.8771 36.4695 28.2395 36.4695C30.6022 36.4695 31.8018 36.1799 32.9621 35.8998C34.078 35.6304 35.1321 35.3757 37.2993 35.3757C39.4668 35.3757 40.521 35.6303 41.637 35.8998C42.7972 36.1799 43.9969 36.4695 46.3596 36.4695C48.7225 36.4695 49.9221 36.1799 51.0824 35.8998C52.1984 35.6304 53.2525 35.3757 55.4199 35.3757C55.8731 35.3757 56.2402 35.0085 56.2402 34.5554C56.2402 34.1024 55.8731 33.7351 55.4199 33.7351C53.0572 33.7351 51.8576 34.0248 50.6973 34.3049C49.5813 34.5743 48.5271 34.8289 46.3596 34.8289C44.1922 34.8289 43.1381 34.5744 42.0221 34.3049C40.8619 34.0248 39.6622 33.7351 37.2993 33.7351C35.2034 33.7351 34.0227 33.9631 32.9729 34.2101L35.8741 24.1661C36.2296 22.9569 37.5 22.2582 38.7128 22.6085C39.9284 22.9596 40.6318 24.2345 40.2807 25.4502C40.1571 25.8774 40.3972 26.3272 40.8236 26.4606C40.9052 26.4862 40.9878 26.4983 41.0689 26.4983C41.4181 26.4983 41.7417 26.2737 41.8515 25.9229C41.8562 25.9079 41.8658 25.877 41.8796 25.8311C42.2604 24.6614 43.5073 23.9935 44.6985 24.3375C45.2874 24.5076 45.7749 24.8969 46.071 25.4336C46.3672 25.9703 46.4365 26.5902 46.2664 27.1791C46.1408 27.6143 46.3917 28.0691 46.8269 28.1948C46.9029 28.2168 46.9796 28.2272 47.0549 28.2272C47.4109 28.2272 47.7388 27.9935 47.8425 27.6344C48.8271 24.2262 48.4254 20.6386 46.7115 17.5324C45.1304 14.6669 42.6071 12.5276 39.5497 11.4405L39.8906 10.2603C40.0163 9.82509 39.7654 9.37031 39.3302 9.24453C38.8951 9.11897 38.4402 9.36976 38.3145 9.80508L37.9736 10.9856C31.1857 9.46722 24.2791 13.492 22.3232 20.2631C22.1975 20.6983 22.4484 21.1532 22.8836 21.2788C23.3191 21.4043 23.7736 21.1535 23.8994 20.7184C24.2505 19.5027 25.5248 18.7992 26.741 19.1505C27.9312 19.4943 28.6304 20.7233 28.3297 21.9156C28.3167 21.9625 28.3082 21.9944 28.3041 22.0098C28.1881 22.4477 28.449 22.8968 28.887 23.0129C28.9574 23.0315 29.0281 23.0404 29.0976 23.0404C29.456 23.0404 29.7842 22.8036 29.8862 22.4439C30.2388 21.2304 31.5124 20.5289 32.7269 20.8795C33.3158 21.0496 33.8033 21.4389 34.0993 21.9756C34.3955 22.5123 34.465 23.1322 34.2948 23.7211L31.1487 34.6131C30.4049 34.7405 29.5149 34.8288 28.2394 34.8288C26.0722 34.8288 25.018 34.5742 23.9021 34.3047C23.7236 34.2617 23.5441 34.2183 23.3596 34.1758C23.4086 34.1308 23.4569 34.0847 23.5043 34.0373C24.3673 33.1744 24.8425 32.027 24.8425 30.8066C24.8425 29.5862 24.3673 28.4389 23.5043 27.5759C22.6413 26.7129 21.494 26.2377 20.2736 26.2377C19.0532 26.2377 17.9058 26.7129 17.0429 27.5759C15.3223 29.2964 15.2637 32.0591 16.8665 33.8508C15.8812 33.961 15.162 34.1346 14.4575 34.3047C13.3415 34.5741 12.2875 34.8288 10.1202 34.8288C7.95292 34.8288 6.89887 34.5742 5.78292 34.3047C4.62278 34.0246 3.42316 33.735 1.06055 33.735C0.607516 33.735 0.240234 34.1023 0.240234 34.5553C0.240234 35.0084 0.607516 35.3757 1.06055 35.3757ZM39.1681 21.0323C38.346 20.795 37.5081 20.8388 36.7578 21.1068L39.0778 13.0753C39.6919 13.4083 40.1739 13.9081 40.5393 14.5874C41.3335 16.064 41.5488 18.3863 41.1617 21.3033C41.1203 21.6146 41.0741 21.9176 41.025 22.2089C40.5467 21.6656 39.9136 21.2477 39.1681 21.0323ZM45.2752 18.3251C46.1909 19.9845 46.6791 21.8007 46.7255 23.6425C46.283 23.2352 45.7487 22.9331 45.154 22.7613C44.2687 22.5056 43.365 22.5761 42.5721 22.9015C42.9917 20.608 43.2914 17.4379 42.4653 14.9402C43.5946 15.866 44.5485 17.0081 45.2752 18.3251ZM27.1965 17.5744C26.5932 17.4002 25.9811 17.3774 25.4014 17.4837C27.2815 14.6724 30.308 12.8212 33.6321 12.399C31.6062 14.0726 30.1725 16.9088 29.3059 19.0696C28.8088 18.3715 28.0819 17.8301 27.1965 17.5744ZM33.1823 19.3033C32.4368 19.088 31.6784 19.1039 30.984 19.3086C31.0945 19.0439 31.2133 18.771 31.3404 18.4936C32.5704 15.8075 33.994 13.9496 35.4575 13.1208C36.1292 12.7403 36.8039 12.5742 37.5017 12.6201L35.1826 20.6486C34.6772 20.0041 33.9847 19.5351 33.1823 19.3033ZM22.8425 29.3982C23.0773 29.8249 23.202 30.3063 23.202 30.8068C23.202 31.589 22.8974 32.3244 22.3443 32.8775C21.7912 33.4306 21.0558 33.7352 20.2736 33.7352C19.773 33.7352 19.2916 33.6104 18.8649 33.3756L22.8425 29.3982ZM18.203 28.7363C18.7561 28.1831 19.4914 27.8785 20.2737 27.8785C20.7743 27.8785 21.2557 28.0033 21.6824 28.238L17.7058 32.2147C17.0968 31.1029 17.2626 29.6767 18.203 28.7363Z" fill="#A4947E"/>
<path d="M14.349 12.3475C16.2306 12.3475 17.7614 10.8163 17.7614 8.93413C17.7614 7.052 16.2306 5.52075 14.349 5.52075C12.4675 5.52075 10.9366 7.052 10.9366 8.93413C10.9366 10.8163 12.4675 12.3475 14.349 12.3475ZM14.349 7.16138C15.326 7.16138 16.1208 7.95664 16.1208 8.93413C16.1208 9.91172 15.326 10.7069 14.349 10.7069C13.3721 10.7069 12.5773 9.91161 12.5773 8.93413C12.5773 7.95664 13.3721 7.16138 14.349 7.16138Z" fill="#A4947E"/>
<path d="M13.5287 14.8099V16.757C13.5287 17.2101 13.896 17.5773 14.349 17.5773C14.802 17.5773 15.1693 17.2101 15.1693 16.757V14.8099C15.1693 14.3569 14.802 13.9896 14.349 13.9896C13.896 13.9896 13.5287 14.3569 13.5287 14.8099Z" fill="#A4947E"/>
<path d="M14.349 3.87884C14.802 3.87884 15.1693 3.51156 15.1693 3.05853V1.11133C15.1693 0.658297 14.802 0.291016 14.349 0.291016C13.896 0.291016 13.5287 0.658297 13.5287 1.11133V3.05853C13.5287 3.51156 13.896 3.87884 14.349 3.87884Z" fill="#A4947E"/>
<path d="M6.5293 9.75452H8.47563C8.92866 9.75452 9.29594 9.38724 9.29594 8.9342C9.29594 8.48117 8.92866 8.11389 8.47563 8.11389H6.5293C6.07627 8.11389 5.70898 8.48117 5.70898 8.9342C5.70898 9.38724 6.07627 9.75452 6.5293 9.75452Z" fill="#A4947E"/>
<path d="M19.402 8.9342C19.402 9.38724 19.7693 9.75452 20.2223 9.75452H22.1686C22.6217 9.75452 22.9889 9.38724 22.9889 8.9342C22.9889 8.48117 22.6217 8.11389 22.1686 8.11389H20.2223C19.7693 8.11389 19.402 8.48117 19.402 8.9342Z" fill="#A4947E"/>
<path d="M9.61582 12.5089L8.23955 13.8857C7.9193 14.2061 7.9193 14.7255 8.23977 15.0458C8.39989 15.2059 8.60978 15.286 8.81968 15.286C9.02957 15.286 9.23968 15.2058 9.3998 15.0456L10.7761 13.6687C11.0963 13.3484 11.0963 12.829 10.7758 12.5087C10.4556 12.1885 9.93618 12.1885 9.61582 12.5089Z" fill="#A4947E"/>
<path d="M18.5021 5.59981C18.7121 5.59981 18.9221 5.51964 19.0822 5.3594L20.4585 3.98259C20.7788 3.66212 20.7787 3.14281 20.4583 2.82256C20.1378 2.5022 19.6184 2.50242 19.2982 2.82278L17.922 4.19959C17.6016 4.52006 17.6017 5.03937 17.9222 5.35962C18.0823 5.51975 18.2922 5.59981 18.5021 5.59981Z" fill="#A4947E"/>
<path d="M9.61573 5.35931C9.77586 5.51954 9.98586 5.59971 10.1959 5.59971C10.4057 5.59971 10.6156 5.51965 10.7758 5.35953C11.0962 5.03928 11.0963 4.51985 10.776 4.19949L9.39972 2.82257C9.07947 2.5021 8.56005 2.502 8.23969 2.82235C7.91922 3.1426 7.91911 3.66203 8.23947 3.98239L9.61573 5.35931Z" fill="#A4947E"/>
<path d="M17.9222 12.5087C17.6017 12.829 17.6016 13.3484 17.922 13.6687L19.2982 15.0456C19.4584 15.2058 19.6684 15.286 19.8784 15.286C20.0882 15.286 20.2981 15.2059 20.4583 15.0458C20.7787 14.7255 20.7788 14.2061 20.4585 13.8857L19.0822 12.5089C18.762 12.1885 18.2425 12.1885 17.9222 12.5087Z" fill="#A4947E"/>
</svg>
