<svg width="40" height="40" viewBox="0 0 40 40" fill="none" xmlns="http://www.w3.org/2000/svg">
<path d="M38.8188 22.7431H12.4178V20.6608C12.6561 20.5764 12.8271 20.3497 12.8271 20.0825C12.8271 19.7435 12.5522 19.4686 12.2132 19.4686H8.93864C8.59957 19.4686 8.32468 19.7435 8.32468 20.0825C8.32468 20.3498 8.49572 20.5764 8.73401 20.6608V22.7431H4.64068V7.80291C4.64068 4.75595 7.11953 2.27711 10.1665 2.27711C13.0058 2.27711 15.3508 4.42996 15.6574 7.18895H14.4197C14.1209 5.10907 12.3278 3.50511 10.1664 3.50511C7.79661 3.50511 5.86868 5.43311 5.86868 7.80299V20.5456C5.86868 20.8847 6.14357 21.1596 6.48264 21.1596C6.82171 21.1596 7.09661 20.8847 7.09661 20.5456V7.80291C7.09661 6.1102 8.4737 4.73303 10.1665 4.73303C11.6746 4.73303 12.9312 5.82629 13.1877 7.26177C12.0098 7.52208 11.0837 8.46009 10.8423 9.6448H10.5758C10.2368 9.6448 9.96186 9.91969 9.96186 10.2588C9.96186 10.5978 10.2368 10.8727 10.5758 10.8727H19.5809C19.9199 10.8727 20.1948 10.5978 20.1948 10.2588C20.1948 9.91969 19.9199 9.6448 19.5809 9.6448H19.3144C19.068 8.43551 18.1082 7.48301 16.8955 7.24621C16.6112 3.78188 13.703 1.04918 10.1665 1.04918C6.44244 1.04918 3.41276 4.07886 3.41276 7.80291V22.743H1.5708C1.23173 22.743 0.956836 23.0179 0.956836 23.357V27.8595C0.956836 28.1986 1.23173 28.4734 1.5708 28.4734C1.90987 28.4734 2.18476 28.1986 2.18476 27.8595V23.9709H13.6457V30.7247C13.6457 32.4174 15.0228 33.7945 16.7156 33.7945H26.9485C28.6413 33.7945 30.0184 32.4174 30.0184 30.7247V23.9709H38.2049V29.0874C38.2049 34.1656 34.0734 38.2971 28.9952 38.2971H5.66398C3.74552 38.2971 2.18476 36.7363 2.18476 34.8178V30.3153C2.18476 29.9763 1.90987 29.7014 1.5708 29.7014C1.23173 29.7014 0.956836 29.9764 0.956836 30.3155V34.818C0.956836 37.4135 3.06843 39.5251 5.66398 39.5251H28.9951C34.7505 39.5251 39.4328 34.8429 39.4328 29.0875V23.357C39.4328 23.018 39.158 22.7431 38.8188 22.7431ZM18.0426 9.64488H12.114C12.3675 8.93029 13.0499 8.41695 13.8503 8.41695H16.3063C17.1067 8.41695 17.7892 8.93029 18.0426 9.64488ZM11.1898 22.7431H9.96186V20.6965H11.1898V22.7431ZM28.7905 30.7248C28.7905 31.7404 27.9642 32.5668 26.9485 32.5668H16.7156C15.6999 32.5668 14.8736 31.7404 14.8736 30.7248V23.9711H28.7904L28.7905 30.7248Z" fill="#A4947E"/>
<path fill-rule="evenodd" clip-rule="evenodd" d="M28.5904 30.7408V24.1711H15.0736V30.7248C15.0736 31.63 15.8104 32.3668 16.7156 32.3668H26.9485C27.8484 32.3668 28.5818 31.6386 28.5904 30.7408ZM28.7797 30.9248C28.6797 31.8467 27.8966 32.5668 26.9485 32.5668H16.7156C15.6999 32.5668 14.8736 31.7404 14.8736 30.7248V23.9711H28.7904L28.7905 30.7248C28.7905 30.7305 28.7905 30.7361 28.7904 30.7417C28.7899 30.8035 28.7863 30.8646 28.7797 30.9248ZM12.6178 22.5431H38.8188C39.2684 22.5431 39.6328 22.9075 39.6328 23.357V29.0875C39.6328 34.9533 34.861 39.7251 28.9951 39.7251H5.66398C2.95797 39.7251 0.756836 37.524 0.756836 34.818V30.3155C0.756836 29.866 1.12121 29.5014 1.5708 29.5014C2.02032 29.5014 2.38476 29.8658 2.38476 30.3153V34.8178C2.38476 36.6258 3.85597 38.0971 5.66398 38.0971H28.9952C33.9629 38.0971 38.0049 34.0552 38.0049 29.0874V24.1709H30.2184V30.7247C30.2184 32.5278 28.7518 33.9945 26.9485 33.9945H16.7156C14.9123 33.9945 13.4457 32.5278 13.4457 30.7247V24.1709H2.38476V27.8595C2.38476 28.309 2.02032 28.6734 1.5708 28.6734C1.12127 28.6734 0.756836 28.309 0.756836 27.8595V23.357C0.756836 22.9074 1.12127 22.543 1.5708 22.543H3.21276V7.80291C3.21276 3.96841 6.33198 0.849182 10.1665 0.849182C13.7577 0.849182 16.7191 3.58547 17.0811 7.08225C18.2499 7.36738 19.1744 8.28142 19.4735 9.4448H19.5809C20.0304 9.4448 20.3948 9.80924 20.3948 10.2588C20.3948 10.7083 20.0304 11.0727 19.5809 11.0727H10.5758C10.1263 11.0727 9.76186 10.7083 9.76186 10.2588C9.76186 9.80924 10.1263 9.4448 10.5758 9.4448H10.6832C10.9717 8.32265 11.842 7.43278 12.9522 7.1152C12.6432 5.86374 11.5114 4.93303 10.1665 4.93303C8.58416 4.93303 7.29661 6.22065 7.29661 7.80291V20.5456C7.29661 20.9951 6.93217 21.3596 6.48264 21.3596C6.03312 21.3596 5.66868 20.9951 5.66868 20.5456V7.80299C5.66868 5.32266 7.68615 3.30511 10.1664 3.30511C12.369 3.30511 14.2055 4.89618 14.5896 6.98895H15.4292C15.0361 4.4374 12.826 2.47711 10.1665 2.47711C7.22998 2.47711 4.84068 4.86641 4.84068 7.80291V22.5431H8.53401V20.7881C8.28994 20.648 8.12468 20.3852 8.12468 20.0825C8.12468 19.633 8.48912 19.2686 8.93864 19.2686H12.2132C12.6627 19.2686 13.0271 19.633 13.0271 20.0825C13.0271 20.3851 12.8619 20.648 12.6178 20.7881V22.5431ZM12.4178 20.6608C12.6561 20.5764 12.8271 20.3497 12.8271 20.0825C12.8271 19.7435 12.5522 19.4686 12.2132 19.4686H8.93864C8.59957 19.4686 8.32468 19.7435 8.32468 20.0825C8.32468 20.3498 8.49572 20.5764 8.73401 20.6608V22.7431H4.64068V7.80291C4.64068 4.75595 7.11953 2.27711 10.1665 2.27711C12.9368 2.27711 15.2366 4.32662 15.6314 6.98895C15.6413 7.05525 15.6499 7.12192 15.6574 7.18895H14.4197C14.1209 5.10907 12.3278 3.50511 10.1664 3.50511C7.79661 3.50511 5.86868 5.43311 5.86868 7.80299V20.5456C5.86868 20.8847 6.14357 21.1596 6.48264 21.1596C6.82171 21.1596 7.09661 20.8847 7.09661 20.5456V7.80291C7.09661 6.1102 8.4737 4.73303 10.1665 4.73303C11.6746 4.73303 12.9312 5.82629 13.1877 7.26177C12.0098 7.52208 11.0837 8.46009 10.8423 9.6448H10.5758C10.2368 9.6448 9.96186 9.91969 9.96186 10.2588C9.96186 10.5978 10.2368 10.8727 10.5758 10.8727H19.5809C19.9199 10.8727 20.1948 10.5978 20.1948 10.2588C20.1948 9.91969 19.9199 9.6448 19.5809 9.6448H19.3144C19.068 8.43551 18.1082 7.48301 16.8955 7.24621C16.6112 3.78188 13.703 1.04918 10.1665 1.04918C6.44244 1.04918 3.41276 4.07886 3.41276 7.80291V22.743H1.5708C1.23173 22.743 0.956836 23.0179 0.956836 23.357V27.8595C0.956836 28.1986 1.23173 28.4734 1.5708 28.4734C1.90987 28.4734 2.18476 28.1986 2.18476 27.8595V23.9709H13.6457V30.7247C13.6457 32.4174 15.0228 33.7945 16.7156 33.7945H26.9485C28.6413 33.7945 30.0184 32.4174 30.0184 30.7247V23.9709H38.2049V29.0874C38.2049 34.1656 34.0734 38.2971 28.9952 38.2971H5.66398C3.74552 38.2971 2.18476 36.7363 2.18476 34.8178V30.3153C2.18476 29.9763 1.90987 29.7014 1.5708 29.7014C1.23173 29.7014 0.956836 29.9764 0.956836 30.3155V34.818C0.956836 37.4135 3.06843 39.5251 5.66398 39.5251H28.9951C34.7505 39.5251 39.4328 34.8429 39.4328 29.0875V23.357C39.4328 23.018 39.158 22.7431 38.8188 22.7431H12.4178V20.6608ZM18.0426 9.64488C18.0183 9.57626 17.99 9.5095 17.958 9.44487C17.657 8.83644 17.0298 8.41695 16.3063 8.41695H13.8503C13.1268 8.41695 12.4997 8.83644 12.1986 9.44487C12.1667 9.5095 12.1384 9.57626 12.114 9.64488H18.0426ZM17.7315 9.44487C17.448 8.95041 16.915 8.61695 16.3063 8.61695H13.8503C13.2416 8.61695 12.7087 8.95041 12.4252 9.44487H17.7315ZM10.1619 22.5431V20.8965H10.9898V22.5431H10.1619ZM11.1898 22.7431V20.6965H9.96186V22.7431H11.1898Z" fill="#A4947E"/>
<path d="M26.1299 25.199C25.7907 25.199 25.5159 25.4739 25.5159 25.8129V29.2921H18.1481V25.8129C18.1481 25.4739 17.8732 25.199 17.5342 25.199C17.1951 25.199 16.9202 25.4739 16.9202 25.8129V29.9061C16.9202 30.2452 17.1951 30.5201 17.5342 30.5201H26.1299C26.469 30.5201 26.7438 30.2452 26.7438 29.9061V25.8129C26.7438 25.4739 26.469 25.199 26.1299 25.199Z" fill="#A4947E"/>
<path fill-rule="evenodd" clip-rule="evenodd" d="M25.3159 25.8129C25.3159 25.3634 25.6803 24.999 26.1299 24.999C26.5795 24.999 26.9438 25.3634 26.9438 25.8129V29.9061C26.9438 30.3556 26.5795 30.7201 26.1299 30.7201H17.5342C17.0846 30.7201 16.7202 30.3556 16.7202 29.9061V25.8129C16.7202 25.3634 17.0846 24.999 17.5342 24.999C17.9837 24.999 18.3481 25.3634 18.3481 25.8129V29.0921H25.3159V25.8129ZM25.5159 25.8129C25.5159 25.4739 25.7907 25.199 26.1299 25.199C26.469 25.199 26.7438 25.4739 26.7438 25.8129V29.9061C26.7438 30.2452 26.469 30.5201 26.1299 30.5201H17.5342C17.1951 30.5201 16.9202 30.2452 16.9202 29.9061V25.8129C16.9202 25.4739 17.1951 25.199 17.5342 25.199C17.8732 25.199 18.1481 25.4739 18.1481 25.8129V29.2921H25.5159V25.8129Z" fill="#A4947E"/>
</svg>
