<svg width="38" height="38" viewBox="0 0 38 38" fill="none" xmlns="http://www.w3.org/2000/svg">
<path d="M1.00941 10.9627L18.6705 0.954802C18.8512 0.852957 19.0708 0.852957 19.2509 0.954802L36.912 10.9627C37.0968 11.0675 37.2105 11.263 37.2105 11.4749C37.2105 13.7473 35.3613 15.5958 33.0895 15.5958C31.5925 15.5958 30.2791 14.7934 29.5573 13.596C28.8356 14.7934 27.5222 15.5958 26.0251 15.5958C24.5281 15.5958 23.2147 14.7934 22.4929 13.596C22.0767 14.2871 21.4591 14.8393 20.7268 15.189V21.4828H24.8477C25.8214 21.4828 26.6138 22.2752 26.6138 23.2489V25.6038C26.6138 25.9287 26.3507 26.1925 26.0251 26.1925H21.4356L21.3567 26.2825C21.1707 26.495 20.957 26.6758 20.7268 26.8294V33.8456H22.4929C22.8185 33.8456 23.0816 34.1093 23.0816 34.4343V36.7891C23.0816 37.114 22.8185 37.3778 22.4929 37.3778H15.4285C15.1029 37.3778 14.8398 37.114 14.8398 36.7891V34.4343C14.8398 34.1093 15.1029 33.8456 15.4285 33.8456H17.1946V26.83C16.9644 26.6764 16.7507 26.4956 16.5647 26.2831L16.4858 26.1925H11.8963C11.5707 26.1925 11.3076 25.9287 11.3076 25.6038V23.2489C11.3076 22.2752 12.1 21.4828 13.0737 21.4828H17.1946V15.189C16.4622 14.8393 15.8447 14.2865 15.4285 13.596C14.7067 14.7934 13.3933 15.5958 11.8963 15.5958C10.3992 15.5958 9.08581 14.7934 8.36406 13.596C7.64231 14.7934 6.32892 15.5958 4.83185 15.5958C2.56005 15.5958 0.710938 13.7473 0.710938 11.4749C0.710938 11.263 0.824558 11.0675 1.00941 10.9627ZM33.0895 14.4184C34.6002 14.4184 35.8488 13.2746 36.0148 11.8075L26.4984 6.41501L30.0283 11.1217L30.0201 11.1276C30.0942 11.2259 30.146 11.3424 30.146 11.4749C30.146 13.098 31.4665 14.4184 33.0895 14.4184ZM26.0251 14.4184C27.5887 14.4184 28.8597 13.1892 28.951 11.648L23.9388 4.96504L21.0641 3.3361L23.0639 11.3319L23.0534 11.3342C23.0651 11.3807 23.0816 11.4255 23.0816 11.4749C23.0816 13.098 24.4021 14.4184 26.0251 14.4184ZM25.4364 25.015V23.2489C25.4364 22.9246 25.1727 22.6602 24.8477 22.6602H24.5263L22.4658 25.015H25.4364ZM16.0172 36.2004H21.9042V35.023H16.0172V36.2004ZM18.372 33.8456H19.5494V27.3116C19.3563 27.3475 19.1603 27.3699 18.9607 27.3699C18.7611 27.3699 18.5651 27.3475 18.372 27.3116V33.8456ZM17.4513 25.5072C17.8316 25.9428 18.3826 26.1925 18.9607 26.1925C19.5388 26.1925 20.0898 25.9428 20.4701 25.5072L22.9615 22.6602H14.9599L17.4513 25.5072ZM12.485 23.2489V25.015H15.4556L13.3951 22.6602H13.0737C12.7487 22.6602 12.485 22.9246 12.485 23.2489ZM18.372 21.4828H19.5494V15.5517C19.3569 15.5793 19.1609 15.5958 18.9607 15.5958C18.7605 15.5958 18.5645 15.5793 18.372 15.5517V21.4828ZM18.9607 14.4184C20.5661 14.4184 21.8712 13.125 21.8989 11.5261L19.6512 2.53547L18.9607 2.14339L18.2702 2.53488L16.0225 11.5255C16.0502 13.125 17.3553 14.4184 18.9607 14.4184ZM11.8963 14.4184C13.5193 14.4184 14.8398 13.098 14.8398 11.4749C14.8398 11.4255 14.8563 11.3807 14.868 11.3348L14.8574 11.3324L16.8567 3.3361L13.982 4.96504L8.96984 11.648C9.06167 13.1892 10.3327 14.4184 11.8963 14.4184ZM4.83185 14.4184C6.4549 14.4184 7.77536 13.098 7.77536 11.4749C7.77536 11.3424 7.82717 11.2259 7.90134 11.1276L7.8931 11.1217L11.423 6.41501L1.90659 11.8075C2.07261 13.2746 3.32124 14.4184 4.83185 14.4184Z" fill="#A4947E"/>
<path d="M4.24298 19.1281C5.21669 19.1281 6.00908 19.9204 6.00908 20.8942V27.3699H10.7187C12.0174 27.3699 13.0735 28.426 13.0735 29.7247V30.3134C13.0735 30.4765 13.0076 30.6236 12.9004 30.7302L10.0794 33.5512L12.901 36.3729C13.0694 36.5413 13.12 36.7944 13.0288 37.0146C12.9381 37.2342 12.7226 37.3778 12.4848 37.3778H9.54129C9.3847 37.3778 9.23517 37.316 9.12508 37.2053L7.77519 35.8554L6.42529 37.2053C6.31521 37.316 6.16568 37.3778 6.00908 37.3778H3.06557C2.82774 37.3778 2.61227 37.2342 2.52161 37.0146C2.43036 36.7944 2.48099 36.5413 2.64936 36.3729L5.47101 33.5512L2.64995 30.7302C2.5428 30.6236 2.47687 30.4765 2.47687 30.3134V20.8942C2.47687 19.9204 3.26926 19.1281 4.24298 19.1281ZM4.83168 20.8942C4.83168 20.5698 4.56794 20.3055 4.24298 20.3055C3.91801 20.3055 3.65427 20.5698 3.65427 20.8942V27.3699H4.83168V20.8942ZM10.7187 28.5473H3.65427V29.7247H11.8961C11.8961 29.0753 11.368 28.5473 10.7187 28.5473ZM7.77519 31.2471L8.12017 30.9021H7.43021L7.77519 31.2471ZM11.0637 30.9021H9.78502L8.60761 32.0795L9.24694 32.7188L11.0637 30.9021ZM9.78502 36.2004H11.0637L5.76536 30.9021H4.4867L9.78502 36.2004ZM4.4867 36.2004H5.76536L6.94276 35.023L6.30343 34.3837L4.4867 36.2004Z" fill="#A4947E"/>
<path d="M27.2022 27.3699H31.9118V20.8942C31.9118 19.9204 32.7042 19.1281 33.6779 19.1281C34.6516 19.1281 35.444 19.9204 35.444 20.8942V30.3134C35.444 30.4765 35.3781 30.6236 35.2709 30.7302L32.4499 33.5512L35.2715 36.3729C35.4399 36.5413 35.4905 36.7944 35.3992 37.0146C35.3086 37.2342 35.0931 37.3778 34.8553 37.3778H31.9118C31.7552 37.3778 31.6057 37.316 31.4956 37.2053L30.1457 35.8554L28.7958 37.2053C28.6857 37.316 28.5362 37.3778 28.3796 37.3778H25.4361C25.1982 37.3778 24.9828 37.2342 24.8921 37.0146C24.8008 36.7944 24.8515 36.5413 25.0198 36.3729L27.8415 33.5512L25.0204 30.7302C24.9133 30.6236 24.8474 30.4765 24.8474 30.3134V29.7247C24.8474 28.426 25.9035 27.3699 27.2022 27.3699ZM26.0248 29.7247H34.2666V28.5473H27.2022C26.5528 28.5473 26.0248 29.0753 26.0248 29.7247ZM30.4907 30.9021H29.8007L30.1457 31.2471L30.4907 30.9021ZM33.6779 20.3055C33.3529 20.3055 33.0892 20.5698 33.0892 20.8942V27.3699H34.2666V20.8942C34.2666 20.5698 34.0028 20.3055 33.6779 20.3055ZM32.1555 36.2004H33.4342L31.6174 34.3837L30.9781 35.023L32.1555 36.2004ZM28.1358 36.2004L33.4342 30.9021H32.1555L26.8572 36.2004H28.1358ZM29.3132 32.0795L28.1358 30.9021H26.8572L28.6739 32.7188L29.3132 32.0795Z" fill="#A4947E"/>
</svg>
