<svg width="44" height="37" viewBox="0 0 44 37" fill="none" xmlns="http://www.w3.org/2000/svg">
<path d="M43.5305 29.2858V28.5984C43.5301 28.1161 43.4028 27.6424 43.1615 27.2248C42.9202 26.8072 42.5733 26.4603 42.1557 26.2191V20.3495C42.1547 19.6205 41.8647 18.9217 41.3493 18.4063C40.8338 17.8908 40.135 17.6008 39.406 17.5999H27.0327C26.3037 17.6008 25.6049 17.8908 25.0895 18.4063C24.574 18.9217 24.284 19.6205 24.283 20.3495V26.2191C23.8654 26.4603 23.5185 26.8072 23.2772 27.2248C23.0359 27.6424 22.9087 28.1161 22.9082 28.5984V29.2858C22.9082 29.4681 22.9806 29.643 23.1096 29.7719C23.2385 29.9008 23.4133 29.9732 23.5956 29.9732V34.7851H20.846V29.9732C21.0283 29.9732 21.2032 29.9008 21.3321 29.7719C21.461 29.643 21.5334 29.4681 21.5334 29.2858V28.5984C21.533 28.1161 21.4057 27.6424 21.1644 27.2248C20.9231 26.8072 20.5762 26.4603 20.1586 26.2191V20.3495C20.1576 19.6205 19.8676 18.9217 19.3522 18.4063C18.8367 17.8908 18.1379 17.6008 17.409 17.5999H5.03559C4.30663 17.6008 3.60781 17.8908 3.09236 18.4063C2.57691 18.9217 2.28691 19.6205 2.28595 20.3495V26.2191C1.8683 26.4603 1.52142 26.8072 1.28012 27.2248C1.03881 27.6424 0.911564 28.1161 0.911133 28.5984V29.2858C0.911133 29.4681 0.983556 29.643 1.11247 29.7719C1.24138 29.9008 1.41623 29.9732 1.59854 29.9732V34.7851C1.41623 34.7851 1.24138 34.8575 1.11247 34.9864C0.983556 35.1153 0.911133 35.2902 0.911133 35.4725C0.911133 35.6548 0.983556 35.8297 1.11247 35.9586C1.24138 36.0875 1.41623 36.1599 1.59854 36.1599H42.8431C43.0254 36.1599 43.2003 36.0875 43.3292 35.9586C43.4581 35.8297 43.5305 35.6548 43.5305 35.4725C43.5305 35.2902 43.4581 35.1153 43.3292 34.9864C43.2003 34.8575 43.0254 34.7851 42.8431 34.7851V29.9732C43.0254 29.9732 43.2003 29.9008 43.3292 29.7719C43.4581 29.643 43.5305 29.4681 43.5305 29.2858ZM3.66077 20.3495C3.66125 19.985 3.80625 19.6356 4.06397 19.3779C4.3217 19.1201 4.67111 18.9751 5.03559 18.9747H17.409C17.7734 18.9751 18.1228 19.1201 18.3806 19.3779C18.6383 19.6356 18.7833 19.985 18.7838 20.3495V25.8488H14.5407C14.6511 25.5378 14.6851 25.2048 14.64 24.8779C14.5948 24.5511 14.4718 24.2398 14.2814 23.9703C14.0909 23.7009 13.8385 23.4811 13.5454 23.3295C13.2523 23.1779 12.9271 23.0989 12.5971 23.0991H9.84745C9.51747 23.0989 9.19225 23.1779 8.89915 23.3295C8.60606 23.4811 8.35365 23.7009 8.16318 23.9703C7.9727 24.2398 7.84972 24.5511 7.80459 24.8779C7.75945 25.2048 7.79348 25.5378 7.9038 25.8488H3.66077V20.3495ZM13.2845 25.1614C13.2842 25.3436 13.2117 25.5183 13.0829 25.6471C12.954 25.776 12.7793 25.8485 12.5971 25.8488H9.84745C9.66514 25.8488 9.4903 25.7763 9.36138 25.6474C9.23247 25.5185 9.16004 25.3437 9.16004 25.1614C9.16004 24.979 9.23247 24.8042 9.36138 24.6753C9.4903 24.5464 9.66514 24.4739 9.84745 24.4739H12.5971C12.7793 24.4742 12.954 24.5467 13.0829 24.6756C13.2117 24.8044 13.2842 24.9791 13.2845 25.1614ZM19.4712 34.7851H2.97336V34.0977H19.4712V34.7851ZM19.4712 32.7229H2.97336V29.9732H19.4712V32.7229ZM2.28595 28.5984C2.28643 28.2339 2.43143 27.8845 2.68915 27.6268C2.94688 27.3691 3.29629 27.2241 3.66077 27.2236H18.7838C19.1483 27.2241 19.4977 27.3691 19.7554 27.6268C20.0131 27.8845 20.1581 28.2339 20.1586 28.5984H2.28595ZM25.6579 20.3495C25.6583 19.985 25.8033 19.6356 26.0611 19.3779C26.3188 19.1201 26.6682 18.9751 27.0327 18.9747H39.406C39.7705 18.9751 40.1199 19.1201 40.3777 19.3779C40.6354 19.6356 40.7804 19.985 40.7809 20.3495V25.8488H36.5378C36.6482 25.5378 36.6822 25.2048 36.6371 24.8779C36.5919 24.5511 36.4689 24.2398 36.2785 23.9703C36.088 23.7009 35.8356 23.4811 35.5425 23.3295C35.2494 23.1779 34.9242 23.0989 34.5942 23.0991H31.8445C31.5146 23.0989 31.1893 23.1779 30.8962 23.3295C30.6032 23.4811 30.3507 23.7009 30.1603 23.9703C29.9698 24.2398 29.8468 24.5511 29.8017 24.8779C29.7565 25.2048 29.7906 25.5378 29.9009 25.8488H25.6579V20.3495ZM35.2816 25.1614C35.2813 25.3436 35.2088 25.5183 35.08 25.6471C34.9511 25.776 34.7764 25.8485 34.5942 25.8488H31.8445C31.6622 25.8488 31.4874 25.7763 31.3585 25.6474C31.2296 25.5185 31.1571 25.3437 31.1571 25.1614C31.1571 24.979 31.2296 24.8042 31.3585 24.6753C31.4874 24.5464 31.6622 24.4739 31.8445 24.4739H34.5942C34.7764 24.4742 34.9511 24.5467 35.08 24.6756C35.2088 24.8044 35.2813 24.9791 35.2816 25.1614ZM41.4683 34.7851H24.9705V34.0977H41.4683V34.7851ZM41.4683 32.7229H24.9705V29.9732H41.4683V32.7229ZM24.283 28.5984C24.2835 28.2339 24.4285 27.8845 24.6862 27.6268C24.944 27.3691 25.2934 27.2241 25.6579 27.2236H40.7809C41.1453 27.2241 41.4948 27.3691 41.7525 27.6268C42.0102 27.8845 42.1552 28.2339 42.1557 28.5984H24.283Z" fill="#A4947E"/>
<path d="M31.1571 0.414551H13.2845C13.1021 0.414551 12.9273 0.486974 12.7984 0.615888C12.6695 0.744803 12.597 0.919648 12.597 1.10196V13.4753C12.597 13.6576 12.6695 13.8325 12.7984 13.9614C12.9273 14.0903 13.1021 14.1627 13.2845 14.1627H31.1571C31.3394 14.1627 31.5143 14.0903 31.6432 13.9614C31.7721 13.8325 31.8445 13.6576 31.8445 13.4753V1.10196C31.8445 0.919648 31.7721 0.744803 31.6432 0.615888C31.5143 0.486974 31.3394 0.414551 31.1571 0.414551ZM14.7813 12.7879L18.0198 9.02005L21.3753 12.7879H14.7813ZM30.4697 12.7879H23.2167L20.5615 9.80714C20.5727 9.79683 20.5839 9.78824 20.5942 9.77792L25.5075 4.89818L30.4697 9.89994V12.7879ZM30.4697 7.9477L25.9989 3.44173C25.8705 3.31222 25.6959 3.23898 25.5135 3.23808C25.3314 3.23889 25.1567 3.31036 25.0263 3.43743L19.6473 8.78032L18.5234 7.51893C18.4582 7.4457 18.3782 7.38727 18.2886 7.34755C18.199 7.30783 18.1019 7.28774 18.004 7.28864C17.906 7.28953 17.8093 7.31139 17.7204 7.35274C17.6316 7.39409 17.5526 7.45398 17.4888 7.52838L13.9719 11.621V1.78937H30.4697V7.9477Z" fill="#A4947E"/>
<path d="M18.0964 6.60126C18.5043 6.60126 18.903 6.48031 19.2421 6.25371C19.5813 6.02711 19.8456 5.70504 20.0017 5.32822C20.1577 4.95139 20.1986 4.53675 20.119 4.13671C20.0394 3.73668 19.843 3.36923 19.5546 3.08082C19.2662 2.79241 18.8988 2.596 18.4987 2.51643C18.0987 2.43686 17.684 2.4777 17.3072 2.63379C16.9304 2.78987 16.6083 3.05419 16.3817 3.39332C16.1551 3.73245 16.0342 4.13116 16.0342 4.53903C16.0348 5.08578 16.2523 5.60994 16.6389 5.99655C17.0255 6.38315 17.5497 6.60063 18.0964 6.60126ZM18.0964 3.85163C18.2324 3.85163 18.3653 3.89194 18.4783 3.96748C18.5914 4.04301 18.6795 4.15037 18.7315 4.27597C18.7835 4.40158 18.7971 4.5398 18.7706 4.67314C18.7441 4.80649 18.6786 4.92897 18.5825 5.02511C18.4863 5.12124 18.3639 5.18671 18.2305 5.21324C18.0972 5.23976 17.959 5.22615 17.8333 5.17412C17.7077 5.12209 17.6004 5.03398 17.5248 4.92094C17.4493 4.8079 17.409 4.67499 17.409 4.53903C17.4092 4.35679 17.4817 4.18206 17.6106 4.05319C17.7394 3.92432 17.9142 3.85183 18.0964 3.85163Z" fill="#A4947E"/>
</svg>
