<svg width="39" height="39" viewBox="0 0 39 39" fill="none" xmlns="http://www.w3.org/2000/svg">
<path d="M38.4786 19.8991V14.9892C38.4786 13.6277 37.6023 12.4499 36.2984 12.0588L32.3595 10.8771V9.94759C33.4677 9.17255 34.1952 7.88928 34.1952 6.43779V4.60148C34.1952 2.23961 32.2738 0.31814 29.9119 0.31814C27.55 0.31814 25.6286 2.23961 25.6286 4.60148V6.4372C25.6286 7.88928 26.3561 9.17255 27.4643 9.94699V10.8765L23.993 11.9181C22.6903 10.7531 21.0306 10.1086 19.2684 10.1086C17.5133 10.1086 15.9077 10.7516 14.6668 11.8111L11.5547 10.8771V9.94759C12.6629 9.17255 13.3905 7.88928 13.3905 6.43779V4.60148C13.3905 2.23961 11.469 0.31814 9.10711 0.31814C6.74524 0.31814 4.82377 2.23961 4.82377 4.60148V6.4372C4.82377 7.88928 5.5513 9.17255 6.65949 9.94699V10.8765L2.72064 12.0582C1.41676 12.4499 0.54043 13.6277 0.54043 14.9892V19.8991H1.76424V14.9892C1.76424 14.1724 2.2898 13.4654 3.07261 13.2312L7.01265 12.0489C7.3688 12.5114 8.05779 13.1682 9.10711 13.1682C10.1564 13.1682 10.8454 12.5114 11.2016 12.0489L13.711 12.8016C12.9145 13.8034 12.3839 15.0227 12.2228 16.3568C11.4415 15.5264 10.3351 15.0039 9.10711 15.0039C6.74524 15.0039 4.82377 16.9253 4.82377 19.2872V21.1229C4.82377 22.575 5.5513 23.8583 6.65949 24.6327V25.5622L2.72064 26.7439C1.41676 27.1356 0.54043 28.3134 0.54043 29.675V35.1968H7.8833C8.22032 35.1968 8.4952 35.4716 8.4952 35.8087V38.2563H30.5238V35.8087C30.5238 35.4716 30.7987 35.1968 31.1357 35.1968H38.4786V29.675C38.4786 28.3134 37.6023 27.1356 36.2984 26.7445L32.3595 25.5628V24.6333C33.4677 23.8583 34.1952 22.575 34.1952 21.1235V19.2878C34.1952 16.9259 32.2738 15.0045 29.9119 15.0045C28.7138 15.0045 27.6307 15.5002 26.8524 16.2955V15.7156C26.8524 14.507 26.1957 13.4191 25.1708 12.844L27.8174 12.0495C28.1736 12.5114 28.8626 13.1682 29.9119 13.1682C30.9612 13.1682 31.6502 12.5114 32.0064 12.0489L35.947 13.2312C36.7292 13.4654 37.2548 14.1724 37.2548 14.9892V19.8991H38.4786ZM9.10711 1.54195C10.794 1.54195 12.1666 2.91456 12.1666 4.60148H9.36048C8.97176 4.60148 8.59052 4.44372 8.31594 4.16884L7.8833 3.73621L7.45066 4.16884C7.17608 4.44372 6.79484 4.60148 6.40612 4.60148H6.04758C6.04758 2.91456 7.42019 1.54195 9.10711 1.54195ZM6.04758 6.4372V5.82529H6.40612C6.93915 5.82529 7.44827 5.67232 7.8833 5.38668C8.31833 5.67232 8.82745 5.82529 9.36048 5.82529H12.1666V6.4372C12.1666 8.12412 10.794 9.49673 9.10711 9.49673C7.42019 9.49673 6.04758 8.12412 6.04758 6.4372ZM9.10711 11.9443C8.45666 11.9443 8.03508 11.3979 7.8833 11.1642V10.5407C8.27112 10.6563 8.68194 10.7205 9.10711 10.7205C9.53228 10.7205 9.9431 10.6563 10.3309 10.5401V11.1636C10.1791 11.3985 9.75756 11.9443 9.10711 11.9443ZM25.927 22.6844C26.2387 23.4758 26.7765 24.1526 27.4643 24.6333V25.5628L23.526 26.7445C23.3964 26.7831 23.2703 26.8333 23.1472 26.8888L22.569 26.7556V25.55C23.2231 25.0244 23.7385 24.3342 24.0549 23.5431C24.7597 23.4812 25.4206 23.1812 25.927 22.6844ZM19.5095 26.6301C20.1588 26.6301 20.7781 26.5004 21.3452 26.2698V26.936L19.5095 28.3128L17.6738 26.936V26.2698C18.2409 26.5004 18.8603 26.6301 19.5095 26.6301ZM16.9224 27.9023L18.4142 29.0215L16.8796 29.9424L16.4915 28.0021L16.9224 27.9023ZM18.8334 32.7491H20.1857L20.6616 37.0325H18.3574L18.8334 32.7491ZM20.292 31.5253H18.7264L18.375 30.4715L19.5095 29.7912L20.6434 30.4715L20.292 31.5253ZM20.6048 29.0215L22.0967 27.9023L22.5275 28.0015L22.1394 29.9418L20.6048 29.0215ZM25.1514 21.7459C24.9396 21.9783 24.6704 22.1412 24.3785 22.2404C24.3955 22.074 24.4048 21.9054 24.4048 21.7348V18.8068C25.0633 19.0566 25.5533 19.6359 25.6193 20.3282C25.6695 20.8549 25.5037 21.3578 25.1514 21.7459ZM23.1809 21.7348C23.1809 23.7597 21.5344 25.4063 19.5095 25.4063C17.4847 25.4063 15.8381 23.7597 15.8381 21.7348V18.6753H17.9155C19.249 18.6753 20.5466 18.3425 21.7068 17.7067L22.1908 18.6753H23.1809V21.7348ZM14.6406 22.2404C14.3486 22.1412 14.0794 21.9783 13.8676 21.7459C13.5153 21.3584 13.3495 20.8549 13.3997 20.3288C13.4657 19.6365 13.9557 19.0566 14.6143 18.8074V21.7348C14.6143 21.9054 14.6235 22.074 14.6406 22.2404ZM14.9641 23.5431C15.2799 24.3342 15.7953 25.0244 16.45 25.55V26.7556L15.8718 26.8888C15.7481 26.8333 15.6227 26.7837 15.4936 26.7445L11.5547 25.5628V24.6333C12.2419 24.1526 12.7803 23.4758 13.092 22.6844C13.5984 23.1812 14.2593 23.4812 14.9641 23.5431ZM9.10711 16.2277C10.794 16.2277 12.1666 17.6003 12.1666 19.2872H11.8081C11.4194 19.2872 11.0381 19.1295 10.7636 18.8546L10.3309 18.4219L9.89829 18.8546C9.6237 19.1295 9.24246 19.2872 8.85374 19.2872H6.04758C6.04758 17.6003 7.42019 16.2277 9.10711 16.2277ZM6.04758 21.1229V20.511H8.85374C9.38677 20.511 9.8959 20.3581 10.3309 20.0724C10.7659 20.3581 11.2751 20.511 11.8081 20.511H12.1666V21.1229C12.1666 22.8099 10.794 24.1825 9.10711 24.1825C7.42019 24.1825 6.04758 22.8099 6.04758 21.1229ZM9.10711 25.4063C9.53228 25.4063 9.9431 25.342 10.3309 25.2258V25.8494C10.1791 26.0842 9.75756 26.6301 9.10711 26.6301C8.45666 26.6301 8.03508 26.0836 7.8833 25.85V25.2264C8.27112 25.342 8.68194 25.4063 9.10711 25.4063ZM7.8833 33.973H5.43568V29.6896H4.21186V33.973H1.76424V29.675C1.76424 28.8581 2.2898 28.1512 3.07261 27.9169L7.01265 26.7347C7.3688 27.1972 8.05779 27.8539 9.10711 27.8539C10.1564 27.8539 10.8454 27.1972 11.2016 26.7347L13.5219 27.4311L11.8153 27.8246C9.86034 28.2761 8.4952 29.9926 8.4952 31.9983V32.7491H9.71902V31.9983C9.71902 30.5653 10.6945 29.3397 12.0907 29.0171L15.2985 28.2767L16.0197 31.8845L17.3 31.1166L17.6621 32.2033L17.1261 37.0325H14.0024V32.1372H12.7785V37.0325H9.71902V35.8087C9.71902 34.7967 8.89527 33.973 7.8833 33.973ZM35.9464 27.9169C36.7292 28.1512 37.2548 28.8581 37.2548 29.675V33.973H34.8072V29.6896H33.5833V33.973H31.1357C30.1237 33.973 29.3 34.7967 29.3 35.8087V37.0325H26.2405V32.1372H25.0167V37.0325H21.8929L21.3563 32.2033L21.7184 31.1166L22.9987 31.8845L23.7199 28.2767L26.9283 29.0171C28.3245 29.3397 29.3 30.5653 29.3 31.9983V32.7491H30.5238V31.9983C30.5238 29.9926 29.1587 28.2761 27.2037 27.8246L25.4971 27.4311L27.8174 26.7347C28.1736 27.1972 28.8626 27.8539 29.9119 27.8539C30.9612 27.8539 31.6502 27.1972 32.0064 26.7347L35.9464 27.9169ZM31.1357 25.85C30.9839 26.0842 30.5624 26.6301 29.9119 26.6301C29.2603 26.6301 28.8381 26.0818 28.6881 25.85V25.2258C29.0759 25.342 29.4867 25.4063 29.9119 25.4063C30.3371 25.4063 30.7479 25.342 31.1357 25.2258V25.85ZM29.9119 24.1825C28.225 24.1825 26.8524 22.8099 26.8524 21.1229V20.511H27.2109C27.7439 20.511 28.2531 20.3581 28.6881 20.0724C29.1231 20.3581 29.6322 20.511 30.1653 20.511H32.9714V21.1229C32.9714 22.8099 31.5988 24.1825 29.9119 24.1825ZM29.9119 16.2277C31.5988 16.2277 32.9714 17.6003 32.9714 19.2872H30.1653C29.7766 19.2872 29.3953 19.1295 29.1207 18.8546L28.6881 18.4219L28.2555 18.8546C27.9809 19.1295 27.5996 19.2872 27.2109 19.2872H26.8524C26.8524 17.6003 28.225 16.2277 29.9119 16.2277ZM25.6286 18.1154C25.0872 17.7055 24.4146 17.4515 23.6877 17.4515H22.9473L22.1947 15.9462L21.618 16.3305C20.5173 17.0643 19.2373 17.4515 17.9155 17.4515H15.3313C14.6044 17.4515 13.9318 17.7055 13.3905 18.1154V17.2104C13.3905 13.9698 16.0278 11.3324 19.2684 11.3324C20.8385 11.3324 22.3151 11.9438 23.425 13.0537L24.0743 13.703L24.2114 13.749C25.0588 14.0316 25.6286 14.8216 25.6286 15.715V18.1154ZM29.9119 1.54195C31.5988 1.54195 32.9714 2.91456 32.9714 4.60148H32.6129C32.2242 4.60148 31.8429 4.44372 31.5684 4.16884L31.1357 3.73621L30.7031 4.16884C30.4285 4.44372 30.0473 4.60148 29.6585 4.60148H26.8524C26.8524 2.91456 28.225 1.54195 29.9119 1.54195ZM26.8524 6.4372V5.82529H29.6585C30.1916 5.82529 30.7007 5.67232 31.1357 5.38668C31.5707 5.67232 32.0799 5.82529 32.6129 5.82529H32.9714V6.4372C32.9714 8.12412 31.5988 9.49673 29.9119 9.49673C28.225 9.49673 26.8524 8.12412 26.8524 6.4372ZM29.9119 11.9443C29.2603 11.9443 28.8381 11.3961 28.6881 11.1642V10.5401C29.0759 10.6563 29.4867 10.7205 29.9119 10.7205C30.3371 10.7205 30.7479 10.6563 31.1357 10.5401V11.1636C30.9839 11.3985 30.5624 11.9443 29.9119 11.9443Z" fill="#A4947E"/>
<path fill-rule="evenodd" clip-rule="evenodd" d="M38.5786 19.9991H37.1548V14.9892C37.1548 14.2165 36.6581 13.5486 35.9183 13.327L32.0429 12.1643C31.6672 12.6333 30.9655 13.2682 29.9119 13.2682C28.8583 13.2682 28.1567 12.6333 27.781 12.1649L25.415 12.8751C26.3583 13.4912 26.9524 14.5488 26.9524 15.7156V16.0595C27.7327 15.3435 28.7713 14.9045 29.9119 14.9045C32.329 14.9045 34.2952 16.8707 34.2952 19.2878V21.1235C34.2952 22.5905 33.5691 23.8893 32.4595 24.685V25.4884L36.3271 26.6487C37.6733 27.0525 38.5786 28.2693 38.5786 29.675V35.2968H31.1357C30.8539 35.2968 30.6238 35.5269 30.6238 35.8087V38.3563H8.3952V35.8087C8.3952 35.5269 8.1651 35.2968 7.8833 35.2968H0.44043V29.675C0.44043 28.2693 1.34572 27.0526 2.69187 26.6482L6.55949 25.4878V24.6845C5.44991 23.8893 4.72377 22.5905 4.72377 21.1229V19.2872C4.72377 16.8701 6.69001 14.9039 9.10711 14.9039C10.2901 14.9039 11.3626 15.3778 12.151 16.1415C12.3341 14.9186 12.8245 13.7968 13.5424 12.8554L11.2381 12.1643C10.8624 12.6333 10.1607 13.2682 9.10711 13.2682C8.05351 13.2682 7.35184 12.6333 6.97611 12.1643L3.10135 13.327C2.36093 13.5485 1.86424 14.2165 1.86424 14.9892V19.9991H0.44043V14.9892C0.44043 13.5835 1.34572 12.3668 2.69187 11.9624L6.55949 10.8021V9.99873C5.44991 9.20357 4.72377 7.90477 4.72377 6.4372V4.60148C4.72377 2.18438 6.69001 0.21814 9.10711 0.21814C11.5242 0.21814 13.4905 2.18438 13.4905 4.60148V6.43779C13.4905 7.90481 12.7643 9.20359 11.6547 9.9993V10.8027L14.6436 11.6997C15.8959 10.6466 17.508 10.0086 19.2684 10.0086C21.0366 10.0086 22.7033 10.6486 24.0177 11.8062L27.3643 10.8021V9.99873C26.2547 9.20357 25.5286 7.90477 25.5286 6.4372V4.60148C25.5286 2.18438 27.4948 0.21814 29.9119 0.21814C32.329 0.21814 34.2952 2.18438 34.2952 4.60148V6.43779C34.2952 7.90481 33.5691 9.20359 32.4595 9.9993V10.8027L36.3271 11.963C37.6733 12.3668 38.5786 13.5835 38.5786 14.9892V19.9991ZM32.3595 10.8771V9.94759C33.4677 9.17255 34.1952 7.88928 34.1952 6.43779V4.60148C34.1952 2.23961 32.2738 0.31814 29.9119 0.31814C27.55 0.31814 25.6286 2.23961 25.6286 4.60148V6.4372C25.6286 7.88928 26.3561 9.17255 27.4643 9.94699V10.8765L23.993 11.9181C22.6903 10.7531 21.0306 10.1086 19.2684 10.1086C17.5133 10.1086 15.9077 10.7516 14.6668 11.8111L11.5547 10.8771V9.94759C12.6629 9.17255 13.3905 7.88928 13.3905 6.43779V4.60148C13.3905 2.23961 11.469 0.31814 9.10711 0.31814C6.74524 0.31814 4.82377 2.23961 4.82377 4.60148V6.4372C4.82377 7.88928 5.5513 9.17255 6.65949 9.94699V10.8765L2.72064 12.0582C1.41676 12.4499 0.54043 13.6277 0.54043 14.9892V19.8991H1.76424V14.9892C1.76424 14.1724 2.2898 13.4654 3.07261 13.2312L7.01265 12.0489C7.3688 12.5114 8.05779 13.1682 9.10711 13.1682C10.1564 13.1682 10.8454 12.5114 11.2016 12.0489L13.711 12.8016C13.6888 12.8296 13.6667 12.8578 13.6448 12.8861C12.91 13.8393 12.4128 14.9823 12.2393 16.2295C12.2335 16.2718 12.2279 16.3142 12.2228 16.3568C12.1935 16.3257 12.1638 16.295 12.1336 16.2648C11.3584 15.488 10.2891 15.0039 9.10711 15.0039C6.74524 15.0039 4.82377 16.9253 4.82377 19.2872V21.1229C4.82377 22.575 5.5513 23.8583 6.65949 24.6327V25.5622L2.72064 26.7439C1.41676 27.1356 0.54043 28.3134 0.54043 29.675V35.1968H7.8833C8.22032 35.1968 8.4952 35.4716 8.4952 35.8087V38.2563H30.5238V35.8087C30.5238 35.4716 30.7987 35.1968 31.1357 35.1968H38.4786V29.675C38.4786 28.3134 37.6023 27.1356 36.2984 26.7445L32.3595 25.5628V24.6333C33.4677 23.8583 34.1952 22.575 34.1952 21.1235V19.2878C34.1952 16.9259 32.2738 15.0045 29.9119 15.0045C28.7643 15.0045 27.7222 15.4593 26.9524 16.1966C26.9185 16.229 26.8852 16.262 26.8524 16.2955V15.7156C26.8524 14.5538 26.2456 13.5036 25.2883 12.9131C25.2497 12.8893 25.2105 12.8663 25.1708 12.844L27.8174 12.0495C28.1736 12.5114 28.8626 13.1682 29.9119 13.1682C30.9612 13.1682 31.6502 12.5114 32.0064 12.0489L35.947 13.2312C36.7292 13.4654 37.2548 14.1724 37.2548 14.9892V19.8991H38.4786V14.9892C38.4786 13.6277 37.6023 12.4499 36.2984 12.0588L32.3595 10.8771ZM8.31594 4.16884C8.59052 4.44372 8.97176 4.60148 9.36048 4.60148H12.1666C12.1666 4.56802 12.1661 4.53468 12.165 4.50148C12.1121 2.86065 10.7606 1.54195 9.10711 1.54195C7.45365 1.54195 6.10216 2.86065 6.04919 4.50148C6.04812 4.53468 6.04758 4.56802 6.04758 4.60148H6.40612C6.79484 4.60148 7.17608 4.44372 7.45066 4.16884L7.8833 3.73621L8.31594 4.16884ZM6.14925 4.50148H6.40612C6.76835 4.50148 7.12413 4.35423 7.37991 4.09817L7.8833 3.59479L8.38665 4.09813C8.64243 4.3542 8.99825 4.50148 9.36048 4.50148H12.065C12.012 2.91588 10.7053 1.64195 9.10711 1.64195C7.50888 1.64195 6.20217 2.91588 6.14925 4.50148ZM25.8489 22.7584C25.8753 22.7342 25.9014 22.7095 25.927 22.6844C25.9402 22.7178 25.9538 22.7511 25.9678 22.7841C26.2844 23.5327 26.8056 24.1729 27.4643 24.6333V25.5628L23.526 26.7445C23.3964 26.7831 23.2703 26.8333 23.1472 26.8888L22.569 26.7556V25.55C23.2231 25.0244 23.7385 24.3342 24.0549 23.5431C24.724 23.4844 25.3535 23.211 25.8489 22.7584ZM25.8898 22.8562C26.2081 23.5918 26.72 24.2232 27.3643 24.6851V25.4884L23.4975 26.6487M25.8898 22.8562C25.3974 23.2959 24.7808 23.5665 24.1247 23.6367C23.8064 24.4054 23.3031 25.078 22.669 25.5976V26.676L23.137 26.7839C23.2531 26.7325 23.3734 26.6856 23.4975 26.6487M22.1908 18.6753L21.7068 17.7067C21.6775 17.7227 21.6481 17.7385 21.6187 17.7542C20.4811 18.359 19.2153 18.6753 17.9155 18.6753H15.8381V21.7348C15.8381 23.7597 17.4847 25.4063 19.5095 25.4063C21.5344 25.4063 23.1809 23.7597 23.1809 21.7348V18.6753H22.1908ZM23.0809 18.7753V21.7348C23.0809 23.7045 21.4791 25.3063 19.5095 25.3063C17.5399 25.3063 15.9381 23.7045 15.9381 21.7348V18.7753H17.9155C19.2308 18.7753 20.5119 18.4555 21.6634 17.8437L22.129 18.7753H23.0809ZM15.4936 26.7445C15.6227 26.7837 15.7481 26.8333 15.8718 26.8888L16.45 26.7556V25.55C15.7953 25.0244 15.2799 24.3342 14.9641 23.5431C14.295 23.4844 13.6655 23.211 13.1701 22.7584C13.1437 22.7342 13.1176 22.7095 13.092 22.6844C13.0788 22.7178 13.0652 22.7511 13.0512 22.7841C12.7345 23.5327 12.2129 24.1729 11.5547 24.6333V25.5628L15.4936 26.7445ZM11.6547 25.4884L15.5223 26.6487C15.6456 26.6861 15.7653 26.7326 15.8819 26.7839L16.35 26.676V25.5977C15.7153 25.078 15.212 24.4054 14.8943 23.6367C14.2382 23.5665 13.6216 23.2959 13.1292 22.8562C12.8109 23.5918 12.2984 24.2232 11.6547 24.685V25.4884ZM10.7636 18.8546C11.0381 19.1295 11.4194 19.2872 11.8081 19.2872H12.1666C12.1666 19.2538 12.1661 19.2204 12.165 19.1872C12.1121 17.5464 10.7606 16.2277 9.10711 16.2277C7.45365 16.2277 6.10216 17.5464 6.04919 19.1872C6.04812 19.2204 6.04758 19.2538 6.04758 19.2872H8.85374C9.24246 19.2872 9.6237 19.1295 9.89829 18.8546L10.3309 18.4219L10.7636 18.8546ZM6.14925 19.1872H8.85374C9.21597 19.1872 9.57175 19.04 9.82754 18.7839L10.3309 18.2805L10.8343 18.7839C11.0901 19.0399 11.4459 19.1872 11.8081 19.1872H12.065C12.012 17.6016 10.7053 16.3277 9.10711 16.3277C7.50888 16.3277 6.20217 17.6016 6.14925 19.1872ZM3.07261 27.9169C2.2898 28.1512 1.76424 28.8581 1.76424 29.675V33.973H4.21186V29.6896H5.43568V33.973H7.8833C8.89527 33.973 9.71902 34.7967 9.71902 35.8087V37.0325H12.7785V32.1372H14.0024V37.0325H17.1261L17.6621 32.2033L17.3 31.1166L16.0197 31.8845L15.2985 28.2767L12.0907 29.0171C10.6945 29.3397 9.71902 30.5653 9.71902 31.9983V32.7491H8.4952V31.9983C8.4952 29.9926 9.86034 28.2761 11.8153 27.8246L13.5219 27.4311L11.2016 26.7347C10.8454 27.1972 10.1564 27.8539 9.10711 27.8539C8.05779 27.8539 7.3688 27.1972 7.01265 26.7347L3.07261 27.9169ZM6.97611 26.85L3.10135 28.0127C2.36093 28.2343 1.86424 28.9022 1.86424 29.675V33.873H4.11186V29.5896H5.53568V33.873H7.8833C8.9505 33.873 9.81902 34.7415 9.81902 35.8087V36.9325H12.6785V32.0372H14.1024V36.9325H17.0366L17.5603 32.2141L17.2446 31.2665L15.9495 32.0432L15.2206 28.3973L12.1133 29.1145C12.1133 29.1145 12.1133 29.1145 12.1133 29.1145C10.7624 29.4267 9.81902 30.612 9.81902 31.9983V32.8491H8.3952V31.9983C8.3952 29.946 9.79248 28.1891 11.7928 27.7272L13.1318 27.4184L11.2381 26.85C10.8624 27.3191 10.1607 27.9539 9.10711 27.9539C8.05351 27.9539 7.35184 27.3191 6.97611 26.85ZM35.9177 28.0127L32.0429 26.85C31.6672 27.3191 30.9655 27.9539 29.9119 27.9539C28.8583 27.9539 28.1566 27.3191 27.7809 26.85L25.8872 27.4184L27.2262 27.7272C29.2265 28.1891 30.6238 29.946 30.6238 31.9983V32.8491H29.2V31.9983C29.2 30.612 28.2567 29.4267 26.9058 29.1145C26.9058 29.1145 26.9058 29.1145 26.9058 29.1145L23.7978 28.3973L23.0689 32.0432L21.7739 31.2665L21.4581 32.214L21.9824 36.9325H24.9167V32.0372H26.3405V36.9325H29.2V35.8087C29.2 34.7415 30.0685 33.873 31.1357 33.873H33.4833V29.5896H34.9072V33.873H37.1548V29.675C37.1548 28.9022 36.6581 28.2343 35.9177 28.0127ZM21.8929 37.0325L21.3563 32.2033L21.7184 31.1166L22.9987 31.8845L23.7199 28.2767L26.9283 29.0171C28.3245 29.3397 29.3 30.5653 29.3 31.9983V32.7491H30.5238V31.9983C30.5238 29.9926 29.1587 28.2761 27.2037 27.8246L25.4971 27.4311L27.8174 26.7347C28.1736 27.1972 28.8626 27.8539 29.9119 27.8539C30.9612 27.8539 31.6502 27.1972 32.0064 26.7347L35.9464 27.9169C36.7292 28.1512 37.2548 28.8581 37.2548 29.675V33.973H34.8072V29.6896H33.5833V33.973H31.1357C30.1237 33.973 29.3 34.7967 29.3 35.8087V37.0325H26.2405V32.1372H25.0167V37.0325H21.8929ZM29.1915 18.7839C29.4473 19.04 29.803 19.1872 30.1653 19.1872H32.8698C32.8168 17.6016 31.5101 16.3277 29.9119 16.3277C28.3137 16.3277 27.007 17.6016 26.954 19.1872H27.2109C27.5731 19.1872 27.9289 19.04 28.1847 18.7839L28.6881 18.2805L29.1915 18.7839ZM26.854 19.1872C26.907 17.5464 28.2584 16.2277 29.9119 16.2277C31.5654 16.2277 32.9169 17.5464 32.9698 19.1872C32.9709 19.2204 32.9714 19.2538 32.9714 19.2872H30.1653C29.7766 19.2872 29.3953 19.1295 29.1207 18.8546M26.854 19.1872C26.8529 19.2204 26.8524 19.2538 26.8524 19.2872H27.2109M22.9473 17.4515H23.6877C24.3705 17.4515 25.0053 17.6756 25.5286 18.0425C25.5624 18.0662 25.5957 18.0905 25.6286 18.1154V15.715C25.6286 14.8216 25.0588 14.0316 24.2114 13.749L24.0743 13.703L23.425 13.0537C22.3151 11.9438 20.8385 11.3324 19.2684 11.3324C16.0278 11.3324 13.3905 13.9698 13.3905 17.2104V18.1154C13.4233 18.0905 13.4566 18.0662 13.4905 18.0425C14.0137 17.6756 14.6485 17.4515 15.3313 17.4515H17.9155C19.2373 17.4515 20.5173 17.0643 21.618 16.3305L22.1947 15.9462L22.9473 17.4515ZM13.4905 17.9212C14.0179 17.5669 14.6511 17.3515 15.3313 17.3515H17.9155C19.2176 17.3515 20.4783 16.9701 21.5625 16.2473L22.2335 15.8002L23.0091 17.3515H23.6877C24.3679 17.3515 25.0011 17.5669 25.5286 17.9212V15.715C25.5286 14.8647 24.9864 14.1129 24.1798 13.8439L24.0202 13.7903L23.3543 13.1244C22.2631 12.0332 20.812 11.4324 19.2684 11.4324C16.083 11.4324 13.4905 14.025 13.4905 17.2104V17.9212ZM31.5684 4.16884C31.8429 4.44372 32.2242 4.60148 32.6129 4.60148H32.9714C32.9714 4.56802 32.9709 4.53468 32.9698 4.50148C32.9169 2.86065 31.5654 1.54195 29.9119 1.54195C28.2584 1.54195 26.907 2.86065 26.854 4.50148C26.8529 4.53468 26.8524 4.56802 26.8524 4.60148H29.6585C30.0473 4.60148 30.4285 4.44372 30.7031 4.16884L31.1357 3.73621L31.5684 4.16884ZM26.954 4.50148H29.6585C30.0208 4.50148 30.3765 4.35423 30.6323 4.09817L31.1357 3.59479L31.6391 4.09813C31.8948 4.3542 32.2507 4.50148 32.6129 4.50148H32.8698C32.8168 2.91588 31.5101 1.64195 29.9119 1.64195C28.3137 1.64195 27.007 2.91588 26.954 4.50148ZM6.14758 5.92529V6.4372C6.14758 8.06889 7.47542 9.39673 9.10711 9.39673C10.7388 9.39673 12.0666 8.06889 12.0666 6.4372V5.92529H9.36048C8.83032 5.92529 8.32243 5.7792 7.8833 5.50539C7.44417 5.7792 6.93627 5.92529 6.40612 5.92529H6.14758ZM7.8833 5.38668C8.31833 5.67232 8.82745 5.82529 9.36048 5.82529H12.1666V6.4372C12.1666 8.12412 10.794 9.49673 9.10711 9.49673C7.42019 9.49673 6.04758 8.12412 6.04758 6.4372V5.82529H6.40612C6.93915 5.82529 7.44827 5.67232 7.8833 5.38668ZM8.37097 11.5641C8.5649 11.7204 8.81143 11.8443 9.10711 11.8443C9.40282 11.8443 9.64935 11.7205 9.84325 11.5642C10.0241 11.4184 10.155 11.2474 10.2309 11.1337V10.6723C9.87235 10.7681 9.49563 10.8205 9.10711 10.8205C8.71856 10.8205 8.34183 10.7681 7.9833 10.6728V11.1342C8.05927 11.2475 8.19015 11.4183 8.37097 11.5641ZM7.8833 11.1642V10.5407C7.91647 10.5506 7.9498 10.5601 7.9833 10.5692C8.34149 10.6668 8.7183 10.7205 9.10711 10.7205C9.49592 10.7205 9.87273 10.6668 10.2309 10.5687C10.2644 10.5596 10.2978 10.55 10.3309 10.5401V11.1636C10.1791 11.3985 9.75756 11.9443 9.10711 11.9443C8.45666 11.9443 8.03508 11.3979 7.8833 11.1642ZM21.2452 26.4161C20.7046 26.6177 20.12 26.7301 19.5095 26.7301C18.899 26.7301 18.3144 26.6177 17.7738 26.4161V26.886L19.5095 28.1878L21.2452 26.886V26.4161ZM21.2452 26.3092C20.7056 26.5151 20.1208 26.6301 19.5095 26.6301C18.8982 26.6301 18.3134 26.5151 17.7738 26.3092C17.7403 26.2964 17.7069 26.2832 17.6738 26.2698V26.936L19.5095 28.3128L21.3452 26.936V26.2698C21.3121 26.2832 21.2787 26.2964 21.2452 26.3092ZM16.8996 28.0102L16.6086 28.0776L16.9499 29.7836L18.2352 29.0123L16.8996 28.0102ZM16.9224 27.9023L16.4915 28.0021L16.8796 29.9424L18.4142 29.0215L16.9224 27.9023ZM18.9229 32.8491L18.4691 36.9325H20.5499L20.0961 32.8491H18.9229ZM20.1857 32.7491H18.8334L18.3574 37.0325H20.6616L20.1857 32.7491ZM20.292 31.5253L20.6434 30.4715L19.5095 29.7912L18.375 30.4715L18.7264 31.5253H20.292ZM18.4953 30.516L19.5095 29.9078L20.5231 30.516L20.2199 31.4253H18.7985L18.4953 30.516ZM20.6048 29.0215L22.1394 29.9418L22.5275 28.0015L22.0967 27.9023L20.6048 29.0215ZM20.7838 29.0123L22.0692 29.7831L22.4104 28.0772L22.1195 28.0102L20.7838 29.0123ZM24.4919 22.0897C24.7129 21.9944 24.9138 21.8582 25.0774 21.6787C25.4105 21.3117 25.5673 20.8367 25.5198 20.3377C25.4623 19.7356 25.0623 19.2195 24.5048 18.9577V21.7348C24.5048 21.8542 24.5003 21.9725 24.4919 22.0897ZM24.4827 22.2018C24.4483 22.2156 24.4136 22.2285 24.3785 22.2404C24.3822 22.204 24.3855 22.1674 24.3885 22.1308C24.3991 22.0001 24.4048 21.8681 24.4048 21.7348V18.8068C24.4385 18.8196 24.4719 18.8333 24.5048 18.8478C25.1124 19.1163 25.5567 19.6714 25.6193 20.3282C25.6695 20.8549 25.5037 21.3578 25.1514 21.7459C24.965 21.9504 24.7343 22.101 24.4827 22.2018ZM14.6406 22.2404C14.6368 22.204 14.6335 22.1674 14.6305 22.1308C14.6199 22.0001 14.6143 21.8681 14.6143 21.7348V18.8074C14.5805 18.8202 14.5471 18.8338 14.5143 18.8483C13.9066 19.1164 13.4624 19.672 13.3997 20.3288C13.3495 20.8549 13.5153 21.3584 13.8676 21.7459C14.054 21.9504 14.2847 22.101 14.5363 22.2018C14.5707 22.2156 14.6055 22.2285 14.6406 22.2404ZM14.5271 22.0897C14.5187 21.9725 14.5143 21.8542 14.5143 21.7348V18.9582C13.9568 19.2196 13.5567 19.7361 13.4993 20.3383C13.4517 20.8367 13.6085 21.3122 13.9415 21.6785C14.1052 21.8581 14.3061 21.9944 14.5271 22.0897ZM6.14758 20.611V21.1229C6.14758 22.7546 7.47542 24.0825 9.10711 24.0825C10.7388 24.0825 12.0666 22.7546 12.0666 21.1229V20.611H11.8081C11.2779 20.611 10.7701 20.4649 10.3309 20.1911C9.8918 20.4649 9.3839 20.611 8.85374 20.611H6.14758ZM10.3309 20.0724C10.7659 20.3581 11.2751 20.511 11.8081 20.511H12.1666V21.1229C12.1666 22.8099 10.794 24.1825 9.10711 24.1825C7.42019 24.1825 6.04758 22.8099 6.04758 21.1229V20.511H8.85374C9.38677 20.511 9.8959 20.3581 10.3309 20.0724ZM10.2309 25.3581C9.87235 25.4539 9.49563 25.5063 9.10711 25.5063C8.71856 25.5063 8.34183 25.4539 7.9833 25.3585V25.8199C8.05927 25.9333 8.19015 26.104 8.37097 26.2498C8.5649 26.4062 8.81143 26.5301 9.10711 26.5301C9.40282 26.5301 9.64935 26.4063 9.84325 26.2499C10.0241 26.1041 10.155 25.9332 10.2309 25.8195V25.3581ZM10.2309 25.2545C9.87273 25.3526 9.49592 25.4063 9.10711 25.4063C8.7183 25.4063 8.34149 25.3526 7.9833 25.2549C7.9498 25.2458 7.91647 25.2363 7.8833 25.2264V25.85C8.03508 26.0836 8.45666 26.6301 9.10711 26.6301C9.75756 26.6301 10.1791 26.0842 10.3309 25.8494V25.2258C10.2978 25.2358 10.2644 25.2453 10.2309 25.2545ZM31.0357 25.82V25.3581C30.6771 25.4539 30.3004 25.5063 29.9119 25.5063C29.5234 25.5063 29.1467 25.4539 28.7881 25.3581V25.82C28.8633 25.9325 28.9939 26.1032 29.1747 26.2492C29.3687 26.4057 29.6157 26.5301 29.9119 26.5301C30.2076 26.5301 30.4542 26.4063 30.6481 26.25C30.8289 26.1043 30.9598 25.9335 31.0357 25.82ZM28.6881 25.85C28.8381 26.0818 29.2603 26.6301 29.9119 26.6301C30.5624 26.6301 30.9839 26.0842 31.1357 25.85V25.2258C31.1026 25.2358 31.0692 25.2453 31.0357 25.2545C30.6775 25.3526 30.3007 25.4063 29.9119 25.4063C29.5231 25.4063 29.1463 25.3526 28.7881 25.2545C28.7546 25.2453 28.7213 25.2358 28.6881 25.2258V25.85ZM26.9524 21.1229C26.9524 22.7546 28.2802 24.0825 29.9119 24.0825C31.5436 24.0825 32.8714 22.7546 32.8714 21.1229V20.611H30.1653C29.6351 20.611 29.1272 20.4649 28.6881 20.1911C28.249 20.4649 27.7411 20.611 27.2109 20.611H26.9524V21.1229ZM28.6881 20.0724C28.2531 20.3581 27.7439 20.511 27.2109 20.511H26.8524V21.1229C26.8524 22.8099 28.225 24.1825 29.9119 24.1825C31.5988 24.1825 32.9714 22.8099 32.9714 21.1229V20.511H30.1653C29.6322 20.511 29.1231 20.3581 28.6881 20.0724ZM26.9524 5.92529V6.4372C26.9524 8.06889 28.2802 9.39673 29.9119 9.39673C31.5436 9.39673 32.8714 8.06889 32.8714 6.4372V5.92529H32.6129C32.0827 5.92529 31.5748 5.7792 31.1357 5.50539C30.6966 5.7792 30.1887 5.92529 29.6585 5.92529H26.9524ZM31.1357 5.38668C30.7007 5.67232 30.1916 5.82529 29.6585 5.82529H26.8524V6.4372C26.8524 8.12412 28.225 9.49673 29.9119 9.49673C31.5988 9.49673 32.9714 8.12412 32.9714 6.4372V5.82529H32.6129C32.0799 5.82529 31.5707 5.67232 31.1357 5.38668ZM29.1747 11.5634C29.3687 11.72 29.6157 11.8443 29.9119 11.8443C30.2076 11.8443 30.4541 11.7205 30.648 11.5642C30.8289 11.4184 30.9598 11.2474 31.0357 11.1337V10.6723C30.6771 10.7681 30.3004 10.8205 29.9119 10.8205C29.5234 10.8205 29.1467 10.7681 28.7881 10.6723V11.1343C28.8633 11.2468 28.9939 11.4175 29.1747 11.5634ZM28.6881 11.1642C28.8381 11.3961 29.2603 11.9443 29.9119 11.9443C30.5624 11.9443 30.9839 11.3985 31.1357 11.1636V10.5401C31.1026 10.55 31.0692 10.5596 31.0357 10.5687C30.6775 10.6668 30.3007 10.7205 29.9119 10.7205C29.5231 10.7205 29.1463 10.6668 28.7881 10.5687C28.7546 10.5596 28.7213 10.55 28.6881 10.5401V11.1642Z" fill="#A4947E"/>
</svg>
