<svg width="38" height="38" viewBox="0 0 38 38" fill="none" xmlns="http://www.w3.org/2000/svg">
<path d="M36.8894 22.3006H25.2913V21.1408H25.8713C26.1915 21.1408 26.4512 20.8811 26.4512 20.5609C26.4512 20.2406 26.1915 19.981 25.8713 19.981H25.2913V19.4011C25.2913 18.12 26.3299 17.0814 27.611 17.0814C28.892 17.0814 29.9306 18.12 29.9306 19.4011C29.9306 19.7213 30.1902 19.981 30.5105 19.981C30.8307 19.981 31.0904 19.7213 31.0904 19.4011C31.0904 17.4794 29.5326 15.9216 27.611 15.9216C25.6893 15.9216 24.1315 17.4794 24.1315 19.4011V22.3006H14.4007C14.6903 21.9836 14.8516 21.5701 14.8531 21.1408V17.6613C14.8531 17.3411 14.5934 17.0814 14.2732 17.0814H5.57461C5.25435 17.0814 4.9947 17.3411 4.9947 17.6613V21.1408C4.99622 21.5701 5.15744 21.9836 5.44703 22.3006H0.935373C0.615121 22.3006 0.355469 22.5602 0.355469 22.8805V36.7982C0.355469 37.1184 0.615121 37.3781 0.935373 37.3781H36.8894C37.2097 37.3781 37.4693 37.1184 37.4693 36.7982V22.8805C37.4693 22.5602 37.2097 22.3006 36.8894 22.3006ZM6.15451 18.2412H13.6933V21.1408C13.6933 21.461 13.4336 21.7207 13.1134 21.7207H6.73442C6.41416 21.7207 6.15451 21.461 6.15451 21.1408V18.2412ZM9.63394 36.2183H1.51528V29.2594H9.63394V36.2183ZM9.63394 28.0996H1.51528V23.4604H3.25499C3.25499 23.7806 3.51464 24.0403 3.83489 24.0403H7.31432C7.63457 24.0403 7.89422 23.7806 7.89422 23.4604H9.63394V28.0996ZM27.0311 36.2183H10.7937V23.4604H27.0311V36.2183ZM36.3095 36.2183H28.1909V29.2594H36.3095V36.2183ZM36.3095 28.0996H28.1909V23.4604H29.9306C29.9306 23.7806 30.1902 24.0403 30.5105 24.0403H33.9899C34.3102 24.0403 34.5698 23.7806 34.5698 23.4604H36.3095V28.0996Z" fill="#A4947E"/>
<path d="M11.9538 32.1589H25.8715C26.1918 32.1589 26.4514 31.8993 26.4514 31.579V25.78C26.4514 25.4597 26.1918 25.2001 25.8715 25.2001H11.9538C11.6336 25.2001 11.3739 25.4597 11.3739 25.78V31.579C11.3739 31.8993 11.6336 32.1589 11.9538 32.1589ZM12.5337 26.3599H25.2916V30.9991H12.5337V26.3599Z" fill="#A4947E"/>
<path d="M22.3923 33.8987H15.4335C15.1132 33.8987 14.8536 34.1583 14.8536 34.4786C14.8536 34.7988 15.1132 35.0585 15.4335 35.0585H22.3923C22.7126 35.0585 22.9722 34.7988 22.9722 34.4786C22.9722 34.1583 22.7126 33.8987 22.3923 33.8987Z" fill="#A4947E"/>
<path d="M6.73438 8.96272H31.0904C31.4106 8.96272 31.6703 8.70307 31.6703 8.38282V0.844064C31.6703 0.523812 31.4106 0.26416 31.0904 0.26416H6.73438C6.41413 0.26416 6.15448 0.523812 6.15448 0.844064V8.38282C6.15448 8.70307 6.41413 8.96272 6.73438 8.96272ZM19.4923 1.42397H30.5105V7.80291H19.4923V1.42397ZM7.31429 1.42397H18.3325V7.80291H7.31429V1.42397Z" fill="#A4947E"/>
<path d="M14.8533 4.32361H10.214C9.89378 4.32361 9.63412 4.58326 9.63412 4.90351C9.63412 5.22376 9.89378 5.48342 10.214 5.48342H14.8533C15.1735 5.48342 15.4332 5.22376 15.4332 4.90351C15.4332 4.58326 15.1735 4.32361 14.8533 4.32361Z" fill="#A4947E"/>
<path d="M27.6104 4.32361H22.9712C22.6509 4.32361 22.3913 4.58326 22.3913 4.90351C22.3913 5.22376 22.6509 5.48342 22.9712 5.48342H27.6104C27.9307 5.48342 28.1903 5.22376 28.1903 4.90351C28.1903 4.58326 27.9307 4.32361 27.6104 4.32361Z" fill="#A4947E"/>
<path d="M6.96635 14.5878C6.48568 14.8646 6.17956 15.3675 6.15448 15.9216C6.15448 16.2419 6.41413 16.5015 6.73438 16.5015C7.05464 16.5015 7.31429 16.2419 7.31429 15.9216C7.31429 15.7992 7.37228 15.7349 7.66223 15.5157C8.1429 15.2389 8.44902 14.736 8.4741 14.1819C8.44902 13.6278 8.1429 13.1249 7.66223 12.8481C7.36938 12.6283 7.31429 12.564 7.31429 12.4422C7.31429 12.3204 7.37228 12.2566 7.66223 12.0362C8.1429 11.7595 8.44902 11.2566 8.4741 10.7025C8.4741 10.3822 8.21444 10.1226 7.89419 10.1226C7.57394 10.1226 7.31429 10.3822 7.31429 10.7025C7.31429 10.8237 7.2563 10.888 6.96635 11.1084C6.48568 11.3852 6.17956 11.8881 6.15448 12.4422C6.17956 12.9963 6.48568 13.4992 6.96635 13.776C7.2563 13.9957 7.31429 14.0601 7.31429 14.1819C7.31429 14.3037 7.2563 14.3675 6.96635 14.5878Z" fill="#A4947E"/>
<path d="M10.5623 12.0362C11.043 11.7595 11.3491 11.2566 11.3742 10.7025C11.3742 10.3822 11.1145 10.1226 10.7943 10.1226C10.474 10.1226 10.2144 10.3822 10.2144 10.7025C10.2144 10.8237 10.1564 10.888 9.86643 11.1084C9.38576 11.3852 9.07965 11.8881 9.05457 12.4422C9.07965 12.9963 9.38576 13.4992 9.86643 13.776C10.1564 13.9957 10.2144 14.0601 10.2144 14.1819C10.2144 14.3037 10.1564 14.3686 9.86643 14.5878C9.38576 14.8646 9.07965 15.3675 9.05457 15.9216C9.05457 16.2419 9.31422 16.5015 9.63447 16.5015C9.95472 16.5015 10.2144 16.2419 10.2144 15.9216C10.2144 15.7992 10.2724 15.7349 10.5623 15.5157C11.043 15.2389 11.3491 14.736 11.3742 14.1819C11.3491 13.6278 11.043 13.1249 10.5623 12.8481C10.2724 12.6283 10.2144 12.564 10.2144 12.4422C10.2144 12.3204 10.2724 12.2549 10.5623 12.0362Z" fill="#A4947E"/>
<path d="M13.4612 12.0362C13.9419 11.7595 14.248 11.2566 14.2731 10.7025C14.2731 10.3822 14.0135 10.1226 13.6932 10.1226C13.373 10.1226 13.1133 10.3822 13.1133 10.7025C13.1133 10.8237 13.0553 10.888 12.7654 11.1084C12.2847 11.3852 11.9786 11.8881 11.9535 12.4422C11.9786 12.9963 12.2847 13.4992 12.7654 13.776C13.0553 13.9957 13.1133 14.0601 13.1133 14.1819C13.1133 14.3037 13.0553 14.3686 12.7654 14.5878C12.2847 14.8646 11.9786 15.3675 11.9535 15.9216C11.9535 16.2419 12.2131 16.5015 12.5334 16.5015C12.8536 16.5015 13.1133 16.2419 13.1133 15.9216C13.1133 15.7992 13.1713 15.7349 13.4612 15.5157C13.9419 15.2389 14.248 14.736 14.2731 14.1819C14.248 13.6278 13.9419 13.1249 13.4612 12.8481C13.1713 12.6283 13.1133 12.564 13.1133 12.4422C13.1133 12.3204 13.1713 12.2549 13.4612 12.0362Z" fill="#A4947E"/>
</svg>
