<svg width="37" height="34" viewBox="0 0 37 34" fill="none" xmlns="http://www.w3.org/2000/svg">
<path d="M2.85852 3.87842C2.48673 3.54101 1.92729 3.43995 1.44123 3.62241C0.955178 3.80486 0.638308 4.23487 0.638477 4.71179V31.9813C0.639132 32.632 1.22086 33.1594 1.93865 33.16H32.0191C32.5452 33.1601 33.0195 32.8729 33.2208 32.4322C33.4221 31.9916 33.3106 31.4844 32.9384 31.1474L2.85852 3.87842ZM32.1225 32.0195C32.1078 32.0594 32.0654 32.0852 32.0191 32.0826H27.973V31.0052C27.973 30.7076 27.707 30.4665 27.3788 30.4665C27.0506 30.4665 26.7846 30.7076 26.7846 31.0052V32.0826H24.4076V31.0052C24.4076 30.7076 24.1416 30.4665 23.8134 30.4665C23.4852 30.4665 23.2192 30.7076 23.2192 31.0052V32.0826H20.8423V31.0052C20.8423 30.7076 20.5762 30.4665 20.248 30.4665C19.9199 30.4665 19.6538 30.7076 19.6538 31.0052V32.0826H17.2769V31.0052C17.2769 30.7076 17.0108 30.4665 16.6827 30.4665C16.3545 30.4665 16.0884 30.7076 16.0884 31.0052V32.0826H13.7115V31.0052C13.7115 30.7076 13.4455 30.4665 13.1173 30.4665C12.7891 30.4665 12.5231 30.7076 12.5231 31.0052V32.0826H10.1461V31.0052C10.1461 30.7076 9.8801 30.4665 9.55191 30.4665C9.22373 30.4665 8.95768 30.7076 8.95768 31.0052V32.0826H6.58077V31.0052C6.58077 30.7076 6.31472 30.4665 5.98654 30.4665C5.65835 30.4665 5.39231 30.7076 5.39231 31.0052V32.0826H1.93865C1.87695 32.0826 1.82693 32.0372 1.82693 31.9813V28.8504H3.01539C3.34358 28.8504 3.60962 28.6092 3.60962 28.3117C3.60962 28.0142 3.34358 27.773 3.01539 27.773H1.82693V25.6182H3.01539C3.34358 25.6182 3.60962 25.377 3.60962 25.0795C3.60962 24.782 3.34358 24.5408 3.01539 24.5408H1.82693V22.386H3.01539C3.34358 22.386 3.60962 22.1448 3.60962 21.8473C3.60962 21.5498 3.34358 21.3086 3.01539 21.3086H1.82693V19.1538H3.01539C3.34358 19.1538 3.60962 18.9126 3.60962 18.6151C3.60962 18.3176 3.34358 18.0764 3.01539 18.0764H1.82693V15.9216H3.01539C3.34358 15.9216 3.60962 15.6804 3.60962 15.3829C3.60962 15.0854 3.34358 14.8442 3.01539 14.8442H1.82693V12.6894H3.01539C3.34358 12.6894 3.60962 12.4482 3.60962 12.1507C3.60962 11.8532 3.34358 11.612 3.01539 11.612H1.82693V9.45719H3.01539C3.34358 9.45719 3.60962 9.21601 3.60962 8.91849C3.60962 8.62098 3.34358 8.37979 3.01539 8.37979H1.82693V4.71179C1.82412 4.67007 1.8523 4.63175 1.89587 4.61806C1.91063 4.61205 1.92663 4.60893 1.94281 4.6089C1.97169 4.60924 1.99908 4.62058 2.01828 4.64014L32.0982 31.9091C32.133 31.9366 32.1431 31.982 32.1225 32.0195Z" fill="#A4947E"/>
<path fill-rule="evenodd" clip-rule="evenodd" d="M0.638477 31.9813V4.71179C0.638308 4.23487 0.955178 3.80486 1.44123 3.62241C1.92729 3.43995 2.48673 3.54101 2.85852 3.87842L32.9384 31.1474C33.3106 31.4844 33.4221 31.9916 33.2208 32.4322C33.0195 32.8729 32.5452 33.1601 32.0191 33.16H1.93865C1.22086 33.1594 0.639132 32.632 0.638477 31.9813ZM32.0191 33.36H1.93865C1.1294 33.3593 0.439261 32.7605 0.438477 31.9815L0.438477 4.71186C0.438477 4.71184 0.438477 4.71188 0.438477 4.71186C0.438307 4.14227 0.815977 3.64349 1.37095 3.43516C1.92414 3.2275 2.56321 3.34037 2.99285 3.73025C2.99286 3.73026 2.99283 3.73023 2.99285 3.73025L33.0726 30.9991C33.0727 30.9992 33.0726 30.9991 33.0726 30.9991C33.5061 31.3917 33.642 31.9915 33.4027 32.5153C33.1655 33.0347 32.6149 33.3601 32.0191 33.36C32.019 33.36 32.0191 33.36 32.0191 33.36ZM31.9409 31.9366C31.9432 31.9322 31.9457 31.9281 31.9484 31.9243L32.1225 32.0195L31.9364 31.9507C31.9376 31.946 31.9391 31.9413 31.9409 31.9366ZM32.0982 31.9091C32.133 31.9366 32.1431 31.982 32.1225 32.0195C32.1078 32.0594 32.0654 32.0852 32.0191 32.0826H27.973V31.0052C27.973 30.7076 27.707 30.4665 27.3788 30.4665C27.0506 30.4665 26.7846 30.7076 26.7846 31.0052V32.0826H24.4076V31.0052C24.4076 30.7076 24.1416 30.4665 23.8134 30.4665C23.4852 30.4665 23.2192 30.7076 23.2192 31.0052V32.0826H20.8423V31.0052C20.8423 30.7076 20.5762 30.4665 20.248 30.4665C19.9199 30.4665 19.6538 30.7076 19.6538 31.0052V32.0826H17.2769V31.0052C17.2769 30.7076 17.0108 30.4665 16.6827 30.4665C16.3545 30.4665 16.0884 30.7076 16.0884 31.0052V32.0826H13.7115V31.0052C13.7115 30.7076 13.4455 30.4665 13.1173 30.4665C12.7891 30.4665 12.5231 30.7076 12.5231 31.0052V32.0826H10.1461V31.0052C10.1461 30.7076 9.8801 30.4665 9.55191 30.4665C9.22373 30.4665 8.95768 30.7076 8.95768 31.0052V32.0826H6.58077V31.0052C6.58077 30.7076 6.31472 30.4665 5.98654 30.4665C5.65835 30.4665 5.39231 30.7076 5.39231 31.0052V32.0826H1.93865C1.87695 32.0826 1.82693 32.0372 1.82693 31.9813V28.8504H3.01539C3.34358 28.8504 3.60962 28.6092 3.60962 28.3117C3.60962 28.0142 3.34358 27.773 3.01539 27.773H1.82693V25.6182H3.01539C3.34358 25.6182 3.60962 25.377 3.60962 25.0795C3.60962 24.782 3.34358 24.5408 3.01539 24.5408H1.82693V22.386H3.01539C3.34358 22.386 3.60962 22.1448 3.60962 21.8473C3.60962 21.5498 3.34358 21.3086 3.01539 21.3086H1.82693V19.1538H3.01539C3.34358 19.1538 3.60962 18.9126 3.60962 18.6151C3.60962 18.3176 3.34358 18.0764 3.01539 18.0764H1.82693V15.9216H3.01539C3.34358 15.9216 3.60962 15.6804 3.60962 15.3829C3.60962 15.0854 3.34358 14.8442 3.01539 14.8442H1.82693V12.6894H3.01539C3.34358 12.6894 3.60962 12.4482 3.60962 12.1507C3.60962 11.8532 3.34358 11.612 3.01539 11.612H1.82693V9.45719H3.01539C3.34358 9.45719 3.60962 9.21601 3.60962 8.91849C3.60962 8.62098 3.34358 8.37979 3.01539 8.37979H1.82693V4.71179C1.82412 4.67007 1.8523 4.63175 1.89587 4.61806C1.91063 4.61205 1.92663 4.60893 1.94281 4.6089C1.97169 4.60924 1.99908 4.62058 2.01828 4.64014L32.0982 31.9091ZM2.02693 8.17979H3.01539C3.43512 8.17979 3.80962 8.49251 3.80962 8.91849C3.80962 9.34447 3.43512 9.65719 3.01539 9.65719H2.02693V11.412H3.01539C3.43512 11.412 3.80962 11.7247 3.80962 12.1507C3.80962 12.5767 3.43512 12.8894 3.01539 12.8894H2.02693V14.6442H3.01539C3.43512 14.6442 3.80962 14.9569 3.80962 15.3829C3.80962 15.8089 3.43512 16.1216 3.01539 16.1216H2.02693V17.8764H3.01539C3.43512 17.8764 3.80962 18.1891 3.80962 18.6151C3.80962 19.0411 3.43512 19.3538 3.01539 19.3538H2.02693V21.1086H3.01539C3.43512 21.1086 3.80962 21.4213 3.80962 21.8473C3.80962 22.2733 3.43512 22.586 3.01539 22.586H2.02693V24.3408H3.01539C3.43512 24.3408 3.80962 24.6535 3.80962 25.0795C3.80962 25.5055 3.43512 25.8182 3.01539 25.8182H2.02693V27.573H3.01539C3.43512 27.573 3.80962 27.8857 3.80962 28.3117C3.80962 28.7377 3.43512 29.0504 3.01539 29.0504H2.02693V31.8826H5.19231V31.0052C5.19231 30.5792 5.56681 30.2665 5.98654 30.2665C6.40626 30.2665 6.78077 30.5792 6.78077 31.0052V31.8826H8.75768V31.0052C8.75768 30.5792 9.13219 30.2665 9.55191 30.2665C9.97164 30.2665 10.3461 30.5792 10.3461 31.0052V31.8826H12.3231V31.0052C12.3231 30.5792 12.6976 30.2665 13.1173 30.2665C13.537 30.2665 13.9115 30.5792 13.9115 31.0052V31.8826H15.8884V31.0052C15.8884 30.5792 16.2629 30.2665 16.6827 30.2665C17.1024 30.2665 17.4769 30.5792 17.4769 31.0052V31.8826H19.4538V31.0052C19.4538 30.5792 19.8283 30.2665 20.248 30.2665C20.6678 30.2665 21.0423 30.5792 21.0423 31.0052V31.8826H23.0192V31.0052C23.0192 30.5792 23.3937 30.2665 23.8134 30.2665C24.2331 30.2665 24.6076 30.5792 24.6076 31.0052V31.8826H26.5846V31.0052C26.5846 30.5792 26.9591 30.2665 27.3788 30.2665C27.7985 30.2665 28.173 30.5792 28.173 31.0052V31.8826H31.7711L2.02693 4.91794V8.17979Z" fill="#A4947E"/>
<path d="M7.59527 15.7901C7.42532 15.636 7.16978 15.59 6.94776 15.6733C6.72575 15.7567 6.58097 15.9531 6.58092 16.1709V27.2341C6.58092 27.5316 6.84697 27.7728 7.17515 27.7728H19.3782C19.6185 27.7728 19.8351 27.6415 19.9271 27.4403C20.019 27.239 19.9682 27.0073 19.7983 26.8533L7.59527 15.7901ZM7.76938 26.6954V17.4713L17.9438 26.6954H7.76938Z" fill="#A4947E"/>
<path fill-rule="evenodd" clip-rule="evenodd" d="M7.7296 15.6419L19.9327 26.7051C20.1639 26.9147 20.2389 27.239 20.109 27.5234C19.9811 27.8033 19.6883 27.9728 19.3783 27.9728H7.17515C6.75542 27.9728 6.38092 27.6601 6.38092 27.2341V16.1709C6.38099 15.8604 6.58655 15.5953 6.87746 15.4861C7.1666 15.3775 7.50181 15.4354 7.7296 15.6419ZM6.58092 16.1709C6.58097 15.9531 6.72575 15.7567 6.94776 15.6733C7.16978 15.59 7.42532 15.636 7.59527 15.7901L19.7983 26.8533C19.9682 27.0073 20.019 27.239 19.9271 27.4403C19.8351 27.6415 19.6185 27.7728 19.3782 27.7728H7.17515C6.84697 27.7728 6.58092 27.5316 6.58092 27.2341V16.1709ZM7.96938 17.9226V26.4954H17.4254L7.96938 17.9226ZM7.76938 26.6954H17.9438L7.76938 17.4713V26.6954Z" fill="#A4947E"/>
<path d="M34.992 0.837878H4.91146C4.38538 0.837726 3.91104 1.12498 3.70978 1.56562C3.50851 2.00625 3.61999 2.51341 3.99218 2.85046L34.0721 30.1194C34.4439 30.4568 35.0033 30.5579 35.4894 30.3754C35.9755 30.193 36.2923 29.763 36.2922 29.2861V2.01655C36.2915 1.36584 35.7098 0.838472 34.992 0.837878ZM35.1037 22.1628L31.0398 25.847L28.0175 23.1072L35.1037 16.6832V22.1628ZM35.1037 15.1597L27.1773 22.3454L24.155 19.6056L35.1037 9.68009V15.1597ZM20.494 1.91528H26.5385L15.5898 11.8408L12.5675 9.10099L20.494 1.91528ZM11.7273 8.33927L8.70502 5.59944L12.769 1.91528H18.8135L11.7273 8.33927ZM28.219 1.91528H34.2635L19.4523 15.3424L16.43 12.6025L28.219 1.91528ZM35.1037 2.67754V8.15665L23.3148 18.8439L20.2925 16.1041L35.1037 2.67754ZM4.80806 1.9783C4.82279 1.93848 4.86522 1.91261 4.91146 1.91528H11.0915L7.86478 4.83772L4.83421 2.09035C4.79783 2.06305 4.78699 2.01662 4.80806 1.9783ZM35.0348 29.3798C34.9931 29.3979 34.9432 29.3889 34.9124 29.3577L31.8818 26.6103L35.1037 23.6863V29.2861C35.1065 29.3278 35.0783 29.3661 35.0348 29.3798Z" fill="#A4947E"/>
<path fill-rule="evenodd" clip-rule="evenodd" d="M36.4922 2.01655V29.286C36.4922 29.286 36.4922 29.286 36.4922 29.286C36.4923 29.8556 36.1147 30.3544 35.5597 30.5627C35.0065 30.7703 34.3673 30.6574 33.9377 30.2675L3.85794 2.99871C3.85791 2.99868 3.85796 2.99873 3.85794 2.99871C3.42445 2.60611 3.28862 2.0063 3.52786 1.48252C3.76507 0.963189 4.31566 0.637727 4.91146 0.637878C4.91148 0.637878 4.91144 0.637878 4.91146 0.637878H34.992V0.837878H4.91146C4.38538 0.837726 3.91104 1.12498 3.70978 1.56562C3.50851 2.00625 3.61999 2.51341 3.99218 2.85046L34.0721 30.1194C34.4439 30.4568 35.0033 30.5579 35.4894 30.3754C35.9755 30.193 36.2923 29.763 36.2922 29.2861V2.01655C36.2915 1.36584 35.7098 0.838472 34.992 0.837878V0.637878C35.8012 0.638548 36.4914 1.23756 36.4922 2.01655ZM4.98196 2.07391L4.80806 1.9783L4.99419 2.04711C4.99299 2.05189 4.99146 2.05668 4.98957 2.06143C4.98723 2.06591 4.98468 2.07006 4.98196 2.07391ZM4.91146 1.91528C4.86522 1.91261 4.82279 1.93848 4.80806 1.9783C4.78699 2.01662 4.79783 2.06305 4.83421 2.09035L7.86478 4.83772L11.0915 1.91528H4.91146ZM10.5727 2.11528H5.15948L7.86484 4.56783L10.5727 2.11528ZM34.9653 29.1927C34.9685 29.1917 34.9719 29.1909 34.9752 29.1904L35.0348 29.3798L34.9556 29.1978C34.9589 29.1958 34.9621 29.1941 34.9653 29.1927ZM34.9037 29.0799V24.1379L32.1795 26.6103L34.9037 29.0799ZM31.8818 26.6103L35.1037 23.6863V29.2861C35.1065 29.3278 35.0783 29.3661 35.0348 29.3798C34.9931 29.3979 34.9432 29.3889 34.9124 29.3577L31.8818 26.6103ZM34.9037 22.0742V17.1344L28.3153 23.1072L31.0398 25.577L34.9037 22.0742ZM31.0398 25.847L35.1037 22.1628V16.6832L28.0175 23.1072L31.0398 25.847ZM34.9037 15.0711V10.1313L24.4528 19.6056L27.1773 22.0755L34.9037 15.0711ZM27.1773 22.3454L35.1037 15.1597V9.68009L24.155 19.6056L27.1773 22.3454ZM20.5711 2.11528L12.8653 9.10099L15.5898 11.5709L26.0201 2.11528H20.5711ZM26.5385 1.91528H20.494L12.5675 9.10099L15.5898 11.8408L26.5385 1.91528ZM11.7273 8.06932L18.2951 2.11528H12.8461L9.0028 5.59944L11.7273 8.06932ZM11.7273 8.33927L18.8135 1.91528H12.769L8.70502 5.59944L11.7273 8.33927ZM28.2961 2.11528L16.7278 12.6025L19.4523 15.0724L33.7451 2.11528H28.2961ZM34.2635 1.91528H28.219L16.43 12.6025L19.4523 15.3424L34.2635 1.91528ZM35.1037 2.67754L20.2925 16.1041L23.3148 18.8439L35.1037 8.15665V2.67754ZM23.3148 18.574L34.9037 8.06801V3.12878L20.5903 16.1041L23.3148 18.574Z" fill="#A4947E"/>
</svg>
