<svg width="45" height="39" viewBox="0 0 45 39" fill="none" xmlns="http://www.w3.org/2000/svg">
<path d="M43.7771 36.5996H41.6573V28.1201C41.6573 27.9327 41.5828 27.7529 41.4503 27.6204C41.3178 27.4879 41.138 27.4135 40.9506 27.4135H38.1241C38.3115 27.4135 38.4913 27.339 38.6238 27.2065C38.7563 27.074 38.8307 26.8942 38.8307 26.7068C38.8307 26.5194 38.7563 26.3397 38.6238 26.2072C38.4913 26.0747 38.3115 26.0002 38.1241 26.0002H36.7109V24.587H39.5374C39.6361 24.587 39.7338 24.5663 39.8241 24.5262C39.9143 24.4861 39.9952 24.4276 40.0614 24.3544C40.1277 24.2811 40.1778 24.1948 40.2087 24.101C40.2395 24.0072 40.2503 23.9079 40.2405 23.8097L39.5338 16.7434C39.5163 16.5691 39.4347 16.4075 39.3048 16.29C39.1749 16.1725 39.0059 16.1074 38.8307 16.1074H33.1777C33.0025 16.1074 32.8336 16.1725 32.7037 16.29C32.5738 16.4075 32.4921 16.5691 32.4746 16.7434L31.768 23.8097C31.7581 23.9079 31.769 24.0072 31.7998 24.101C31.8306 24.1948 31.8808 24.2811 31.947 24.3544C32.0133 24.4276 32.0942 24.4861 32.1844 24.5262C32.2747 24.5663 32.3723 24.587 32.4711 24.587H35.2976V26.0002H33.8843C33.6969 26.0002 33.5172 26.0747 33.3847 26.2072C33.2522 26.3397 33.1777 26.5194 33.1777 26.7068C33.1777 26.8942 33.2522 27.074 33.3847 27.2065C33.5172 27.339 33.6969 27.4135 33.8843 27.4135H31.7645C31.5771 27.4135 31.3973 27.4879 31.2648 27.6204C31.1323 27.7529 31.0578 27.9327 31.0578 28.1201V36.5996H29.6446V31.6532C29.832 31.6532 30.0117 31.5788 30.1442 31.4463C30.2768 31.3137 30.3512 31.134 30.3512 30.9466V30.24C30.3508 29.7442 30.22 29.2572 29.9719 28.8279C29.7239 28.3986 29.3673 28.0421 28.938 27.7942V21.7604C28.937 21.0111 28.6389 20.2927 28.109 19.7629C27.5791 19.233 26.8608 18.9349 26.1114 18.9339H7.73913C6.98979 18.9349 6.27143 19.233 5.74157 19.7629C5.21171 20.2927 4.9136 21.0111 4.91262 21.7604V27.7942C4.48329 28.0421 4.12672 28.3986 3.87866 28.8279C3.63061 29.2572 3.4998 29.7442 3.49936 30.24V30.9466C3.49936 31.134 3.57381 31.3137 3.70633 31.4463C3.83885 31.5788 4.01858 31.6532 4.20599 31.6532V36.5996H1.37948C1.19207 36.5996 1.01234 36.6741 0.879818 36.8066C0.7473 36.9391 0.672852 37.1188 0.672852 37.3063C0.672852 37.4937 0.7473 37.6734 0.879818 37.8059C1.01234 37.9384 1.19207 38.0129 1.37948 38.0129H43.7771C43.9645 38.0129 44.1443 37.9384 44.2768 37.8059C44.4093 37.6734 44.4838 37.4937 44.4838 37.3063C44.4838 37.1188 44.4093 36.9391 44.2768 36.8066C44.1443 36.6741 43.9645 36.5996 43.7771 36.5996ZM6.32587 21.7604C6.32636 21.3858 6.47542 21.0266 6.74035 20.7617C7.00528 20.4967 7.36446 20.3477 7.73913 20.3472H26.1114C26.4861 20.3477 26.8453 20.4967 27.1102 20.7617C27.3752 21.0266 27.5242 21.3858 27.5247 21.7604V27.4135H24.5763C24.6897 27.0938 24.7247 26.7515 24.6783 26.4155C24.6319 26.0795 24.5055 25.7595 24.3097 25.4825C24.1139 25.2055 23.8544 24.9796 23.5531 24.8238C23.2518 24.6679 22.9175 24.5867 22.5783 24.587H19.7518C19.4126 24.5867 19.0783 24.6679 18.777 24.8238C18.4757 24.9796 18.2162 25.2055 18.0204 25.4825C17.8246 25.7595 17.6982 26.0795 17.6518 26.4155C17.6054 26.7515 17.6404 27.0938 17.7538 27.4135H16.0968C16.2102 27.0938 16.2452 26.7515 16.1988 26.4155C16.1524 26.0795 16.0259 25.7595 15.8301 25.4825C15.6343 25.2055 15.3749 24.9796 15.0736 24.8238C14.7723 24.6679 14.438 24.5867 14.0988 24.587H11.2723C10.9331 24.5867 10.5987 24.6679 10.2975 24.8238C9.99616 24.9796 9.7367 25.2055 9.5409 25.4825C9.3451 25.7595 9.21869 26.0795 9.17229 26.4155C9.12589 26.7515 9.16087 27.0938 9.27428 27.4135H6.32587V21.7604ZM23.2849 26.7068C23.2847 26.8942 23.2101 27.0737 23.0777 27.2062C22.9452 27.3387 22.7656 27.4132 22.5783 27.4135H19.7518C19.5644 27.4135 19.3847 27.339 19.2521 27.2065C19.1196 27.074 19.0452 26.8942 19.0452 26.7068C19.0452 26.5194 19.1196 26.3397 19.2521 26.2072C19.3847 26.0747 19.5644 26.0002 19.7518 26.0002H22.5783C22.7656 26.0005 22.9452 26.075 23.0777 26.2075C23.2101 26.3399 23.2847 26.5195 23.2849 26.7068ZM14.8054 26.7068C14.8051 26.8942 14.7306 27.0737 14.5982 27.2062C14.4657 27.3387 14.2861 27.4132 14.0988 27.4135H11.2723C11.0849 27.4135 10.9051 27.339 10.7726 27.2065C10.6401 27.074 10.5656 26.8942 10.5656 26.7068C10.5656 26.5194 10.6401 26.3397 10.7726 26.2072C10.9051 26.0747 11.0849 26.0002 11.2723 26.0002H14.0988C14.2861 26.0005 14.4657 26.075 14.5982 26.2075C14.7306 26.3399 14.8051 26.5195 14.8054 26.7068ZM28.2313 36.5996H5.61924V35.893H28.2313V36.5996ZM28.2313 34.4797H5.61924V31.6532H28.2313V34.4797ZM4.91262 30.24C4.91311 29.8653 5.06216 29.5061 5.32709 29.2412C5.59202 28.9763 5.9512 28.8272 6.32587 28.8267H27.5247C27.8994 28.8272 28.2586 28.9763 28.5235 29.2412C28.7884 29.5061 28.9375 29.8653 28.938 30.24H4.91262ZM33.2519 23.1737L33.8172 17.5207H38.1912L38.7565 23.1737H33.2519ZM40.244 36.5996H32.4711V31.6532H40.244V36.5996ZM40.244 30.24H32.4711V28.8267H40.244V30.24Z" fill="#A4947E"/>
<path d="M26.1115 0.561523H7.73916C7.55175 0.561523 7.37202 0.635972 7.2395 0.76849C7.10698 0.901008 7.03253 1.08074 7.03253 1.26815V13.9875C7.03253 14.1749 7.10698 14.3546 7.2395 14.4871C7.37202 14.6196 7.55175 14.6941 7.73916 14.6941H26.1115C26.2989 14.6941 26.4786 14.6196 26.6111 14.4871C26.7437 14.3546 26.8181 14.1749 26.8181 13.9875V1.26815C26.8181 1.08074 26.7437 0.901008 26.6111 0.76849C26.4786 0.635972 26.2989 0.561523 26.1115 0.561523ZM9.27784 13.2808L12.6069 9.40762L16.0562 13.2808H9.27784ZM25.4049 13.2808H17.949L15.2197 10.2167C15.2312 10.2061 15.2427 10.1973 15.2533 10.1867L20.3039 5.1705L25.4049 10.3121V13.2808ZM25.4049 8.30528L20.8091 3.67334C20.6771 3.54021 20.4976 3.46492 20.3101 3.464C20.1227 3.46415 19.9429 3.53772 19.8092 3.66892L14.2799 9.16118L13.1245 7.86452C13.057 7.79014 12.9746 7.73067 12.8828 7.68991C12.7909 7.64915 12.6915 7.628 12.591 7.6278C12.4903 7.62878 12.3908 7.65128 12.2994 7.69378C12.208 7.73628 12.1268 7.7978 12.0611 7.87424L8.44579 12.0813V1.97478H25.4049V8.30528Z" fill="#A4947E"/>
<path d="M12.6856 6.92116C13.1048 6.92116 13.5147 6.79683 13.8633 6.5639C14.2119 6.33096 14.4836 5.99988 14.6441 5.61252C14.8045 5.22516 14.8465 4.79893 14.7647 4.38771C14.6829 3.97649 14.481 3.59877 14.1845 3.3023C13.8881 3.00583 13.5103 2.80393 13.0991 2.72213C12.6879 2.64033 12.2617 2.68232 11.8743 2.84276C11.487 3.00321 11.1559 3.27492 10.9229 3.62354C10.69 3.97215 10.5657 4.38201 10.5657 4.80128C10.5663 5.36331 10.7899 5.90213 11.1873 6.29954C11.5847 6.69695 12.1235 6.92051 12.6856 6.92116ZM12.6856 4.09465C12.8253 4.09465 12.9619 4.1361 13.0781 4.21374C13.1943 4.29139 13.2849 4.40175 13.3384 4.53086C13.3919 4.65998 13.4059 4.80206 13.3786 4.93914C13.3513 5.07621 13.284 5.20212 13.1852 5.30094C13.0864 5.39976 12.9605 5.46706 12.8234 5.49433C12.6863 5.52159 12.5443 5.5076 12.4151 5.45412C12.286 5.40063 12.1757 5.31006 12.098 5.19386C12.0204 5.07766 11.9789 4.94104 11.9789 4.80128C11.9791 4.61393 12.0537 4.43432 12.1861 4.30185C12.3186 4.16938 12.4982 4.09486 12.6856 4.09465Z" fill="#A4947E"/>
</svg>
