<svg width="9" height="9" viewBox="0 0 9 9" fill="none" xmlns="http://www.w3.org/2000/svg">
<path d="M0.166336 3.86566L0.459184 3.57078C0.551349 3.47868 0.673968 3.42795 0.805019 3.42795C0.935997 3.42795 1.05876 3.47868 1.15093 3.57078L4.49153 6.91152L7.83598 3.56707C7.928 3.47498 8.05077 3.42432 8.18175 3.42432C8.31272 3.42432 8.43556 3.47498 8.52765 3.56707L8.82057 3.86014C9.0113 4.05072 9.0113 4.36115 8.82057 4.55173L4.8386 8.54803C4.74658 8.64005 4.62396 8.70488 4.49182 8.70488H4.49029C4.35924 8.70488 4.23662 8.63997 4.1446 8.54803L0.166336 4.56256C0.074172 4.47054 0.0235825 4.34422 0.0234375 4.21324C0.0234375 4.08219 0.074172 3.95761 0.166336 3.86566Z" fill="#6B92A8"/>
<path d="M1.61463 0.37151L1.80947 0.175322C1.87078 0.114053 1.95236 0.0802988 2.03955 0.0802988C2.12669 0.0802988 2.20837 0.114053 2.26969 0.175322L4.49221 2.39794L6.7173 0.172856C6.77852 0.111586 6.8602 0.0778809 6.94734 0.0778809C7.03448 0.0778809 7.11621 0.111586 7.17747 0.172856L7.37236 0.367834C7.49925 0.494628 7.49925 0.701165 7.37236 0.827959L4.72312 3.48672C4.6619 3.54794 4.58032 3.59108 4.49241 3.59108H4.49139C4.4042 3.59108 4.32262 3.54789 4.2614 3.48672L1.61463 0.835164C1.55332 0.773943 1.51966 0.689897 1.51956 0.602757C1.51956 0.515567 1.55332 0.432682 1.61463 0.37151Z" fill="#6B92A8"/>
</svg>
