<svg width="9" height="14" viewBox="0 0 9 14" fill="none" xmlns="http://www.w3.org/2000/svg">
<path d="M0.943025 6.45148L6.72819 0.666422C6.86199 0.532512 7.04061 0.45874 7.23106 0.45874C7.42152 0.45874 7.60013 0.532512 7.73394 0.666422L8.15998 1.09235C8.4372 1.3699 8.4372 1.82098 8.15998 2.0981L3.30203 6.95605L8.16537 11.8194C8.29917 11.9533 8.37305 12.1318 8.37305 12.3221C8.37305 12.5127 8.29917 12.6912 8.16537 12.8252L7.73933 13.2511C7.60542 13.385 7.42691 13.4587 7.23645 13.4587C7.046 13.4587 6.86738 13.385 6.73358 13.2511L0.943025 7.46072C0.808904 7.32638 0.735239 7.14703 0.735662 6.95636C0.735239 6.76496 0.808904 6.58571 0.943025 6.45148Z" fill="#6B92A8"/>
</svg>
