<svg width="13" height="13" viewBox="0 0 13 13" fill="none" xmlns="http://www.w3.org/2000/svg">
<path d="M12.35 0.65H11.9167V0.216658C11.9167 0.0969922 11.8197 0 11.7 0C11.5803 0 11.4833 0.0969922 11.4833 0.216658V0.65H10.1833V0.216658C10.1833 0.0969922 10.0863 0 9.96668 0C9.84702 0 9.75 0.0969922 9.75 0.216658V0.65H8.45V0.216658C8.45 0.0969922 8.35301 0 8.23334 0C8.11368 0 8.01668 0.0969922 8.01668 0.216658V0.65H6.71668V0.216658C6.71666 0.0969922 6.61967 0 6.5 0C6.38033 0 6.28334 0.0969922 6.28334 0.216658V0.65H4.98334V0.216658C4.98334 0.0969922 4.88635 0 4.76668 0C4.64702 0 4.55 0.0969922 4.55 0.216658V0.65H3.25V0.216658C3.25 0.0969922 3.15301 0 3.03334 0C2.91368 0 2.81668 0.0969922 2.81668 0.216658V0.65H1.51668V0.216658C1.51666 0.0969922 1.41967 0 1.3 0C1.18033 0 1.08334 0.0969922 1.08334 0.216658V0.65H0.65C0.291002 0.65 0 0.941027 0 1.3V12.35C0 12.709 0.291002 13 0.65 13H12.35C12.709 13 13 12.709 13 12.35V1.3C13 0.941027 12.709 0.65 12.35 0.65ZM12.5667 12.35C12.5667 12.4697 12.4697 12.5667 12.35 12.5667H0.65C0.530334 12.5667 0.433342 12.4697 0.433342 12.35V3.03334H10.8333C10.953 3.03334 11.05 2.93635 11.05 2.81668C11.05 2.69702 10.953 2.60003 10.8333 2.60003H0.433342V1.3C0.433342 1.18033 0.530334 1.08334 0.65 1.08334H12.35C12.4697 1.08334 12.5667 1.18033 12.5667 1.3V12.35Z" fill="#A4947E"/>
<path d="M1.14616 1.5795C1.08365 1.64148 1.06488 1.73512 1.09863 1.81642C1.13237 1.89772 1.21197 1.9505 1.3 1.95C1.38803 1.9505 1.46761 1.89772 1.50137 1.81642C1.53514 1.73512 1.51636 1.64148 1.45384 1.5795C1.36696 1.49934 1.23305 1.49934 1.14616 1.5795Z" fill="#A4947E"/>
<path d="M2.8795 1.57951C2.79541 1.66432 2.79576 1.80117 2.88034 1.8855C2.96491 1.96982 3.10177 1.96982 3.18632 1.8855C3.2709 1.80117 3.27125 1.66429 3.18716 1.57951C3.10007 1.49986 2.96659 1.49986 2.8795 1.57951Z" fill="#A4947E"/>
<path d="M4.61285 1.57951C4.52876 1.66432 4.52911 1.80117 4.61369 1.8855C4.69827 1.96982 4.83512 1.96982 4.9197 1.8855C5.00428 1.80117 5.00463 1.66429 4.92054 1.57951C4.83342 1.49986 4.69994 1.49986 4.61285 1.57951Z" fill="#A4947E"/>
<path d="M6.34616 1.57951C6.26206 1.66432 6.26242 1.80117 6.347 1.8855C6.43157 1.96982 6.56843 1.96982 6.65298 1.8855C6.73753 1.80117 6.73791 1.66429 6.65382 1.57951C6.56675 1.49986 6.43325 1.49986 6.34616 1.57951Z" fill="#A4947E"/>
<path d="M8.0795 1.57951C7.9954 1.66432 7.99576 1.80117 8.08033 1.8855C8.16491 1.96982 8.30176 1.96982 8.38631 1.8855C8.47086 1.80117 8.47124 1.66429 8.38715 1.57951C8.30006 1.49986 8.16658 1.49986 8.0795 1.57951Z" fill="#A4947E"/>
<path d="M9.81285 1.57951C9.72875 1.66432 9.72911 1.80117 9.81369 1.8855C9.89826 1.96982 10.0351 1.96982 10.1197 1.8855C10.2042 1.80117 10.2046 1.66429 10.1205 1.57951C10.0334 1.49986 9.89994 1.49986 9.81285 1.57951Z" fill="#A4947E"/>
<path d="M11.5462 1.57951C11.4621 1.66432 11.4624 1.80117 11.547 1.8855C11.6316 1.96982 11.7684 1.96982 11.853 1.8855C11.9375 1.80117 11.9379 1.66429 11.8538 1.57951C11.7668 1.49986 11.6332 1.49986 11.5462 1.57951Z" fill="#A4947E"/>
<path d="M11.2666 4.11667H1.73333C1.494 4.11667 1.29999 4.31068 1.29999 4.55001V11.05C1.29999 11.2893 1.494 11.4834 1.73333 11.4834H11.2667C11.506 11.4834 11.7 11.2893 11.7 11.05V4.55001C11.7 4.31068 11.506 4.11667 11.2666 4.11667ZM3.89999 11.05H1.73333V9.75001H3.89999V11.05ZM3.89999 9.31667H1.73333V8.01667H3.89999V9.31667ZM3.89999 7.58335H1.73333V6.28335H3.89999V7.58335ZM3.89999 5.85001H1.73333V4.55001H3.89999V5.85001ZM6.28333 11.05H4.33333V9.75001H6.28333V11.05ZM6.28333 9.31667H4.33333V8.01667H6.28333V9.31667ZM6.28333 7.58335H4.33333V6.28335H6.28333V7.58335ZM6.28333 5.85001H4.33333V4.55001H6.28333V5.85001ZM8.66665 11.05H6.71665V9.75001H8.66665V11.05ZM8.66665 9.31667H6.71665V8.01667H8.66665V9.31667ZM8.66665 7.58335H6.71665V6.28335H8.66665V7.58335ZM8.66665 5.85001H6.71665V4.55001H8.66665V5.85001ZM11.2666 11.05H9.09999V9.75001H11.2666V11.05ZM11.2666 9.31667H9.09999V8.01667H11.2666V9.31667ZM11.2666 7.58335H9.09999V6.28335H11.2666V7.58335ZM11.2666 5.85001H9.09999V4.55001H11.2666V5.85001Z" fill="#A4947E"/>
</svg>
