<svg width="15" height="16" viewBox="0 0 15 16" fill="none" xmlns="http://www.w3.org/2000/svg">
<path d="M13.3273 13.3488H1.68301V1.70449H10.0004V0.0410156H1.68301C0.768096 0.0410156 0.0195312 0.78958 0.0195312 1.70449V13.3488C0.0195312 14.2637 0.768096 15.0123 1.68301 15.0123H13.3273C14.2423 15.0123 14.9908 14.2637 14.9908 13.3488V6.69492H13.3273V13.3488Z" fill="#9FCFED"/>
<path d="M13.3274 1.70464L13.3273 13.3488H1.68301L1.68307 5.03159H0.0195963L0.0195312 13.3488C0.0195312 14.2637 0.768096 15.0123 1.68301 15.0123H13.3273C14.2423 15.0123 14.9908 14.2637 14.9908 13.3488L14.9909 1.70464C14.9909 0.789726 14.2423 0.0411609 13.3274 0.041161L6.6735 0.0411612V1.70464L13.3274 1.70464Z" fill="#9FCFED"/>
</svg>
