<svg width="20" height="37" viewBox="0 0 20 37" fill="none" xmlns="http://www.w3.org/2000/svg">
<path d="M1.82227 21.5625H5.49435V35.1425C5.49435 35.7462 5.98289 36.2362 6.5881 36.2362L12.4316 36.2377C13.0368 36.2377 13.5254 35.7462 13.5254 35.1439V21.5639H17.0064C17.5577 21.5639 18.0229 21.1527 18.0914 20.6058L18.8177 14.7725C18.8993 14.122 18.3904 13.5431 17.7327 13.5431H13.5254C13.6902 9.93955 12.891 8.8735 15.2346 8.8735C16.8212 8.68392 19.3237 9.48746 19.3237 7.77975V2.5633C19.3237 2.01642 18.9198 1.55413 18.3787 1.47975C17.9208 1.41705 16.111 1.23767 13.8666 1.23767C3.64373 1.23767 5.7481 12.5718 5.49581 13.5416H1.82227C1.21852 13.5416 0.728516 14.0316 0.728516 14.6354V20.4687C0.728516 21.0725 1.21852 21.5625 1.82227 21.5625ZM2.91602 15.7306H6.5881C7.19185 15.7306 7.68185 15.2406 7.68185 14.6368V10.0416C7.68185 5.83726 9.93497 3.42663 13.8652 3.42663C15.1456 3.42663 16.3239 3.48934 17.1348 3.5535V6.68746C16.5485 6.98642 11.3364 5.3983 11.3364 10.6206V14.6383C11.3364 15.242 11.8264 15.732 12.4302 15.732H16.4931L16.0381 19.3779H12.4302C11.8264 19.3779 11.3364 19.8679 11.3364 20.4716V34.0502H7.68331V20.4702C7.68331 19.8664 7.19331 19.3764 6.58956 19.3764H2.91602V15.7306Z" fill="#9FCFED"/>
<path fill-rule="evenodd" clip-rule="evenodd" d="M8.11771 2.83482C9.41529 1.7109 11.2621 0.987671 13.8666 0.987671C16.1219 0.987671 17.943 1.16775 18.4126 1.23207C19.0773 1.32343 19.5737 1.89133 19.5737 2.5633V7.77975C19.5737 8.2793 19.384 8.63425 19.0437 8.85435C18.7261 9.05979 18.3073 9.1271 17.8851 9.14569C17.5167 9.16191 17.1107 9.1415 16.7167 9.12169C16.6544 9.11856 16.5924 9.11544 16.5309 9.11248C16.0716 9.09042 15.6374 9.07715 15.2642 9.12174L15.2494 9.1235H15.2346C14.6554 9.1235 14.3263 9.19187 14.1318 9.31005C13.9604 9.41418 13.8602 9.57857 13.8099 9.89614C13.7574 10.2268 13.767 10.671 13.7823 11.287L13.7827 11.3037C13.7963 11.8482 13.8128 12.5073 13.7856 13.2931H17.7327C18.541 13.2931 19.166 14.004 19.0658 14.8033V14.8033L18.3395 20.6367C18.2553 21.3084 17.684 21.8139 17.0064 21.8139H13.7754V35.1439C13.7754 35.8839 13.1754 36.4877 12.4316 36.4877L6.5881 36.4862V36.4862C5.84463 36.4862 5.24435 35.8841 5.24435 35.1425V21.8125H1.82227C1.08044 21.8125 0.478516 21.2105 0.478516 20.4687V14.6354C0.478516 13.8936 1.08044 13.2916 1.82227 13.2916H5.26842C5.26874 13.2761 5.26896 13.2596 5.26909 13.2419C5.26999 13.1113 5.26549 12.9445 5.25877 12.7428C5.25682 12.6843 5.25469 12.6231 5.25247 12.5594C5.23949 12.1865 5.22348 11.7266 5.22259 11.2104C5.2205 10.002 5.30091 8.46957 5.70059 6.96192C6.10039 5.45379 6.82365 3.95568 8.11771 2.83482ZM5.76907 13.2454C5.76815 13.3792 5.7624 13.5099 5.73776 13.6046L5.68909 13.7916H1.82227C1.35659 13.7916 0.978516 14.1697 0.978516 14.6354V20.4687C0.978516 20.9344 1.35659 21.3125 1.82227 21.3125H5.74435V35.1425C5.74435 35.6084 6.12118 35.9862 6.5881 35.9862L12.4316 35.9877V35.9877C12.8983 35.9876 13.2754 35.6086 13.2754 35.1439V21.3139H17.0064C17.4314 21.3139 17.7904 20.9968 17.8433 20.5749M17.8433 20.5749L18.5696 14.7416C18.6326 14.2402 18.2397 13.7931 17.7327 13.7931H13.2637L13.2757 13.5317C13.3161 12.6471 13.2979 11.917 13.2828 11.313L13.2822 11.2886C13.2674 10.6961 13.2551 10.2018 13.316 9.81779C13.3794 9.41842 13.5292 9.09107 13.8722 8.88271C14.1894 8.69001 14.6345 8.62459 15.2198 8.62352C15.6363 8.57545 16.104 8.5914 16.5549 8.61306C16.6185 8.61612 16.6819 8.61929 16.7447 8.62244C17.1411 8.64228 17.5203 8.66126 17.8631 8.64617C18.265 8.62848 18.571 8.56463 18.7721 8.43451C18.9507 8.31906 19.0737 8.13406 19.0737 7.77975V2.5633C19.0737 2.14151 18.7621 1.78481 18.3447 1.72743C17.8983 1.66631 16.1 1.48767 13.8666 1.48767C11.3597 1.48767 9.63599 2.18121 8.44506 3.21276C7.25061 4.24735 6.5674 5.6434 6.18389 7.09004C5.80027 8.53715 5.72053 10.0201 5.72259 11.2096C5.72347 11.7168 5.73916 12.1679 5.75213 12.5408C5.75436 12.6049 5.75651 12.6668 5.75849 12.7262C5.76519 12.9272 5.77006 13.1034 5.76907 13.2454M9.48233 5.3282C8.48332 6.39697 7.93185 7.98223 7.93185 10.0416V14.6368C7.93185 15.3787 7.32992 15.9806 6.5881 15.9806H3.16602V19.1264H6.58956C7.33138 19.1264 7.93331 19.7283 7.93331 20.4702V33.8002H11.0864V20.4716C11.0864 19.7298 11.6884 19.1279 12.4302 19.1279H15.8174L16.21 15.982H12.4302C11.6884 15.982 11.0864 15.3801 11.0864 14.6383V10.6206C11.0864 9.27326 11.4232 8.33063 11.9689 7.68374C12.5136 7.03798 13.2409 6.71721 13.9637 6.56326C14.6843 6.40978 15.4171 6.41856 15.9925 6.444C16.1106 6.44922 16.2197 6.455 16.3207 6.46035C16.4722 6.46838 16.6054 6.47544 16.7231 6.47817C16.7855 6.47962 16.8392 6.47968 16.8848 6.47821V3.7853C16.0942 3.72809 15.0215 3.67663 13.8652 3.67663C11.9522 3.67663 10.4791 4.26186 9.48233 5.3282ZM9.11705 4.98677C10.2294 3.79672 11.848 3.17663 13.8652 3.17663C15.1532 3.17663 16.3382 3.23968 17.1545 3.30428L17.3848 3.32251V6.84061L17.2483 6.91018C17.167 6.95168 17.0721 6.96591 16.9945 6.9726C16.9106 6.97983 16.814 6.98042 16.7115 6.97803C16.5881 6.97517 16.4409 6.96741 16.2818 6.95902C16.1817 6.95374 16.0769 6.94822 15.9704 6.94351C15.4037 6.91845 14.7235 6.91264 14.0678 7.05229C13.4144 7.19147 12.802 7.47153 12.3511 8.00611C11.9011 8.53956 11.5864 9.35677 11.5864 10.6206V14.6383C11.5864 15.104 11.9645 15.482 12.4302 15.482H16.7762L16.2588 19.6279H12.4302C11.9645 19.6279 11.5864 20.006 11.5864 20.4716V34.3002H7.43331V20.4702C7.43331 20.0045 7.05524 19.6264 6.58956 19.6264H2.66602V15.4806H6.5881C7.05378 15.4806 7.43185 15.1025 7.43185 14.6368V10.0416C7.43185 7.89665 8.00694 6.17441 9.11705 4.98677Z" fill="#9FCFED"/>
</svg>
