<svg width="98" height="23" viewBox="0 0 98 23" fill="none" xmlns="http://www.w3.org/2000/svg">
<path d="M28.5006 10.8858C19.5663 21.192 0.251953 23 0.251953 23H55.6234L48.9991 0.728756C48.9991 0.728756 37.435 0.579679 28.5006 10.8858Z" fill="white"/>
<path d="M69.4977 10.8858C78.432 21.192 97.7463 23 97.7463 23H55.6234L48.9991 0.728756C48.9991 0.728756 60.5633 0.579679 69.4977 10.8858Z" fill="white"/>
<path d="M69.4974 10.8858C78.4318 21.192 97.7461 23 97.7461 23H42.3747L48.9989 0.728756C48.9989 0.728756 60.5631 0.579679 69.4974 10.8858Z" fill="white"/>
<path d="M28.5004 10.8858C19.566 21.192 0.251709 23 0.251709 23H42.3747L48.9989 0.728756C48.9989 0.728756 37.4347 0.579679 28.5004 10.8858Z" fill="white"/>
</svg>
