<svg width="36" height="36" viewBox="0 0 36 36" fill="none" xmlns="http://www.w3.org/2000/svg">
<path d="M35.8672 10.5278C35.7852 8.66808 35.4845 7.38956 35.0537 6.28171C34.6092 5.10576 33.9255 4.05292 33.0297 3.1777C32.1545 2.28885 31.0947 1.59818 29.9324 1.1607C28.8181 0.729901 27.5463 0.429168 25.6866 0.347174C23.813 0.258236 23.2182 0.237671 18.4663 0.237671C13.7144 0.237671 13.1196 0.258236 11.253 0.34023C9.39331 0.422224 8.11479 0.723224 7.0072 1.15376C5.83098 1.59818 4.77814 2.28191 3.90292 3.1777C3.01407 4.05292 2.32367 5.1127 1.88592 6.27504C1.45512 7.38956 1.15439 8.66114 1.07239 10.5208C0.983456 12.3944 0.962891 12.9892 0.962891 17.7411C0.962891 22.493 0.983456 23.0878 1.06545 24.9544C1.14744 26.8141 1.44844 28.0926 1.87925 29.2005C2.32367 30.3764 3.01407 31.4293 3.90292 32.3045C4.77814 33.1933 5.83792 33.884 7.00026 34.3215C8.11479 34.7523 9.38636 35.053 11.2463 35.135C13.1127 35.2173 13.7077 35.2376 18.4596 35.2376C23.2115 35.2376 23.8063 35.2173 25.673 35.135C27.5327 35.053 28.8112 34.7523 29.9188 34.3215C32.2709 33.4121 34.1306 31.5524 35.04 29.2005C35.4706 28.0859 35.7716 26.8141 35.8536 24.9544C35.9356 23.0878 35.9561 22.493 35.9561 17.7411C35.9561 12.9892 35.9492 12.3944 35.8672 10.5278ZM32.7154 24.8177C32.64 26.527 32.3529 27.45 32.1136 28.0654C31.5255 29.5901 30.3154 30.8003 28.7906 31.3884C28.1753 31.6277 27.2455 31.9148 25.5429 31.9899C23.6968 32.0721 23.1432 32.0924 18.4733 32.0924C13.8033 32.0924 13.2427 32.0721 11.4034 31.9899C9.69404 31.9148 8.77101 31.6277 8.15565 31.3884C7.39687 31.108 6.7062 30.6635 6.1456 30.0824C5.56443 29.5148 5.12001 28.8311 4.83957 28.0723C4.60027 27.457 4.31316 26.527 4.23811 24.8246C4.15585 22.9785 4.13555 22.4246 4.13555 17.7547C4.13555 13.0848 4.15585 12.5242 4.23811 10.6851C4.31316 8.97576 4.60027 8.05273 4.83957 7.43737C5.12001 6.67833 5.56443 5.98792 6.15254 5.42705C6.71982 4.84589 7.40355 4.40146 8.1626 4.1213C8.77795 3.88199 9.70793 3.59488 11.4103 3.51956C13.2564 3.43757 13.8103 3.417 18.4799 3.417C23.1568 3.417 23.7105 3.43757 25.5498 3.51956C27.2592 3.59488 28.1822 3.88199 28.7976 4.1213C29.5563 4.40146 30.247 4.84589 30.8076 5.42705C31.3888 5.9946 31.8332 6.67833 32.1136 7.43737C32.3529 8.05273 32.64 8.98244 32.7154 10.6851C32.7974 12.5311 32.8179 13.0848 32.8179 17.7547C32.8179 22.4246 32.7974 22.9716 32.7154 24.8177Z" fill="#9FCFED"/>
<path d="M18.4663 8.74997C13.5026 8.74997 9.47526 12.777 9.47526 17.741C9.47526 22.7049 13.5026 26.732 18.4663 26.732C23.4302 26.732 27.4573 22.7049 27.4573 17.741C27.4573 12.777 23.4302 8.74997 18.4663 8.74997ZM18.4663 23.5732C15.2461 23.5732 12.634 20.9614 12.634 17.741C12.634 14.5205 15.2461 11.9087 18.4663 11.9087C21.6867 11.9087 24.2985 14.5205 24.2985 17.741C24.2985 20.9614 21.6867 23.5732 18.4663 23.5732Z" fill="#9FCFED"/>
<path d="M29.9121 8.39462C29.9121 9.55376 28.9722 10.4936 27.8128 10.4936C26.6537 10.4936 25.7138 9.55376 25.7138 8.39462C25.7138 7.23522 26.6537 6.29563 27.8128 6.29563C28.9722 6.29563 29.9121 7.23522 29.9121 8.39462Z" fill="#9FCFED"/>
</svg>
