<svg width="28" height="28" viewBox="0 0 28 28" fill="none" xmlns="http://www.w3.org/2000/svg">
<path d="M9.51709 19.3756C10.6417 20.9612 11.7644 22.3793 12.5085 23.2927C12.6168 23.4256 12.7183 23.5489 12.8166 23.6677H10.5712C10.3198 23.6677 10.1161 23.8714 10.1161 24.1228C10.1161 24.3741 10.3198 24.5778 10.5712 24.5778H17.8528C18.1041 24.5778 18.3079 24.3741 18.3079 24.1228C18.3079 23.8714 18.1041 23.6677 17.8528 23.6677H15.6073C15.7056 23.5489 15.8071 23.4255 15.9159 23.2927C16.6595 22.3825 17.7818 20.9612 18.9068 19.3756C20.023 17.834 21.0277 16.2148 21.9133 14.5301C22.8426 12.7051 23.3141 11.1901 23.3141 10.0269C23.3172 7.6098 22.358 5.2909 20.6485 3.58212C20.5343 3.46372 20.3652 3.41615 20.206 3.45769C20.0469 3.49924 19.9225 3.6234 19.8807 3.78249C19.839 3.94158 19.8863 4.1108 20.0045 4.22515C21.5433 5.76348 22.4066 7.85097 22.4039 10.0268C22.4039 11.0454 21.9661 12.4216 21.1023 14.1169C20.2367 15.7624 19.2548 17.3442 18.1641 18.85C17.0546 20.4151 15.9455 21.8172 15.2105 22.7183C14.9661 23.0178 14.7463 23.2827 14.5588 23.5066C14.4713 23.6066 14.3449 23.6638 14.212 23.6638C14.0792 23.6638 13.9528 23.6065 13.8652 23.5066C13.6777 23.2827 13.4579 23.0178 13.2135 22.7183C12.4785 21.8177 11.3694 20.4155 10.2599 18.85C9.1692 17.3442 8.1873 15.7624 7.32176 14.1169C6.45708 12.4216 6.02018 11.0454 6.02018 10.0268C6.01991 6.7304 7.9913 3.75348 11.0264 2.46709C13.0657 1.61196 15.363 1.61196 17.4024 2.46709C17.5521 2.53056 17.7243 2.50939 17.8542 2.41141C17.9841 2.31349 18.0518 2.15371 18.0319 1.99227C18.012 1.83083 17.9075 1.69228 17.7578 1.62881C13.1233 -0.325938 7.78159 1.84545 5.82541 6.47931C5.35101 7.60175 5.10771 8.80829 5.11 10.0268C5.11 11.1901 5.58152 12.7051 6.51084 14.5324C7.39627 16.2162 8.401 17.8348 9.51709 19.3756Z" fill="#A4947E"/>
<path d="M14.2119 5.91848C14.4632 5.91848 14.667 5.71474 14.667 5.46339C14.667 5.21203 14.4632 5.0083 14.2119 5.0083C12.0407 5.00825 10.1718 6.54199 9.74819 8.67145C9.32457 10.8009 10.4642 12.9331 12.4701 13.764C14.476 14.5949 16.7895 13.8931 17.9958 12.0878C19.2021 10.2826 18.9651 7.87658 17.4299 6.3413C17.3156 6.223 17.1464 6.17554 16.9873 6.21719C16.8282 6.25884 16.7039 6.38311 16.6623 6.5422C16.6206 6.70135 16.6681 6.87052 16.7864 6.98481C18.0146 8.21301 18.2042 10.1377 17.2393 11.582C16.2743 13.0262 14.4235 13.5877 12.8188 12.9231C11.2141 12.2584 10.3023 10.5528 10.6411 8.84916C10.9799 7.14555 12.4749 5.91853 14.2119 5.91848Z" fill="#A4947E"/>
<path d="M27.6935 25.748L24.8946 20.7419C24.6415 20.2971 24.168 20.0237 23.6562 20.0269H20.4127C20.1614 20.0269 19.9576 20.2306 19.9576 20.482C19.9576 20.7333 20.1614 20.9371 20.4127 20.9371H23.6562C23.8384 20.9335 24.0084 21.0285 24.1009 21.1855L26.8989 26.1917C26.9751 26.3219 26.9735 26.4835 26.8948 26.6122C26.8018 26.7658 26.6337 26.8578 26.4542 26.8535H1.9696C1.79029 26.8577 1.6224 26.7657 1.5295 26.6122C1.45078 26.4835 1.44923 26.3219 1.52539 26.1917L4.32338 21.1855C4.4157 21.0286 4.58551 20.9336 4.76753 20.9371H8.01106C8.26242 20.9371 8.46615 20.7333 8.46615 20.482C8.46615 20.2306 8.26242 20.0269 8.01106 20.0269H4.76759C4.25559 20.0235 3.78168 20.2969 3.52835 20.7419L0.72988 25.748C0.49655 26.1602 0.501936 26.6658 0.744013 27.0729C0.99905 27.5064 1.46672 27.77 1.9696 27.7637H26.4542C26.9569 27.7698 27.4245 27.5063 27.6794 27.0729C27.9215 26.6657 27.9269 26.1602 27.6935 25.748Z" fill="#A4947E"/>
<path d="M22.8589 22.3025H21.0385C20.9487 22.3027 20.8608 22.3292 20.786 22.379L19.4206 23.2892C19.2115 23.4287 19.1551 23.7113 19.2946 23.9204C19.4341 24.1296 19.7167 24.186 19.9258 24.0465L21.1751 23.2128H22.8589C23.1103 23.2128 23.314 23.009 23.314 22.7577C23.314 22.5062 23.1103 22.3025 22.8589 22.3025Z" fill="#A4947E"/>
<path d="M20.1283 25.488C20.1283 25.7394 20.332 25.9431 20.5834 25.9431H24.2242C24.4756 25.9431 24.6793 25.7394 24.6793 25.488C24.6793 25.2367 24.4756 25.033 24.2242 25.033H20.5834C20.332 25.033 20.1283 25.2367 20.1283 25.488Z" fill="#A4947E"/>
<path d="M8.75067 24.1227C8.95131 24.123 9.12843 23.9918 9.18672 23.7998C9.24501 23.6078 9.17066 23.4003 9.00373 23.289L7.63842 22.3787C7.56343 22.3289 7.47538 22.3023 7.38535 22.3022H5.56495C5.31359 22.3022 5.10986 22.506 5.10986 22.7573C5.10986 23.0087 5.31365 23.2124 5.56495 23.2124H7.24882L8.49947 24.0462C8.57387 24.0959 8.66128 24.1225 8.75067 24.1227Z" fill="#A4947E"/>
<path d="M4.19959 25.033C3.94824 25.033 3.74451 25.2367 3.74451 25.488C3.74451 25.7394 3.94824 25.9431 4.19959 25.9431H7.84045C8.09181 25.9431 8.29554 25.7394 8.29554 25.488C8.29554 25.2367 8.09181 25.033 7.84045 25.033H4.19959Z" fill="#A4947E"/>
</svg>
