<svg width="15" height="15" viewBox="0 0 15 15" fill="none" xmlns="http://www.w3.org/2000/svg">
<path d="M11.4073 9.31547C11.1285 9.02512 10.7921 8.86988 10.4357 8.86988C10.0821 8.86988 9.74285 9.02225 9.4525 9.3126L8.54408 10.2181C8.46934 10.1779 8.3946 10.1405 8.32273 10.1031C8.21924 10.0514 8.1215 10.0025 8.03813 9.95079C7.18721 9.41034 6.4139 8.70602 5.67222 7.79473C5.31287 7.34052 5.0714 6.95818 4.89604 6.57009C5.13177 6.35449 5.35025 6.13026 5.56298 5.91465C5.64347 5.83416 5.72396 5.75079 5.80446 5.6703C6.40815 5.0666 6.40815 4.28467 5.80446 3.68098L5.01965 2.89617C4.93053 2.80705 4.83854 2.71506 4.7523 2.62307C4.57982 2.44484 4.39871 2.26085 4.21185 2.08837C3.933 1.81239 3.59953 1.66578 3.24881 1.66578C2.89809 1.66578 2.55887 1.81239 2.2714 2.08837C2.26852 2.09124 2.26852 2.09124 2.26565 2.09412L1.28824 3.08015C0.920269 3.44812 0.710413 3.89658 0.664417 4.41691C0.595423 5.25633 0.842651 6.03826 1.03238 6.54997C1.49809 7.80623 2.19378 8.9705 3.23156 10.2181C4.4907 11.7216 6.00569 12.9089 7.73628 13.7454C8.39747 14.0588 9.28002 14.4296 10.2661 14.4929C10.3264 14.4958 10.3897 14.4986 10.4472 14.4986C11.1112 14.4986 11.6689 14.26 12.1059 13.7857C12.1088 13.7799 12.1145 13.7771 12.1174 13.7713C12.2669 13.5902 12.4394 13.4264 12.6205 13.251C12.7441 13.1331 12.8706 13.0095 12.9942 12.8801C13.2788 12.5841 13.4283 12.2391 13.4283 11.8855C13.4283 11.529 13.2759 11.1869 12.9856 10.8995L11.4073 9.31547ZM12.4365 12.3426C12.4336 12.3454 12.4336 12.3426 12.4365 12.3426C12.3244 12.4633 12.2094 12.5726 12.0858 12.6933C11.8989 12.8715 11.7092 13.0584 11.5309 13.2682C11.2406 13.5787 10.8985 13.7253 10.45 13.7253C10.4069 13.7253 10.3609 13.7253 10.3178 13.7224C9.464 13.6678 8.67057 13.3344 8.0755 13.0498C6.4484 12.2621 5.01965 11.1438 3.83238 9.72656C2.8521 8.54504 2.19665 7.45264 1.76257 6.27974C1.49522 5.56393 1.39748 5.00623 1.4406 4.48015C1.46934 4.14381 1.59871 3.86496 1.83731 3.62636L2.8176 2.64607C2.95846 2.51383 3.10795 2.44196 3.25456 2.44196C3.43567 2.44196 3.58228 2.5512 3.67427 2.64319C3.67715 2.64607 3.68002 2.64894 3.6829 2.65182C3.85826 2.81568 4.02499 2.98529 4.20035 3.1664C4.28947 3.25839 4.38146 3.35038 4.47345 3.44525L5.25825 4.23005C5.56298 4.53477 5.56298 4.8165 5.25825 5.12122C5.17489 5.20459 5.09439 5.28796 5.01103 5.36845C4.76955 5.61568 4.53957 5.84566 4.28947 6.06989C4.28372 6.07564 4.27797 6.07851 4.27509 6.08426C4.02787 6.33149 4.07386 6.57297 4.12561 6.73683C4.12848 6.74545 4.13136 6.75407 4.13423 6.7627C4.33834 7.25715 4.62581 7.72286 5.06277 8.27769L5.06565 8.28056C5.85908 9.25798 6.69563 10.0198 7.61842 10.6034C7.73628 10.6781 7.85702 10.7385 7.97201 10.796C8.0755 10.8477 8.17324 10.8966 8.25661 10.9483C8.26811 10.9541 8.27961 10.9627 8.29111 10.9684C8.38885 11.0173 8.48084 11.0403 8.57571 11.0403C8.81431 11.0403 8.9638 10.8908 9.01267 10.842L9.99583 9.8588C10.0936 9.76105 10.2488 9.64319 10.4299 9.64319C10.6081 9.64319 10.7548 9.75531 10.8439 9.85305C10.8468 9.85592 10.8468 9.85592 10.8496 9.8588L12.4336 11.4428C12.7297 11.736 12.7297 12.0379 12.4365 12.3426Z" fill="#A4947E"/>
<path d="M8.00373 4.11793C8.75691 4.24442 9.4411 4.60089 9.9873 5.14709C10.5335 5.69329 10.8871 6.37748 11.0165 7.13066C11.0481 7.32039 11.2119 7.45263 11.3988 7.45263C11.4218 7.45263 11.4419 7.44976 11.4649 7.44688C11.6776 7.41238 11.8185 7.21115 11.784 6.99842C11.6288 6.08713 11.1976 5.25633 10.5392 4.59801C9.88093 3.9397 9.05013 3.50849 8.13884 3.35325C7.92611 3.31875 7.72776 3.45961 7.69038 3.66947C7.65301 3.87933 7.791 4.08343 8.00373 4.11793Z" fill="#A4947E"/>
<path d="M14.2477 6.88631C13.9918 5.38569 13.2846 4.02019 12.198 2.93354C11.1113 1.84688 9.74583 1.1397 8.24521 0.883846C8.03536 0.846475 7.837 0.990212 7.79963 1.20007C7.76513 1.4128 7.90599 1.61116 8.11872 1.64853C9.45835 1.87563 10.6801 2.51095 11.6518 3.47974C12.6234 4.4514 13.2559 5.67317 13.483 7.0128C13.5146 7.20253 13.6785 7.33477 13.8653 7.33477C13.8883 7.33477 13.9085 7.33189 13.9315 7.32902C14.1413 7.2974 14.285 7.09616 14.2477 6.88631Z" fill="#A4947E"/>
</svg>
