<svg width="17" height="17" viewBox="0 0 17 17" fill="none" xmlns="http://www.w3.org/2000/svg">
<path d="M5.98279 6.54758L4.81836 7.71202L8.56118 11.4548L16.8786 3.13746L15.7141 1.97302L8.56118 9.12597L5.98279 6.54758Z" fill="#AD009F"/>
<path d="M10.8485 1.02402C10.1086 0.791804 9.32132 0.666626 8.50482 0.666626C4.18743 0.666626 0.6875 4.16656 0.6875 8.48395C0.6875 12.8013 4.18743 16.3013 8.50482 16.3013C12.8222 16.3013 16.3221 12.8013 16.3221 8.48395C16.3221 8.24333 16.3113 8.00524 16.29 7.77016H14.4803C14.5079 8.00424 14.5221 8.24243 14.5221 8.48395C14.5221 11.8072 11.8281 14.5013 8.50482 14.5013C5.18155 14.5013 2.4875 11.8072 2.4875 8.48395C2.4875 5.16067 5.18155 2.46663 8.50482 2.46663C9.33619 2.46663 10.1282 2.63523 10.8485 2.9401V1.02402Z" fill="#AD009F"/>
</svg>
