<svg width="13" height="13" viewBox="0 0 13 13" fill="none" xmlns="http://www.w3.org/2000/svg">
<path d="M8.81991 8.38122C9.41042 7.51227 9.76363 6.44493 9.76363 5.28785C9.76363 2.39135 7.57662 0.034668 4.88864 0.034668C2.20066 0.034668 0.0136719 2.39135 0.0136719 5.28785C0.0136719 8.18436 2.20069 10.541 4.88866 10.541C5.96244 10.541 6.95303 10.1604 7.75942 9.52406L10.9531 12.9655L12.0137 11.8227C12.0137 11.8227 8.81991 8.38122 8.81991 8.38122ZM4.88866 8.92466C3.02758 8.92466 1.51368 7.29331 1.51368 5.28785C1.51368 3.28239 3.02758 1.65104 4.88866 1.65104C6.74974 1.65104 8.26365 3.28239 8.26365 5.28785C8.26365 7.29331 6.74972 8.92466 4.88866 8.92466Z" fill="white"/>
</svg>
