<svg width="18" height="18" viewBox="0 0 18 18" fill="none" xmlns="http://www.w3.org/2000/svg">
<path d="M17.5884 6.58602C17.473 6.23084 17.1562 5.97858 16.7815 5.94499L11.6918 5.48529L9.67915 0.799577C9.53075 0.456175 9.19278 0.233887 8.81727 0.233887C8.44176 0.233887 8.10379 0.456175 7.95539 0.80038L5.94276 5.48529L0.852193 5.94499C0.478163 5.97938 0.162257 6.23084 0.046146 6.58602C-0.0699646 6.9412 0.0372662 7.33077 0.32021 7.57635L4.16747 10.9325L3.033 15.9032C2.94999 16.2687 3.0926 16.6465 3.39748 16.8657C3.56135 16.9835 3.75307 17.0435 3.94641 17.0435C4.11311 17.0435 4.27846 16.9988 4.42687 16.9104L8.81727 14.3004L13.2061 16.9104C13.5272 17.1026 13.9321 17.0851 14.2363 16.8657C14.5413 16.6459 14.6837 16.2679 14.6007 15.9032L13.4663 10.9325L17.3135 7.57702C17.5965 7.33077 17.7045 6.94187 17.5884 6.58602Z" fill="#F2C94C"/>
</svg>
