<svg width="13" height="15" viewBox="0 0 13 15" fill="none" xmlns="http://www.w3.org/2000/svg">
<path d="M6.51686 8.42152C6.53239 8.42152 6.54792 8.42152 6.56656 8.42152C6.57277 8.42152 6.57899 8.42152 6.5852 8.42152C6.59452 8.42152 6.60694 8.42152 6.61626 8.42152C7.52639 8.40703 8.26256 8.10841 8.80615 7.53728C10.0021 6.27905 9.80325 4.12208 9.78151 3.91624C9.70385 2.37099 8.92108 1.63171 8.27499 1.28671C7.79352 1.02869 7.23129 0.889526 6.60384 0.87793H6.58209C6.57899 0.87793 6.57277 0.87793 6.56967 0.87793H6.55103C6.20624 0.87793 5.52908 0.930114 4.87988 1.27511C4.22757 1.62011 3.43237 2.3594 3.35472 3.91624C3.33297 4.12208 3.13418 6.27905 4.33007 7.53728C4.87056 8.10841 5.60674 8.40703 6.51686 8.42152ZM4.18408 3.98872C4.18408 3.98002 4.18719 3.97132 4.18719 3.96553C4.28969 1.88683 5.87077 1.6636 6.54792 1.6636H6.56035C6.56656 1.6636 6.57588 1.6636 6.5852 1.6636C7.42388 1.68099 8.84964 1.9999 8.94593 3.96553C8.94593 3.97422 8.94593 3.98292 8.94904 3.98872C8.95215 4.00901 9.16958 5.98044 8.1818 7.01833C7.79042 7.43001 7.26857 7.63295 6.58209 7.63875C6.57588 7.63875 6.57277 7.63875 6.56656 7.63875C6.56035 7.63875 6.55724 7.63875 6.55103 7.63875C5.86766 7.63295 5.34271 7.43001 4.95443 7.01833C3.96975 5.98623 4.18098 4.00611 4.18408 3.98872Z" fill="#A4947E"/>
<path d="M12.95 11.9991C12.95 11.9962 12.95 11.9933 12.95 11.9904C12.95 11.9672 12.9469 11.944 12.9469 11.9179C12.9283 11.3439 12.8879 10.0016 11.5398 9.57248C11.5305 9.56958 11.5181 9.56669 11.5087 9.56379C10.1078 9.23038 8.943 8.4766 8.93057 8.46791C8.74109 8.34324 8.48017 8.38673 8.3466 8.56358C8.21303 8.74043 8.25963 8.98396 8.44911 9.10862C8.50191 9.14341 9.7382 9.94647 11.2851 10.3176C12.0089 10.5582 12.0896 11.2801 12.1114 11.9411C12.1114 11.9672 12.1114 11.9904 12.1145 12.0136C12.1176 12.2745 12.0989 12.6775 12.0492 12.9094C11.546 13.1761 9.57356 14.0981 6.57294 14.0981C3.58475 14.0981 1.59986 13.1732 1.09355 12.9065C1.04385 12.6746 1.0221 12.2716 1.02832 12.0107C1.02832 11.9875 1.03142 11.9643 1.03142 11.9382C1.05317 11.2772 1.13393 10.5553 1.85768 10.3147C3.40459 9.94358 4.64087 9.13761 4.69367 9.10572C4.88315 8.98106 4.92975 8.73753 4.79618 8.56068C4.66261 8.38383 4.40169 8.34034 4.21221 8.46501C4.19978 8.4737 3.04116 9.22748 1.63403 9.56089C1.62161 9.56379 1.61229 9.56668 1.60297 9.56958C0.254865 10.0016 0.214484 11.3439 0.195846 11.915C0.195846 11.9411 0.195846 11.9643 0.19274 11.9875C0.19274 11.9904 0.19274 11.9933 0.19274 11.9962C0.189634 12.1469 0.186528 12.921 0.351158 13.3095C0.38222 13.3849 0.438132 13.4487 0.512682 13.4921C0.605869 13.5501 2.83925 14.8779 6.57605 14.8779C10.3128 14.8779 12.5462 13.5472 12.6394 13.4921C12.7109 13.4487 12.7699 13.3849 12.8009 13.3095C12.9563 12.9239 12.9531 12.1498 12.95 11.9991Z" fill="#A4947E"/>
</svg>
