<svg width="127" height="104" viewBox="0 0 127 104" fill="none" xmlns="http://www.w3.org/2000/svg">
<g filter="url(#filter0_d)">
<path d="M100.075 27.8586C99.1962 24.5901 96.6192 22.0136 93.3512 21.1335C87.381 19.5 63.4995 19.5 63.4995 19.5C63.4995 19.5 39.619 19.5 33.6488 21.0716C30.4437 21.9508 27.8038 24.5906 26.9247 27.8586C25.3535 33.8284 25.3535 46.2089 25.3535 46.2089C25.3535 46.2089 25.3535 58.6519 26.9247 64.5592C27.8048 67.8272 30.3808 70.4037 33.6493 71.2838C39.6819 72.9178 63.5005 72.9178 63.5005 72.9178C63.5005 72.9178 87.381 72.9178 93.3512 71.3462C96.6197 70.4666 99.1962 67.8901 100.076 64.6221C101.647 58.6519 101.647 46.2718 101.647 46.2718C101.647 46.2718 101.71 33.8284 100.075 27.8586ZM55.8962 57.6465V34.7714L75.7548 46.2089L55.8962 57.6465Z" fill="#AD009F"/>
</g>
<path d="M77.1191 46.2089L54.6456 59.184L54.6456 33.2338L77.1191 46.2089Z" fill="white"/>
<defs>
<filter id="filter0_d" x="0.353516" y="0.5" width="126.294" height="103.418" filterUnits="userSpaceOnUse" color-interpolation-filters="sRGB">
<feFlood flood-opacity="0" result="BackgroundImageFix"/>
<feColorMatrix in="SourceAlpha" type="matrix" values="0 0 0 0 0 0 0 0 0 0 0 0 0 0 0 0 0 0 127 0"/>
<feOffset dy="6"/>
<feGaussianBlur stdDeviation="12.5"/>
<feColorMatrix type="matrix" values="0 0 0 0 0.678431 0 0 0 0 0 0 0 0 0 0.623529 0 0 0 0.5 0"/>
<feBlend mode="normal" in2="BackgroundImageFix" result="effect1_dropShadow"/>
<feBlend mode="normal" in="SourceGraphic" in2="effect1_dropShadow" result="shape"/>
</filter>
</defs>
</svg>
