<svg xmlns="http://www.w3.org/2000/svg" viewBox="0 0 236.4 55" fill="#fff">
	<g><path d="M227.7 29.6h-5.2v-9.1l-8.7-15.3h5.7l5.6 10.4 5.7-10.4h5.6l-8.7 15.3zm-35-9v9h-5.3V5.2h10.3c2.9 0 5.1.7 6.7 2a7.2 7.2 0 012.4 5.8c0 1.6-.4 3-1.2 4.2-.8 1.3-2 2.2-3.4 2.7l5.3 9.7h-6l-4.6-9zm0-11.4V17h4.5c1.4 0 2.4-.4 3.1-1 .8-.8 1.1-1.7 1.1-3 0-1.1-.4-2-1.1-2.8-.8-.7-1.8-1-3.1-1zm-30.8-4v15.3c0 1.6.5 2.8 1.4 3.7.9 1 2.2 1.4 3.8 1.4 1.7 0 3-.4 3.9-1.4 1-.9 1.4-2.2 1.4-3.7V5.2h5.2V21c0 2.7-1 4.9-2.8 6.5A11.1 11.1 0 01167 30c-3.1 0-5.7-.8-7.6-2.5a8.3 8.3 0 01-2.8-6.5V5.2zm-36.5 24.4l7.9-12.2v-.2l-7.9-12h6.2l5.3 8.8h.1l5.3-8.8h5.9L140 17.3v.1l8 12.2h-5.9l-5.4-8.5h-.2l-5.5 8.5zM101.2 5.2v15.3c0 1.6.4 2.8 1.3 3.7 1 1 2.3 1.4 4 1.4 1.6 0 2.8-.4 3.8-1.4.9-.9 1.3-2.2 1.3-3.7V5.2h5.3V21c0 2.7-1 4.9-2.9 6.5a11.1 11.1 0 01-7.6 2.5c-3.2 0-5.7-.8-7.6-2.5a8.3 8.3 0 01-2.9-6.5V5.2zM87.9 25.4v4.2H71.8V5.2H77v20.2zM236.4 47v2h-7.9V37.4h7.9v2H231v2.9h5V44h-5v3zm-24.1 2.2c-1.8 0-3.2-.5-4.2-1.6-1-1-1.5-2.6-1.5-4.4 0-1.9.5-3.4 1.5-4.4 1-1.1 2.4-1.7 4.2-1.7 1 0 1.8.2 2.5.6.8.3 1.4.9 2 1.5.4.7.6 1.5.7 2.3h-2.4a2.7 2.7 0 00-2.8-2.3c-1 0-1.7.3-2.3 1-.6.8-.8 1.7-.8 3 0 1.2.2 2.2.8 3 .5.6 1.3 1 2.3 1 .7 0 1.3-.2 1.8-.6.5-.4.8-1 1-1.6h2.4a4.4 4.4 0 01-1.6 3c-1 .8-2.2 1.2-3.6 1.2zm-24.5-.2h-2.4V37.4h2.1l5.6 7.6v-7.6h2.4v11.7h-2l-5.6-7.6zm-13.6-2v2h-8V37.4h8v2h-5.4v2.9h5V44h-5v3zm-29.3-9.7h4.6c1.8 0 3.2.5 4.2 1.6 1 1 1.5 2.4 1.5 4.2a6 6 0 01-1.5 4.4c-1 1-2.4 1.5-4.2 1.5H145zm2.5 2v7.7h1.8c1.2 0 2-.3 2.6-1 .6-.7.9-1.6.9-2.9 0-1.2-.3-2.1-1-2.8-.5-.6-1.4-1-2.5-1zm-13.9 9.7H131V37.4h2.5zm-23-3.3h2.3c0 .5.3.8.8 1.1.5.3 1 .5 1.7.5s1.2-.2 1.6-.4c.4-.3.6-.7.6-1.1a1 1 0 00-.4-1l-1.6-.5-1.5-.3c-2.2-.5-3.3-1.6-3.3-3.3 0-1 .4-2 1.3-2.6.8-.6 2-1 3.3-1 1.3 0 2.4.4 3.3 1 .8.6 1.2 1.5 1.2 2.5h-2.3c0-.4-.3-.8-.7-1.1-.4-.3-1-.4-1.5-.4-.7 0-1.2.1-1.5.4-.4.2-.6.6-.6 1s.2.6.5.9c.3.2.8.4 1.5.5l1.4.3c1.2.3 2 .7 2.6 1.2.6.5.8 1.2.8 2.1 0 1.1-.4 2-1.3 2.7-.8.7-2 1-3.5 1-1.4 0-2.6-.3-3.4-1a3.2 3.2 0 01-1.4-2.5zM99.5 47v2h-7.9V37.4h8v2h-5.5v2.9h5.1V44h-5v3zM74 44.8v4.3h-2.5V37.4h5c1.3 0 2.3.4 3 1 .9.7 1.2 1.6 1.2 2.8 0 .7-.2 1.4-.5 2-.4.6-1 1-1.6 1.3L81 49H78L76 44.8zm0-5.4V43H76a2 2 0 001.4-.5c.4-.4.6-.8.6-1.4 0-.6-.2-1-.6-1.3a2 2 0 00-1.5-.5z"/></g>
	<g><path d="M34.5 34.9l-1.9 5.9h3.9l-2-5.9zM31 46.2c2.2-.4 4.4-1.2 6.4-2.3L37 43H32zm3.8-29.3c-.7.9-1.1 2-1.1 3.6 0 1.5.4 2.7 1 3.6.8.9 1.8 1.3 3 1.3s2.1-.4 2.9-1.3c.7-1 1-2.1 1-3.6s-.3-2.7-1-3.6a3.5 3.5 0 00-3-1.4c-1.1 0-2.1.5-2.8 1.4zM14.2 29.6h9.6V32h-6.6v3.8h6v2.4h-6v5.1c3.2 2 6.8 3 10.5 3l5-14.3h3.7l3.5 10a18.6 18.6 0 006-20.5v-.1l-1.2-2.6v1.6c0 2.3-.6 4-1.8 5.4-1.3 1.4-3 2-5.2 2s-4-.6-5.2-2a7.6 7.6 0 01-2-5.4c0-2.3.7-4.1 2-5.5 1.2-1.3 3-2 5.2-2l2.4.3a19.4 19.4 0 00-19.3-3.1c.5.1.9.4 1.3.7 1 .8 1.5 1.8 1.6 3.2h-3c0-.6-.2-1.1-.7-1.5-.5-.3-1.2-.5-2-.5-.5 0-1 0-1.4.3l-.8.5c-.2.3-.3.6-.3 1s.2.8.6 1c.3.3 1 .6 1.8.7l1.8.4c1.5.3 2.5.8 3.2 1.4.7.7 1 1.6 1 2.7a4 4 0 01-1.6 3.3 7 7 0 01-4.3 1.2 7 7 0 01-4.3-1.1 4 4 0 01-1.6-3.2h3c0 .6.3 1 .9 1.4.6.4 1.3.5 2 .5.9 0 1.6-.1 2-.5.6-.3.8-.7.8-1.3 0-.4-.1-.8-.5-1.1a5 5 0 00-2-.7l-1.9-.4c-1.8-.4-3-1.2-3.6-2.3a18.4 18.4 0 00-4.2 13.5C9 34 11 38 14.2 41zm11.4-6.8h3v14.4h-3zm20.6-11a1 1 0 001.3 0l.4-.7-.1-.6a1 1 0 00-.5-.5 1 1 0 00-1.3.4 1 1 0 00.2 1.3zM8.4 12c.2 0 .5 0 .7-.2.2-.1.3-.3.4-.6v-.7A1 1 0 009 10a1 1 0 00-1.3.3 1 1 0 00.3 1.5l.4.2zm32.2-3.6l.2-1-1.2-.6-.7.6-1.2-.7 3.7-3.2 1.5.9L42 9zm1-3.6l-1.3 1.3.8.4.5-1.6zm-6.6 1l-1.3-.4L35 1l1.4.4zm-6-1l-1.4-.2.3-4.6 3.3.2v1h-2V2h1.7v1H29zm-9.2-3.1c.3-.5.8-.9 1.5-1 .8-.2 1.4-.1 1.9.2.5.3.8.9 1 1.6.2.7.1 1.3-.2 1.8-.3.5-.9.9-1.6 1-.7.2-1.3.1-1.8-.2-.5-.3-.9-.9-1-1.6-.2-.7-.1-1.3.2-1.8zm2.6.2a.8.8 0 00-.8-.2c-.3 0-.5.2-.6.5v1c0 .4.2.7.4.9.2.2.5.2.8.2a.8.8 0 00.6-.5v-1c0-.4-.2-.7-.4-.9zm-9 5.7l1-.6.5.1h.4l.4-.4v-.4a.3.3 0 00-.2-.1l-.6.1-.6.2c-.4.2-.7.2-1 .1-.4 0-.6-.2-.8-.6-.3-.4-.3-.8-.1-1.2.1-.4.5-.8 1-1 .5-.4 1-.5 1.4-.4.5 0 .8.3 1 .6l-1 .7a.4.4 0 00-.4-.2l-.5.1-.3.3a.3.3 0 000 .3.3.3 0 00.3.2l.5-.1.6-.3c.4-.1.8-.2 1 0 .4 0 .6.2.8.5.3.4.3.9.1 1.3-.1.4-.5.8-1 1-.6.4-1.1.5-1.5.5-.5 0-.8-.3-1-.7zm37.8 7.8l.8-.3 1.3 2.8-4.3 2-1.3-2.8.7-.4 1 2 1-.6-.9-1.7.7-.4.9 1.8 1-.5zm3.8 8.3a2 2 0 01-.4 1.7c-.3.4-.9.7-1.7.8-.7.1-1.3 0-1.8-.3a2 2 0 01-1-1.5l.1-1a1.8 1.8 0 011.4-1.3l.2 1c-.3 0-.5.2-.7.4a1 1 0 00-.1.8c0 .4.2.6.6.8.3.2.7.2 1.2.1a2 2 0 001.1-.5c.3-.2.4-.5.3-1a1 1 0 00-.3-.6c-.2-.2-.5-.2-.8-.3L53 22c.5 0 1 .1 1.3.4.4.4.6.8.7 1.4zm-.1 9.2l-.2 1-4.7-.7.2-.8 3.3-1.7-3-.5.1-1 4.7.7-.1.8-3.4 1.7zm-2.2 4.5l.8.4-1.3 2.8-4.3-2 1.3-2.8.7.4L49 38l1 .4 1-1.8.6.4-.8 1.8 1 .4zm-9 6.6l1.3-1.3c.4-.6 1-.9 1.5-.9.6 0 1.2.2 1.7.7.6.4 1 1 1 1.5 0 .6-.2 1.1-.6 1.7L47.4 47zm1.3-.2l2.4 2 .5-.6c.3-.3.4-.6.3-1 0-.3-.2-.7-.6-1-.4-.3-.8-.4-1.1-.4-.4 0-.7.1-1 .5zm-.8 5.8l-.8.6-2.8-3.8.8-.5zM36 52.4l1-.3.4.3.7-.1.5-.4v-.5a.4.4 0 00-.3-.3h-.6l-.6.2c-1 .1-1.5-.1-1.8-.7a1.2 1.2 0 01.1-1.2 2 2 0 011-.8 2 2 0 011.4-.2c.4.1.7.4.9.8l-.9.3a.6.6 0 00-.4-.3 1 1 0 00-.6 0 1 1 0 00-.5.5.5.5 0 000 .4.4.4 0 00.2.3h.7l.6-.2h1c.4.2.6.4.7.7.2.4.2.8 0 1.2-.2.4-.6.7-1.2 1-.5.1-1 .2-1.4 0-.4 0-.7-.3-.9-.7zm-3.4 1.4v.8l-3 .4-.6-4.6 3-.4.2.8-2.1.3.1 1 2-.2.1.8-2 .2.1 1.2zM23 53l-.3 1.7-1-.2.7-4.5 2 .2c.5.1.9.3 1.2.6.2.3.3.7.2 1.2 0 .2-.1.5-.3.7-.2.2-.4.4-.7.4l.7 2-1.1-.2-.6-1.8zm.3-2.1l-.2 1.4.8.1h.6c.2-.2.3-.3.3-.6l-.1-.5a.8.8 0 00-.6-.3zm-11-.3l-.7-.5 1-1.4.3-3.3.9.6-.3 2.2 2-1 1 .5-3.1 1.5zm-5.2-7l-1.3 1-.7-.7 3.7-3 1.2 1.6c.4.4.5.8.5 1.2 0 .3-.2.7-.5 1-.3.2-.5.3-.8.3l-.8-.1-.8 1.9-.8-.9.8-1.7zM8.9 42l-1.1 1 .5.6c.2.2.3.3.5.3s.4 0 .6-.2c.2-.1.3-.3.3-.5s0-.4-.2-.5zm-2.7-6.3l-2.7 1a1 1 0 00-.6.6c-.1.2-.1.5 0 .8.1.2.3.4.6.5h.7L7 37.6l.4.8-2.9 1.2c-.5.2-1 .2-1.4 0a2 2 0 01-1-1.1 2 2 0 010-1.5c0-.5.4-.8.9-1L5.8 35zM0 28.6l2.5 1.2 2.2-1.7.1 1.2-1.6 1.1 1.8.9.1 1-2.5-1.2-2.2 1.7v-1.1l1.5-1.2-1.8-.9zm5.5-6l-3-.5a1 1 0 00-.7.1 1 1 0 00-.4.7v.7c.2.2.5.4.8.4l2.9.6-.2 1-3-.7c-.5 0-1-.3-1.2-.7a2 2 0 01-.2-1.5c.1-.6.4-1 .8-1.3.4-.3.8-.4 1.3-.3l3 .6zm-2.4-5l-.8-.4 1.4-2.6 4.2 2-.4 1L4 15.7z"/></g></svg>