<?xml version="1.0" encoding="UTF-8" standalone="no"?>
<svg
   xmlns:dc="http://purl.org/dc/elements/1.1/"
   xmlns:cc="http://creativecommons.org/ns#"
   xmlns:rdf="http://www.w3.org/1999/02/22-rdf-syntax-ns#"
   xmlns:svg="http://www.w3.org/2000/svg"
   xmlns="http://www.w3.org/2000/svg"
   xmlns:sodipodi="http://sodipodi.sourceforge.net/DTD/sodipodi-0.dtd"
   xmlns:inkscape="http://www.inkscape.org/namespaces/inkscape"
   width="236.39899"
   height="55.000004"
   viewBox="0 0 236.39899 55.000004"
   fill="none"
   version="1.1"
   id="svg84"
   sodipodi:docname="logo.svg"
   inkscape:version="1.0 (1.0+r73+1)">
  <metadata
     id="metadata90">
    <rdf:RDF>
      <cc:Work
         rdf:about="">
        <dc:format>image/svg+xml</dc:format>
        <dc:type
           rdf:resource="http://purl.org/dc/dcmitype/StillImage" />
        <dc:title />
      </cc:Work>
    </rdf:RDF>
  </metadata>
  <defs
     id="defs88" />
  <sodipodi:namedview
     inkscape:document-rotation="0"
     pagecolor="#ffffff"
     bordercolor="#666666"
     borderopacity="1"
     objecttolerance="10"
     gridtolerance="10"
     guidetolerance="10"
     inkscape:pageopacity="0"
     inkscape:pageshadow="2"
     inkscape:window-width="1920"
     inkscape:window-height="1015"
     id="namedview86"
     showgrid="false"
     fit-margin-top="0"
     fit-margin-left="0"
     fit-margin-right="0"
     fit-margin-bottom="0"
     inkscape:zoom="6.2563025"
     inkscape:cx="118.08398"
     inkscape:cy="27.143005"
     inkscape:window-x="0"
     inkscape:window-y="0"
     inkscape:window-maximized="1"
     inkscape:current-layer="svg84" />
  <g
     id="g135"
     transform="translate(-0.916016,-0.856995)"
     style="fill:#333333">
    <path
       d="M 228.608,30.4517 H 223.38 V 21.3325 L 214.689,6.04208 h 5.695 l 5.592,10.42032 h 0.119 l 5.609,-10.42032 h 5.609 l -8.705,15.29232 z m -35.033,-8.931 v 8.931 h -5.229 V 6.04328 h 10.319 c 2.85,0 5.069,0.69086 6.655,2.07258 1.587,1.38172 2.38,3.28434 2.379,5.70784 0,1.5897 -0.4,3.0078 -1.202,4.2542 -0.802,1.2464 -1.913,2.1402 -3.333,2.6814 l 5.262,9.6924 h -5.918 l -4.657,-8.931 z m 0,-11.4863 v 7.7804 h 4.587 c 1.316,0 2.34,-0.3438 3.073,-1.0314 0.733,-0.6877 1.099,-1.6407 1.099,-2.8592 0,-1.1838 -0.381,-2.1281 -1.143,-2.8328 -0.762,-0.7047 -1.789,-1.0571 -3.081,-1.0574 z M 162.818,6.04208 V 21.3177 c 0,1.5897 0.459,2.8499 1.377,3.7804 0.917,0.9305 2.207,1.3962 3.868,1.397 1.65,0 2.935,-0.4657 3.852,-1.397 0.918,-0.9313 1.377,-2.1915 1.377,-3.7804 V 6.04208 h 5.228 V 21.8249 c 0,2.7065 -0.949,4.8915 -2.848,6.5549 -1.898,1.6635 -4.434,2.4952 -7.608,2.4952 -3.186,0 -5.727,-0.8317 -7.625,-2.4952 -1.898,-1.6634 -2.847,-3.8484 -2.848,-6.5549 V 6.04208 Z M 126.279,30.4517 134.208,18.2215 V 18.0864 L 126.331,6.04208 h 6.146 l 5.297,8.79632 h 0.138 l 5.35,-8.79632 h 5.834 l -8.171,12.14602 v 0.1164 l 8.067,12.146 h -5.957 l -5.468,-8.541 h -0.139 l -5.505,8.5422 z M 102.083,6.04208 V 21.3177 c 0,1.5897 0.459,2.8499 1.377,3.7804 0.917,0.9305 2.207,1.3962 3.868,1.397 1.651,0 2.935,-0.4657 3.852,-1.397 0.918,-0.9313 1.377,-2.1915 1.377,-3.7804 V 6.04208 h 5.228 V 21.8249 c 0,2.7065 -0.949,4.8915 -2.848,6.5549 -1.898,1.6635 -4.434,2.4952 -7.608,2.4952 -3.185,0 -5.727,-0.8317 -7.625,-2.4952 -1.898,-1.6634 -2.8473,-3.8484 -2.8478,-6.5549 V 6.04208 Z M 88.8628,26.2227 v 4.2297 H 72.7109 V 6.04403 h 5.2282 V 26.2227 Z M 237.315,47.9404 v 2.0178 h -7.902 V 38.302 h 7.902 v 2.012 h -5.407 v 2.8118 h 5.101 v 1.8743 h -5.101 v 2.9411 z m -24.142,2.2223 c -1.742,0 -3.118,-0.5373 -4.13,-1.612 -1.012,-1.0746 -1.517,-2.5492 -1.517,-4.4237 0,-1.8692 0.507,-3.341 1.521,-4.4157 1.015,-1.0746 2.39,-1.6119 4.126,-1.6119 0.949,0 1.81,0.183 2.585,0.549 0.751,0.3472 1.395,0.8828 1.866,1.5522 0.468,0.6678 0.733,1.4298 0.794,2.2861 h -2.431 c -0.116,-0.7161 -0.431,-1.2897 -0.947,-1.7207 -0.515,-0.431 -1.137,-0.6463 -1.866,-0.6461 -0.943,0 -1.695,0.3608 -2.257,1.0823 -0.562,0.7215 -0.843,1.6937 -0.844,2.9166 0,1.2444 0.278,2.226 0.834,2.9449 0.556,0.7189 1.314,1.0787 2.274,1.0792 0.738,0 1.358,-0.1993 1.86,-0.598 0.501,-0.3987 0.819,-0.9427 0.953,-1.6321 h 2.428 c -0.138,1.2979 -0.681,2.3306 -1.628,3.0982 -0.948,0.7675 -2.155,1.1514 -3.621,1.1517 z m -24.431,-0.2025 h -2.389 V 38.302 h 2.084 l 5.573,7.5949 h 0.066 V 38.302 h 2.389 V 49.9606 H 194.4 l -5.581,-7.6345 h -0.074 z m -13.641,-2.0198 v 2.0178 h -7.903 V 38.302 h 7.903 v 2.012 h -5.406 v 2.8118 h 5.101 v 1.8743 h -5.101 v 2.9411 z M 145.859,38.302 h 4.597 c 1.797,0 3.194,0.5037 4.192,1.511 0.997,1.0074 1.496,2.4317 1.496,4.2729 0,1.8474 -0.5,3.2881 -1.5,4.3221 -1.001,1.034 -2.397,1.5514 -4.188,1.5522 h -4.597 z m 2.497,2.012 v 7.6268 h 1.8 c 1.119,0 1.972,-0.3273 2.559,-0.9818 0.587,-0.6545 0.88,-1.6091 0.88,-2.8638 0,-1.2175 -0.297,-2.152 -0.892,-2.8037 -0.596,-0.6516 -1.444,-0.9776 -2.547,-0.9779 z m -13.931,9.6462 h -2.497 V 38.302 h 2.497 z M 111.342,46.64 h 2.405 c 0.056,0.4739 0.314,0.8576 0.774,1.151 0.46,0.2933 1.024,0.4403 1.691,0.4408 0.662,0 1.2,-0.1388 1.616,-0.4164 0.415,-0.2776 0.623,-0.6316 0.625,-1.0621 0,-0.3774 -0.155,-0.6818 -0.464,-0.9131 -0.309,-0.2312 -0.824,-0.4253 -1.546,-0.582 l -1.555,-0.331 c -2.188,-0.4577 -3.282,-1.5431 -3.282,-3.2562 0,-1.0666 0.426,-1.9283 1.278,-2.5852 0.851,-0.6568 1.947,-0.9854 3.287,-0.9856 1.376,0 2.476,0.3189 3.299,0.9569 0.822,0.638 1.244,1.4877 1.264,2.5491 h -2.339 c -0.039,-0.4915 -0.261,-0.878 -0.666,-1.1595 -0.405,-0.2815 -0.921,-0.4228 -1.548,-0.4241 -0.618,0 -1.115,0.132 -1.493,0.3962 -0.377,0.2641 -0.566,0.6114 -0.566,1.0419 0,0.3557 0.153,0.644 0.459,0.865 0.306,0.2209 0.803,0.4093 1.492,0.5653 l 1.447,0.2988 c 1.196,0.2474 2.067,0.6339 2.613,1.1595 0.546,0.5257 0.819,1.2328 0.818,2.1211 0,1.1308 -0.435,2.0289 -1.306,2.6943 -0.871,0.6653 -2.048,0.998 -3.531,0.998 -1.438,0 -2.583,-0.3138 -3.435,-0.9414 -0.852,-0.6276 -1.297,-1.488 -1.337,-2.5813 z m -10.805,1.3004 v 2.0178 H 92.6343 V 38.302 h 7.9027 v 2.012 h -5.4072 v 2.8118 h 5.1012 v 1.8743 h -5.1012 v 2.9411 z M 74.7999,45.6947 v 4.2655 H 72.3027 V 38.302 h 4.9276 c 1.3616,0 2.4214,0.3298 3.1793,0.9895 0.758,0.6597 1.137,1.5686 1.137,2.7268 0,0.7598 -0.1915,1.4372 -0.5746,2.0323 -0.3722,0.5862 -0.9318,1.0363 -1.5921,1.2805 l 2.5138,4.6291 h -2.8279 l -2.2239,-4.2655 z m 0,-5.4862 v 3.7163 h 2.1913 c 0.628,0 1.117,-0.1642 1.467,-0.4928 0.35,-0.3285 0.525,-0.7836 0.525,-1.3652 0,-0.566 -0.1819,-1.017 -0.5457,-1.3531 -0.3638,-0.336 -0.8543,-0.5042 -1.4717,-0.5045 z"
       style="fill:#333333"
       id="path30" />
  </g>
  <g
     id="g118"
     transform="translate(-0.916016,-0.856995)"
     style="fill:#333333">
    <path
       d="m 35.4202,35.7533 -1.8911,5.9034 h 3.8536 l -1.8911,-5.9034 z m -3.552,11.2581 c 2.2692,-0.3818 4.4489,-1.1621 6.4334,-2.3031 L 38.0471,43.914 h -5.1825 z m 3.8291,-29.2882 c -0.7193,0.8925 -1.0789,2.0946 -1.0786,3.6062 0,1.5051 0.3574,2.7021 1.0722,3.591 0.7149,0.8889 1.6792,1.3333 2.8931,1.3333 1.2062,0 2.1671,-0.4444 2.8827,-1.3333 0.7156,-0.8889 1.0731,-2.0859 1.0723,-3.591 0,-1.5119 -0.3575,-2.7139 -1.0723,-3.6062 -0.7148,-0.8923 -1.6757,-1.3384 -2.8827,-1.3384 -1.2051,0 -2.1674,0.4461 -2.8867,1.3384 z M 15.0778,30.4265 h 9.6597 v 2.487 h -6.5728 v 3.8657 h 6.0001 v 2.3873 h -6.0001 v 5.0905 c 3.1046,1.9785 6.7319,3.0303 10.4384,3.0268 h 0.0131 l 5.076,-14.2873 h 3.6289 l 3.5432,9.952 c 4.2365,-3.444 6.9385,-8.6318 6.9385,-14.4254 1e-4,-2.0495 -0.345,-4.085 -1.0214,-6.0249 v -0.0039 c -0.0096,-0.0563 -0.0289,-0.1106 -0.0572,-0.1606 -0.3129,-0.8686 -0.6912,-1.7134 -1.1318,-2.5274 0.0712,0.5047 0.1064,1.0136 0.1053,1.5231 0,2.291 -0.6406,4.1056 -1.9217,5.4436 -1.2811,1.338 -3.0115,2.0072 -5.1912,2.0077 -2.1874,0 -3.92,-0.6692 -5.198,-2.0077 -1.2779,-1.3386 -1.9168,-3.1531 -1.9165,-5.4436 0,-2.2975 0.6389,-4.1154 1.9165,-5.4537 1.2777,-1.3382 3.0104,-2.0075 5.198,-2.0078 0.866,0 1.6602,0.1055 2.3827,0.3163 -2.6282,-2.1695 -5.8056,-3.6077 -9.1987,-4.1638 -3.3931,-0.55606 -6.8768,-0.20943 -10.0856,1.0035 0.483,0.1774 0.9354,0.4261 1.3415,0.7373 1.0155,0.7893 1.5368,1.8398 1.5638,3.1514 h -2.8926 c -0.0477,-0.6054 -0.3219,-1.0831 -0.8229,-1.4331 -0.5009,-0.35 -1.1398,-0.5244 -1.9169,-0.5231 -0.5708,0 -1.0584,0.0912 -1.463,0.2736 -0.2499,0.1738 -0.4953,0.3532 -0.7362,0.5382 -0.2296,0.2713 -0.3523,0.6139 -0.3459,0.9659 0,0.4398 0.189,0.796 0.5671,1.0687 0.378,0.2726 0.993,0.5055 1.845,0.6985 l 1.787,0.3694 c 1.4787,0.3065 2.5554,0.7844 3.2303,1.4334 0.6748,0.6491 1.0129,1.5234 1.0142,2.6229 0,1.3985 -0.5384,2.509 -1.6151,3.3314 -1.0767,0.8224 -2.5317,1.2336 -4.3648,1.2336 -1.7788,0 -3.1952,-0.388 -4.2492,-1.1641 -1.054,-0.7761 -1.6043,-1.8401 -1.6509,-3.1918 h 2.9745 c 0.068,0.586 0.3867,1.0606 0.9559,1.4238 0.5692,0.3632 1.266,0.5443 2.0904,0.5433 0.8176,0 1.4837,-0.1716 1.9984,-0.5146 0.5146,-0.343 0.7718,-0.7809 0.7716,-1.3135 0,-0.4657 -0.1908,-0.8419 -0.5723,-1.1285 C 20.8116,19.86 20.175,19.6208 19.2834,19.4291 l -1.9217,-0.4113 c -1.8747,-0.392 -3.0994,-1.1569 -3.6742,-2.295 -2.7757,3.335 -4.28875,7.5036 -4.2838,11.8022 0,0.5662 0.03018,1.1254 0.07942,1.6795 -0.00111,0.0193 -0.00111,0.0386 0,0.0578 0,0.0058 0.00318,0.0117 0.00397,0.0171 0.43208,4.4932 2.48961,8.529 5.59071,11.5414 z m 11.411,-6.7909 h 3.0872 v 14.413 H 26.4888 Z M 47.1369,12.5839 c 0.1847,0.1486 0.4164,0.2301 0.6556,0.2307 0.2393,6e-4 0.4714,-0.0799 0.6568,-0.2277 0.1854,-0.1477 0.3128,-0.3537 0.3603,-0.5828 0.0476,-0.2291 0.0125,-0.4673 -0.0993,-0.674 -0.1119,-0.2067 -0.2935,-0.3692 -0.5141,-0.4598 -0.2206,-0.0906 -0.4665,-0.1037 -0.6958,-0.0372 -0.2294,0.0666 -0.4281,0.2087 -0.5624,0.4022 -0.1342,0.1936 -0.1957,0.4266 -0.174,0.6594 0.0106,0.1337 0.0492,0.2638 0.1133,0.3824 0.0641,0.1185 0.1525,0.2229 0.2596,0.3068 z m -37.832,0.2332 c 0.24157,0.0236 0.48405,-0.0354 0.68605,-0.167 0.20195,-0.1316 0.35095,-0.3277 0.42155,-0.5547 0.0705,-0.227 0.0583,-0.4708 -0.0347,-0.69 -0.093,-0.2191 -0.2609,-0.4 -0.47515,-0.5116 -0.21422,-0.1116 -0.46146,-0.1472 -0.6995,-0.1005 -0.23804,0.0466 -0.45213,0.1726 -0.60574,0.3563 -0.1536,0.1837 -0.23719,0.4138 -0.2365,0.6511 6.8e-4,0.2372 0.08561,0.4668 0.24028,0.6497 0.08538,0.1049 0.19188,0.1916 0.31292,0.2547 0.12105,0.0631 0.25405,0.1012 0.39079,0.112 z M 41.4699,9.25169 41.7427,8.33706 40.5017,7.6114 39.8059,8.27885 38.5872,7.56639 42.3515,4.36613 43.8518,5.24196 42.7447,9.99597 Z M 42.5,5.69909 41.2241,6.91407 42.0306,7.38556 42.5235,5.71228 Z m -6.5441,0.96936 -1.3363,-0.38805 1.345,-4.44279 1.3367,0.38805 z m -6.0498,-1.10052 -1.39,-0.08498 0.2943,-4.625955 3.3267,0.203725 -0.0695,1.08034 -1.9352,-0.11991 -0.0568,0.88786 1.7521,0.1071 -0.0651,1.01941 -1.7521,-0.1071 z M 20.7003,2.52559 c 0.3206,-0.51223 0.8387,-0.84854 1.5543,-1.00893 0.7157,-0.1604 1.332,-0.07748 1.849,0.24874 0.5166,0.3257 0.8593,0.84892 1.0282,1.56966 0.1689,0.72074 0.0924,1.33697 -0.2295,1.84868 C 24.5817,5.69597 24.0635,6.03228 23.3479,6.19267 22.6323,6.35307 22.0156,6.2708 21.4977,5.94587 20.982,5.62068 20.6398,5.09811 20.4711,4.37814 20.3025,3.65818 20.3789,3.04066 20.7003,2.52559 Z m 2.5694,0.24253 C 23.0423,2.57513 22.7865,2.51046 22.5024,2.5741 22.2184,2.63774 22.0169,2.80525 21.898,3.07662 21.7794,3.34671 21.7662,3.67707 21.8583,4.0677 c 0.0921,0.39064 0.251,0.68142 0.4766,0.87234 0.2266,0.19325 0.4829,0.25793 0.7688,0.19403 C 23.2396,5.1067 23.3662,5.04647 23.4721,4.95888 23.578,4.87129 23.6597,4.75914 23.7097,4.63271 23.8275,4.36262 23.8407,4.03343 23.7494,3.64512 23.6581,3.25681 23.4982,2.96499 23.2697,2.76967 Z M 14.2594,8.5039 15.3972,7.85314 c 0.0834,0.10128 0.2073,0.15211 0.3729,0.15172 0.1747,-0.00272 0.3454,-0.05152 0.494,-0.14125 0.1782,-0.10167 0.3008,-0.21394 0.3678,-0.33682 0.0675,-0.12302 0.0714,-0.23283 0.0127,-0.33101 -0.0249,-0.0441 -0.062,-0.08049 -0.107,-0.10505 -0.045,-0.02456 -0.0961,-0.03629 -0.1476,-0.03387 -0.1146,0 -0.2949,0.04423 -0.5409,0.13271 L 15.2523,7.40494 C 14.84,7.55628 14.4732,7.58732 14.1518,7.49807 13.8304,7.40882 13.5751,7.20716 13.3858,6.8931 13.1475,6.49392 13.1129,6.0844 13.2821,5.66453 c 0.1692,-0.41987 0.5019,-0.77145 0.998,-1.05472 0.5393,-0.30812 1.0248,-0.43449 1.4566,-0.37913 0.4319,0.05536 0.7672,0.2781 1.006,0.66823 L 15.6446,5.52677 C 15.6089,5.46858 15.5587,5.42023 15.4986,5.38629 15.4385,5.35234 15.3705,5.33391 15.3011,5.33275 15.1486,5.32421 14.9898,5.36754 14.8246,5.46274 c -0.1568,0.08977 -0.2639,0.19079 -0.3213,0.30307 -0.0282,0.04856 -0.0428,0.10355 -0.0421,0.15938 6e-4,0.05583 0.0164,0.11049 0.0457,0.15843 0.0266,0.04573 0.0652,0.0837 0.1118,0.11002 0.0466,0.02632 0.0996,0.04005 0.1534,0.03977 0.1192,0.00582 0.2887,-0.03104 0.5052,-0.1102 L 15.8956,5.8962 c 0.4379,-0.15859 0.8085,-0.19856 1.1119,-0.11991 0.3034,0.07864 0.552,0.28082 0.7458,0.60652 0.2444,0.40849 0.277,0.82655 0.0977,1.25418 C 17.6718,8.06462 17.3086,8.4347 16.7613,8.74721 16.2101,9.06282 15.7153,9.20084 15.2769,9.16126 14.8385,9.12168 14.4993,8.90256 14.2594,8.5039 Z m 37.8857,7.7793 0.7426,-0.3435 1.3439,2.7758 -4.289,1.9821 -1.3438,-2.7757 0.7394,-0.3419 0.9193,1.8988 1.0326,-0.4781 -0.8646,-1.7913 0.6894,-0.3186 0.8678,1.7913 1.0813,-0.5002 z m 3.7925,8.2418 c 0.108,0.6685 -0.0224,1.2301 -0.3912,1.6849 -0.3688,0.4548 -0.9298,0.7405 -1.683,0.8572 -0.7508,0.1162 -1.3738,0.0127 -1.8689,-0.3104 -0.495,-0.3232 -0.7963,-0.8175 -0.9038,-1.4832 -0.0605,-0.3418 -0.0399,-0.6927 0.06,-1.0256 0.0925,-0.3097 0.2675,-0.5898 0.5071,-0.8118 0.243,-0.2233 0.5436,-0.3779 0.8697,-0.447 l 0.1509,0.9313 c -0.2628,0.0754 -0.4879,0.2427 -0.6326,0.4699 -0.1415,0.226 -0.1927,0.495 -0.1438,0.7556 0.0585,0.3621 0.2503,0.6283 0.5754,0.7986 0.3252,0.1702 0.7334,0.2177 1.2248,0.1424 0.4998,-0.0776 0.877,-0.2458 1.1314,-0.5045 0.2544,-0.2587 0.3517,-0.5718 0.2919,-0.9395 -0.0458,-0.2845 -0.165,-0.5101 -0.3574,-0.6767 -0.1925,-0.1666 -0.4308,-0.2543 -0.7149,-0.2631 l -0.1513,-0.9313 c 0.5295,-0.0277 0.9783,0.1164 1.3463,0.4323 0.368,0.3158 0.5978,0.7561 0.6894,1.3209 z m -0.1553,9.2387 -0.1346,0.9189 -4.694,-0.6573 0.1191,-0.801 3.3724,-1.7151 0.004,-0.0253 -3.0579,-0.4268 0.1346,-0.9189 4.6956,0.6569 -0.1163,0.7948 -3.3895,1.7159 -0.004,0.0288 z m -2.1211,4.5228 0.7478,0.3325 -1.3022,2.794 -4.3171,-1.9209 1.3021,-2.7939 0.745,0.3314 -0.8907,1.9119 1.0413,0.4633 0.8399,-1.8032 0.6937,0.3104 -0.8403,1.8037 1.089,0.4842 z m -8.9634,6.5805 1.1885,-1.3582 c 0.4647,-0.5301 0.9817,-0.812 1.5512,-0.8459 0.5695,-0.0339 1.1387,0.1873 1.7076,0.6635 0.5708,0.4779 0.8867,0.9981 0.9476,1.5608 0.0609,0.5626 -0.1403,1.1082 -0.6036,1.6368 l -1.1886,1.3581 z m 1.2672,-0.2165 2.3565,1.9724 0.4666,-0.532 c 0.2891,-0.3301 0.4083,-0.6664 0.3574,-1.0089 -0.0508,-0.3425 -0.27,-0.676 -0.6576,-1.0004 -0.3762,-0.3146 -0.742,-0.4685 -1.0972,-0.4618 -0.3553,0.0067 -0.6757,0.1729 -0.9611,0.4986 z m -0.8248,5.8413 -0.8053,0.5677 -2.7751,-3.759 0.8053,-0.5677 z m -8.1975,2.7982 0.8828,-0.3597 c 0.0945,0.1658 0.2492,0.2682 0.4642,0.307 0.215,0.0388 0.4448,0.0084 0.6894,-0.0912 0.2425,-0.0989 0.4184,-0.2303 0.5278,-0.3943 0.1093,-0.164 0.1302,-0.325 0.0627,-0.4831 -0.0262,-0.0657 -0.0683,-0.1242 -0.1227,-0.1705 -0.0545,-0.0463 -0.1196,-0.079 -0.1898,-0.0953 -0.1496,-0.0386 -0.3691,-0.0326 -0.6584,0.0178 l -0.6223,0.111 c -0.8737,0.1594 -1.4452,-0.0752 -1.7144,-0.7035 -0.0829,-0.1813 -0.1204,-0.3792 -0.1094,-0.5774 0.0111,-0.1982 0.0704,-0.391 0.1729,-0.5623 0.2097,-0.3684 0.5602,-0.653 1.0516,-0.8538 0.5059,-0.2069 0.9595,-0.2543 1.3606,-0.142 0.4011,0.1123 0.689,0.361 0.8637,0.7462 l -0.8586,0.3493 c -0.0406,-0.0827 -0.1002,-0.1551 -0.1741,-0.2116 -0.0739,-0.0566 -0.1601,-0.0957 -0.252,-0.1144 -0.1927,-0.0429 -0.4045,-0.017 -0.6354,0.0776 -0.2266,0.0924 -0.3885,0.2151 -0.4857,0.3683 -0.0468,0.0677 -0.0755,0.1459 -0.0833,0.2273 -0.0078,0.0813 0.0056,0.1633 0.0388,0.2384 0.0256,0.0628 0.0668,0.1184 0.1198,0.1618 0.0531,0.0434 0.1163,0.0733 0.184,0.0869 0.1467,0.0352 0.3585,0.03 0.6354,-0.0155 l 0.5775,-0.1067 c 0.4778,-0.088 0.8579,-0.0765 1.1401,0.0345 0.2822,0.111 0.4931,0.3296 0.6326,0.6558 0.1771,0.4139 0.1581,0.8087 -0.0572,1.1843 -0.2152,0.3757 -0.5949,0.6732 -1.1389,0.8926 -0.5295,0.2152 -0.9989,0.2713 -1.4082,0.1684 -0.4093,-0.103 -0.7072,-0.3516 -0.8935,-0.7459 z m -3.4565,1.3803 0.0997,0.7971 -3.1194,0.3725 -0.5759,-4.6003 3.1194,-0.3729 0.0997,0.7939 -2.1341,0.255 0.139,1.1094 2.0126,-0.2406 0.0929,0.7396 -2.013,0.2406 0.1453,1.1607 z m -9.512,-0.8987 -0.2569,1.6771 -0.9817,-0.1435 0.7021,-4.5837 1.9376,0.2833 c 0.5353,0.0776 0.9324,0.2683 1.1914,0.572 0.2589,0.3037 0.3533,0.6828 0.2831,1.1374 -0.0384,0.2827 -0.1593,0.5486 -0.3483,0.766 -0.1816,0.2091 -0.4286,0.3539 -0.7029,0.4121 l 0.7101,1.9647 -1.112,-0.1622 -0.6179,-1.8052 z m 0.3324,-2.1576 -0.224,1.4614 0.8614,0.1258 c 0.2475,0.0362 0.4498,-3e-4 0.6068,-0.1095 0.157,-0.1091 0.2532,-0.2779 0.2887,-0.5064 0.0342,-0.2225 -0.0103,-0.4103 -0.1334,-0.5634 -0.1231,-0.1532 -0.3058,-0.2476 -0.548,-0.2833 z m -10.9209,-0.2134 -0.8181,-0.5495 1.0044,-1.4264 0.3236,-3.3062 0.8912,0.5987 -0.2705,2.2193 0.0187,0.0124 2.0253,-1.0404 0.8773,0.5899 -3.046,1.4769 z M 8.11979,44.3474 6.7795,45.425 6.14886,44.6757 9.81154,41.7308 11.0561,43.2089 c 0.3442,0.4084 0.5082,0.8094 0.4921,1.2029 -0.0162,0.3935 -0.2057,0.7376 -0.5687,1.0322 -0.2223,0.1848 -0.4943,0.3032 -0.7835,0.3411 C 9.9176,45.8213 9.63481,45.7667 9.39138,45.6299 L 8.57172,47.5531 7.8569,46.7048 8.63526,44.9586 Z m 1.72352,-1.3869 -1.16754,0.9391 0.55319,0.6573 c 0.15885,0.1886 0.33411,0.2939 0.52579,0.3159 0.19168,0.022 0.37885,-0.0405 0.56155,-0.1874 0.1776,-0.1428 0.2735,-0.311 0.2875,-0.5045 0.014,-0.1935 -0.057,-0.3831 -0.2133,-0.5689 z M 7.12146,36.6178 4.38408,37.7393 c -0.28513,0.1177 -0.47734,0.2888 -0.57662,0.5134 -0.09928,0.2245 -0.0879,0.4793 0.03415,0.7644 0.12073,0.2823 0.29824,0.4678 0.53254,0.5565 0.23431,0.0887 0.49389,0.0746 0.77876,-0.0423 L 7.89029,38.4098 8.27391,39.3043 5.44559,40.463 C 4.96084,40.6617 4.49964,40.6598 4.06201,40.4572 3.62438,40.2546 3.28908,39.8818 3.0561,39.3388 2.82232,38.7937 2.78473,38.2977 2.94331,37.8507 3.1019,37.4036 3.42383,37.0802 3.90912,36.8805 l 2.82832,-1.1591 z m -6.205444,-7.17 2.512604,1.2367 0.02621,-0.0023 2.18418,-1.6787 0.11398,1.1351 -1.60399,1.1416 0.00278,0.0252 1.80057,0.8242 0.10881,1.0773 L 3.55927,31.924 3.53664,31.9263 1.33856,33.6419 1.22776,32.5421 2.77654,31.3733 2.77416,31.3481 1.02086,30.4901 Z M 6.37417,23.5285 3.46325,22.9607 C 3.16037,22.9018 2.90317,22.9385 2.69163,23.0709 2.4801,23.2034 2.34349,23.4208 2.2818,23.7233 c -0.06142,0.3001 -0.02038,0.551 0.12311,0.7528 0.14349,0.2018 0.36668,0.332 0.66955,0.3907 L 5.98538,25.4346 5.79079,26.3857 2.78258,25.7993 C 2.26684,25.699 1.88574,25.445 1.63925,25.0376 1.39277,24.6301 1.32857,24.1377 1.44665,23.5603 1.56473,22.9805 1.8177,22.5489 2.20555,22.2654 2.59341,21.9818 3.04507,21.8902 3.56054,21.9906 l 3.00782,0.5864 z m -2.39709,-5.0866 -0.7319,-0.3644 1.39192,-2.6686 4.2262,2.104 -0.45034,0.8642 -3.4947,-1.7396 z"
       style="fill:#333333"
       id="path82" />
  </g>
</svg>
