<svg width="50" height="49" viewBox="0 0 50 49" fill="none" xmlns="http://www.w3.org/2000/svg">
<path d="M12.9026 27.7499H3.97636C3.11579 27.7489 2.29075 27.4066 1.68224 26.7981C1.07372 26.1896 0.731435 25.3645 0.730469 24.504V3.40568C0.731435 2.54511 1.07372 1.72007 1.68224 1.11156C2.29075 0.503044 3.11579 0.160757 3.97636 0.15979H25.0747C25.9352 0.160757 26.7603 0.503044 27.3688 1.11156C27.9773 1.72007 28.3196 2.54511 28.3206 3.40568V17.2007H26.6976V3.40568C26.6971 2.97541 26.5259 2.5629 26.2217 2.25865C25.9174 1.9544 25.5049 1.78325 25.0747 1.78274H3.97636C3.54609 1.78325 3.13358 1.9544 2.82933 2.25865C2.52508 2.5629 2.35392 2.97541 2.35341 3.40568V24.504C2.35392 24.9343 2.52508 25.3468 2.82933 25.651C3.13358 25.9553 3.54609 26.1264 3.97636 26.1269H12.9026V27.7499Z" fill="#A4947E"/>
<path d="M11.2796 24.5039H6.41075C6.19554 24.5039 5.98913 24.4184 5.83695 24.2662C5.68477 24.1141 5.59928 23.9077 5.59928 23.6924V4.21709C5.59928 4.00187 5.68477 3.79547 5.83695 3.64329C5.98913 3.49111 6.19554 3.40561 6.41075 3.40561H16.1484C18.0854 3.40561 19.943 4.17506 21.3126 5.54469C22.6822 6.91431 23.4517 8.77193 23.4517 10.7089C23.4517 12.6458 22.6822 14.5034 21.3126 15.8731C19.943 17.2427 18.0854 18.0121 16.1484 18.0121H12.0911V23.6924C12.0911 23.9077 12.0056 24.1141 11.8534 24.2662C11.7012 24.4184 11.4948 24.5039 11.2796 24.5039ZM7.22222 22.881H10.4681V17.2007C10.4681 16.9854 10.5536 16.779 10.7058 16.6269C10.858 16.4747 11.0644 16.3892 11.2796 16.3892H16.1484C17.6549 16.3892 19.0998 15.7907 20.165 14.7255C21.2303 13.6602 21.8287 12.2154 21.8287 10.7089C21.8287 9.20236 21.2303 7.75755 20.165 6.69228C19.0998 5.62702 17.6549 5.02856 16.1484 5.02856H7.22222V22.881ZM16.1484 13.1433H11.2796C11.0644 13.1433 10.858 13.0578 10.7058 12.9056C10.5536 12.7534 10.4681 12.547 10.4681 12.3318V9.08592C10.4681 8.87071 10.5536 8.66431 10.7058 8.51213C10.858 8.35995 11.0644 8.27445 11.2796 8.27445H16.1484C16.7941 8.27445 17.4133 8.53093 17.8698 8.98748C18.3264 9.44402 18.5828 10.0632 18.5828 10.7089C18.5828 11.3545 18.3264 11.9737 17.8698 12.4303C17.4133 12.8868 16.7941 13.1433 16.1484 13.1433ZM12.0911 11.5203H16.1484C16.3636 11.5203 16.57 11.4348 16.7222 11.2827C16.8744 11.1305 16.9599 10.9241 16.9599 10.7089C16.9599 10.4937 16.8744 10.2873 16.7222 10.1351C16.57 9.98289 16.3636 9.8974 16.1484 9.8974H12.0911V11.5203Z" fill="#A4947E"/>
<path d="M48.3697 32.0449C47.7263 31.3983 46.8591 31.0236 45.9473 30.9984L42.6287 21.043C42.4137 20.3964 42.0005 19.834 41.4477 19.4356C40.8949 19.0372 40.2307 18.8231 39.5493 18.8237H20.3377C19.6563 18.8231 18.992 19.0372 18.4393 19.4356C17.8865 19.834 17.4732 20.3964 17.2582 21.043L13.9397 30.9984C13.0093 31.0268 12.1265 31.4163 11.4785 32.0845C10.8304 32.7526 10.468 33.6469 10.4681 34.5777V40.7335C10.4691 41.594 10.8114 42.4191 11.4199 43.0276C12.0284 43.6361 12.8535 43.9784 13.714 43.9793H19.3943V47.2252H14.5255V45.6023H12.9025V47.2252C12.9031 47.6555 13.0742 48.068 13.3785 48.3723C13.6827 48.6765 14.0952 48.8477 14.5255 48.8482H19.3943C19.8246 48.8477 20.2371 48.6765 20.5414 48.3723C20.8456 48.068 21.0168 47.6555 21.0173 47.2252V43.9793H38.8697V47.2252C38.8702 47.6555 39.0413 48.068 39.3456 48.3723C39.6498 48.6765 40.0624 48.8477 40.4926 48.8482H45.3615C45.7917 48.8477 46.2043 48.6765 46.5085 48.3723C46.8128 48.068 46.9839 47.6555 46.9844 47.2252V43.8766C47.6807 43.6958 48.2974 43.2892 48.7379 42.7204C49.1784 42.1516 49.4179 41.4529 49.4188 40.7335V34.5777C49.4201 34.1071 49.328 33.641 49.148 33.2062C48.9679 32.7715 48.7034 32.3767 48.3697 32.0449ZM20.3377 20.4466H39.5493C39.89 20.4464 40.2222 20.5535 40.4986 20.7527C40.775 20.9519 40.9816 21.2331 41.0892 21.5564L41.2602 22.0696H18.6268L18.7978 21.5564C18.9053 21.2331 19.112 20.9519 19.3884 20.7527C19.6648 20.5535 19.9969 20.4464 20.3377 20.4466ZM18.0858 23.6925H41.8011L44.2355 30.9958H15.6514L18.0858 23.6925ZM45.3615 47.2252H40.4926V43.9793H45.3615V47.2252ZM47.7959 40.7335C47.7954 41.1637 47.6242 41.5762 47.32 41.8805C47.0157 42.1847 46.6032 42.3559 46.1729 42.3564H13.714C13.2837 42.3559 12.8712 42.1847 12.567 41.8805C12.2627 41.5762 12.0916 41.1637 12.0911 40.7335V34.5777C12.0911 34.0582 12.2975 33.5599 12.6649 33.1925C13.0323 32.8252 13.5305 32.6188 14.0501 32.6187H45.8369C46.3564 32.6188 46.8547 32.8252 47.2221 33.1925C47.5895 33.5599 47.7959 34.0582 47.7959 34.5777V40.7335Z" fill="#A4947E"/>
<path d="M16.9598 34.2416C16.3179 34.2416 15.6903 34.432 15.1565 34.7887C14.6227 35.1453 14.2067 35.6523 13.961 36.2454C13.7154 36.8385 13.6511 37.4911 13.7763 38.1208C13.9016 38.7504 14.2107 39.3288 14.6647 39.7827C15.1186 40.2367 15.697 40.5458 16.3266 40.671C16.9562 40.7963 17.6089 40.732 18.202 40.4863C18.7951 40.2407 19.302 39.8246 19.6587 39.2908C20.0154 38.7571 20.2057 38.1295 20.2057 37.4875C20.2048 36.627 19.8625 35.8019 19.254 35.1934C18.6455 34.5849 17.8204 34.2426 16.9598 34.2416ZM16.9598 39.1105C16.6389 39.1105 16.3251 39.0153 16.0582 38.837C15.7913 38.6586 15.5833 38.4052 15.4604 38.1086C15.3376 37.812 15.3055 37.4857 15.3681 37.1709C15.4307 36.8561 15.5853 36.5669 15.8123 36.3399C16.0392 36.113 16.3284 35.9584 16.6432 35.8958C16.958 35.8331 17.2844 35.8653 17.5809 35.9881C17.8775 36.111 18.1309 36.319 18.3093 36.5859C18.4876 36.8528 18.5828 37.1665 18.5828 37.4875C18.5823 37.9178 18.4111 38.3303 18.1069 38.6346C17.8026 38.9388 17.3901 39.11 16.9598 39.1105Z" fill="#A4947E"/>
<path d="M42.927 34.2416C42.285 34.2416 41.6575 34.432 41.1237 34.7887C40.5899 35.1453 40.1739 35.6523 39.9282 36.2454C39.6825 36.8385 39.6182 37.4911 39.7435 38.1208C39.8687 38.7504 40.1779 39.3288 40.6318 39.7827C41.0858 40.2367 41.6641 40.5458 42.2938 40.671C42.9234 40.7963 43.5761 40.732 44.1692 40.4863C44.7623 40.2407 45.2692 39.8246 45.6259 39.2908C45.9825 38.7571 46.1729 38.1295 46.1729 37.4875C46.1719 36.627 45.8297 35.8019 45.2211 35.1934C44.6126 34.5849 43.7876 34.2426 42.927 34.2416ZM42.927 39.1105C42.606 39.1105 42.2922 39.0153 42.0254 38.837C41.7585 38.6586 41.5504 38.4052 41.4276 38.1086C41.3048 37.812 41.2726 37.4857 41.3353 37.1709C41.3979 36.8561 41.5524 36.5669 41.7794 36.3399C42.0064 36.113 42.2956 35.9584 42.6104 35.8958C42.9252 35.8331 43.2515 35.8653 43.5481 35.9881C43.8446 36.111 44.0981 36.319 44.2765 36.5859C44.4548 36.8528 44.55 37.1665 44.55 37.4875C44.5495 37.9178 44.3783 38.3303 44.0741 38.6346C43.7698 38.9388 43.3573 39.11 42.927 39.1105Z" fill="#A4947E"/>
<path d="M21.8287 35.0531H38.0582V36.6761H21.8287V35.0531Z" fill="#A4947E"/>
<path d="M21.8287 38.2991H38.0582V39.922H21.8287V38.2991Z" fill="#A4947E"/>
</svg>
