<svg width="41" height="41" viewBox="0 0 41 41" fill="none" xmlns="http://www.w3.org/2000/svg">
<path d="M25.2073 0.452576H20.3782C9.32318 0.452576 0.361328 9.41444 0.361328 20.4694C0.361328 31.5245 9.32319 40.4863 20.3782 40.4863C31.4332 40.4863 40.3951 31.5245 40.3951 20.4694V15.9524H38.8951V20.4694C38.8951 30.696 30.6048 38.9863 20.3782 38.9863C10.1516 38.9863 1.86133 30.696 1.86133 20.4694C1.86133 10.2429 10.1516 1.95258 20.3782 1.95258H25.2073V0.452576Z" fill="#A4947E"/>
<path d="M3.88931 17.6107C4.51642 13.9679 6.32128 10.728 8.89773 8.29712L9.95889 9.35828C7.65714 11.5176 6.0266 14.3839 5.41389 17.6107H3.88931Z" fill="#A4947E"/>
<path d="M3.673 19.5118C3.65512 19.8287 3.64606 20.148 3.64606 20.4694C3.64606 24.7768 5.27371 28.7041 7.94751 31.6697L9.00974 30.6075C6.60665 27.9146 5.14606 24.3626 5.14606 20.4694C5.14606 20.1478 5.15603 19.8285 5.17567 19.5118L3.673 19.5118Z" fill="#A4947E"/>
<path d="M35.6102 19.5118V20.4694C35.6102 23.813 34.5329 26.905 32.7064 29.4172L33.7791 30.4899C35.8711 27.6966 37.1102 24.2277 37.1102 20.4694V19.5118H35.6102Z" fill="#A4947E"/>
<path d="M37.1102 17.6107V15.7333H35.6102V17.6107H37.1102Z" fill="#A4947E"/>
<path d="M23.2299 35.435C26.4595 34.8233 29.3284 33.1921 31.4893 30.8887L32.5504 31.9498C30.118 34.5279 26.8755 36.3334 23.2299 36.9594V35.435Z" fill="#A4947E"/>
<path d="M10.3577 7.06842L11.4304 8.14111C13.9425 6.31464 17.0345 5.23731 20.3781 5.23731H21.3287V3.73731H20.3781C16.6198 3.73731 13.1509 4.97643 10.3577 7.06842Z" fill="#A4947E"/>
<path d="M9.29829 33.0076C12.2494 35.6174 16.1288 37.2015 20.3781 37.2015C20.6972 37.2015 21.0141 37.1926 21.3287 37.1749V35.6723C21.0143 35.6917 20.6974 35.7015 20.3781 35.7015C16.543 35.7015 13.039 34.2841 10.3612 31.9447L9.29829 33.0076Z" fill="#A4947E"/>
<path d="M23.2299 3.73731V5.23731H25.4875V3.73731H23.2299Z" fill="#A4947E"/>
<path d="M25.4123 7.21916H20.3782C13.0602 7.21916 7.12786 13.1515 7.12786 20.4695C7.12786 27.7874 13.0602 33.7198 20.3782 33.7198C27.6961 33.7198 33.6285 27.7874 33.6285 20.4695V15.824H32.1285V20.4695C32.1285 26.959 26.8677 32.2198 20.3782 32.2198C13.8887 32.2198 8.62786 26.959 8.62786 20.4695C8.62786 13.98 13.8886 8.71916 20.3782 8.71916H25.4123V7.21916Z" fill="#A4947E"/>
<circle cx="34.9496" cy="5.8983" r="5.44572" fill="#C947FD"/>
</svg>
